<?xml version="1.0" encoding="UTF-8"?>
<svg version="1.1" xmlns="http://www.w3.org/2000/svg" width="124" height="121">
<path d="M0 0 C0.99 0.33 1.98 0.66 3 1 C3 1.66 3 2.32 3 3 C3.721875 3.2475 4.44375 3.495 5.1875 3.75 C10.3949857 6.06443809 14.06496466 9.96406632 18 14 C18.7425 14.639375 19.485 15.27875 20.25 15.9375 C22.47090625 18.55499665 22.6937722 20.63149425 23 24 C23.66 24 24.32 24 25 24 C26.63789602 27.60394053 27.25585235 30.42831312 27.265625 34.37890625 C27.26949219 35.88420898 27.26949219 35.88420898 27.2734375 37.41992188 C27.26570313 38.45697266 27.25796875 39.49402344 27.25 40.5625 C27.26160156 42.12387695 27.26160156 42.12387695 27.2734375 43.71679688 C27.27085938 44.71904297 27.26828125 45.72128906 27.265625 46.75390625 C27.26336914 47.66470947 27.26111328 48.5755127 27.25878906 49.51391602 C26.9842734 52.15107924 26.43317302 53.77990649 25 56 C24.33484375 56.24492188 23.6696875 56.48984375 22.984375 56.7421875 C20.56607126 57.96595627 20.56607126 57.96595627 19.953125 61.6953125 C19.70088448 63.16892818 19.46715275 64.64580659 19.25 66.125 C19.12496094 66.87910156 18.99992187 67.63320312 18.87109375 68.41015625 C18.56489524 70.27090102 18.28035912 72.13518704 18 74 C17.01 74 16.02 74 15 74 C15 73.34 15 72.68 15 72 C14.34 72 13.68 72 13 72 C13 72.99 13 73.98 13 75 C12.34 75 11.68 75 11 75 C11.10441406 75.92619141 11.10441406 75.92619141 11.2109375 76.87109375 C11.60957907 83.10698685 10.67738741 87.13082698 6.890625 92.15625 C3.65814398 95.30858686 0.34411549 96.13950428 -4 97 C-5.14855469 97.30164063 -5.14855469 97.30164063 -6.3203125 97.609375 C-21.67182638 101.17054123 -38.08946692 99.96922546 -52.4375 93.625 C-54.79140358 92.55094693 -54.79140358 92.55094693 -57 92 C-59.80167287 93.26333273 -59.80167287 93.26333273 -62 95 C-64.6875 94.6875 -64.6875 94.6875 -67 93 C-67.45381995 90.99022594 -67.90242629 88.97837484 -68.28125 86.953125 C-69.35243701 84.04229073 -71.55552082 83.26335443 -74.24609375 81.98828125 C-77.2186459 80.31332425 -78.48355878 77.9722248 -80 75 C-80.25 72.125 -80.25 72.125 -80 70 C-80.66 70 -81.32 70 -82 70 C-82 68.02 -82 66.04 -82 64 C-83.65 64 -85.3 64 -87 64 C-89.2813677 58.06071054 -88.81895309 54.84550131 -86.5625 49 C-84.45129479 43.44811527 -83.84855274 39.99154243 -85 34 C-85.56615422 20.84678922 -84.44359073 10.55421401 -77.25 -0.75 C-60.49038107 -17.50961893 -18.2838732 -10.24633163 0 0 Z " fill="#D16787" transform="translate(91,16)"/>
<path d="M0 0 C0.99 0.33 1.98 0.66 3 1 C3 1.66 3 2.32 3 3 C3.721875 3.2475 4.44375 3.495 5.1875 3.75 C10.3949857 6.06443809 14.06496466 9.96406632 18 14 C18.7425 14.639375 19.485 15.27875 20.25 15.9375 C22.47090625 18.55499665 22.6937722 20.63149425 23 24 C23.66 24 24.32 24 25 24 C26.68158146 27.66864051 27.24028871 30.49416047 27.1953125 34.51953125 C27.18886719 35.54111328 27.18242188 36.56269531 27.17578125 37.61523438 C27.15064453 39.19788086 27.15064453 39.19788086 27.125 40.8125 C27.11597656 41.88693359 27.10695313 42.96136719 27.09765625 44.06835938 C27.07415306 46.71246854 27.04129575 49.35611872 27 52 C25 51 23 50 21 49 C21 48.34 21 47.68 21 47 C19.35 46.67 17.7 46.34 16 46 C16 45.34 16 44.68 16 44 C15.34 44 14.68 44 14 44 C13.566875 43.54625 13.13375 43.0925 12.6875 42.625 C10.64371183 40.65690769 8.65469676 39.93273129 6 39 C6 38.34 6 37.68 6 37 C4.68 37 3.36 37 2 37 C2 36.34 2 35.68 2 35 C1.01 35 0.02 35 -1 35 C-1 34.34 -1 33.68 -1 33 C-2.50240234 32.92652344 -2.50240234 32.92652344 -4.03515625 32.8515625 C-5.37762759 32.77645921 -6.7200743 32.70091474 -8.0625 32.625 C-9.37347656 32.55539063 -10.68445313 32.48578125 -12.03515625 32.4140625 C-15.91778538 32.00858596 -19.27350974 31.12871728 -23 30 C-27.03646821 29.2245723 -30.94953063 28.83171797 -35.0546875 28.68359375 C-36.16328125 28.64169922 -37.271875 28.59980469 -38.4140625 28.55664062 C-39.55617187 28.51732422 -40.69828125 28.47800781 -41.875 28.4375 C-43.0403125 28.39431641 -44.205625 28.35113281 -45.40625 28.30664062 C-48.27072625 28.20098371 -51.13528321 28.09888201 -54 28 C-54 28.66 -54 29.32 -54 30 C-54.76183594 30.10957031 -55.52367187 30.21914063 -56.30859375 30.33203125 C-62.81663749 31.33139377 -68.83213207 32.70832932 -75 35 C-76.485 35.495 -76.485 35.495 -78 36 C-78.13277344 36.71027344 -78.26554687 37.42054687 -78.40234375 38.15234375 C-78.57894531 39.07144531 -78.75554687 39.99054687 -78.9375 40.9375 C-79.11152344 41.85402344 -79.28554687 42.77054688 -79.46484375 43.71484375 C-80 46 -80 46 -81 47 C-81.23427778 49.01594582 -81.41336124 51.038474 -81.5625 53.0625 C-81.68818359 54.71958984 -81.68818359 54.71958984 -81.81640625 56.41015625 C-81.87699219 57.26480469 -81.93757813 58.11945313 -82 59 C-82.66 59 -83.32 59 -84 59 C-84 60.32 -84 61.64 -84 63 C-83.01 63 -82.02 63 -81 63 C-81.33 64.32 -81.66 65.64 -82 67 C-82 66.01 -82 65.02 -82 64 C-83.65 64 -85.3 64 -87 64 C-89.2813677 58.06071054 -88.81895309 54.84550131 -86.5625 49 C-84.45129479 43.44811527 -83.84855274 39.99154243 -85 34 C-85.56615422 20.84678922 -84.44359073 10.55421401 -77.25 -0.75 C-60.49038107 -17.50961893 -18.2838732 -10.24633163 0 0 Z " fill="#57A9F4" transform="translate(91,16)"/>
<path d="M0 0 C0.99 0 1.98 0 3 0 C5.10770759 2.88834003 6 4.38462395 6 8 C6.66 8 7.32 8 8 8 C8.495 10.475 8.495 10.475 9 13 C9.66 13 10.32 13 11 13 C10.67 13.99 10.34 14.98 10 16 C5.38 16 0.76 16 -4 16 C-4 16.66 -4 17.32 -4 18 C-4.66 18 -5.32 18 -6 18 C-6 21.96 -6 25.92 -6 30 C-2.37 30.33 1.26 30.66 5 31 C5 30.01 5 29.02 5 28 C5.66 28 6.32 28 7 28 C7 25.03 7 22.06 7 19 C8.32 19.33 9.64 19.66 11 20 C11 20.66 11 21.32 11 22 C11.66 22 12.32 22 13 22 C13.495 25.96 13.495 25.96 14 30 C14.66 30 15.32 30 16 30 C16.33 29.34 16.66 28.68 17 28 C17 28.99 17 29.98 17 31 C16.34 31 15.68 31 15 31 C15.10441406 31.92619141 15.10441406 31.92619141 15.2109375 32.87109375 C15.62107178 39.28676563 14.39903062 42.99470692 10.80078125 48.28515625 C8.59498843 50.38568347 6.98398526 50.66957574 4 51 C4 50.34 4 49.68 4 49 C3.41516846 49.14002441 2.83033691 49.28004883 2.2277832 49.42431641 C-4.49813622 50.91632678 -10.9329743 51.38379173 -17.8125 51.375 C-18.86115234 51.37628906 -19.90980469 51.37757812 -20.99023438 51.37890625 C-28.94059853 51.27060408 -35.65563514 50.21315962 -43 47 C-43 46.01 -43 45.02 -43 44 C-43.66 43.67 -44.32 43.34 -45 43 C-44.34 41.02 -43.68 39.04 -43 37 C-41.35 37 -39.7 37 -38 37 C-38 36.34 -38 35.68 -38 35 C-34.535 34.505 -34.535 34.505 -31 34 C-31.33 33.01 -31.66 32.02 -32 31 C-37.73888267 29.08703911 -44.13917917 29.80391412 -50 31 C-50.33 31.66 -50.66 32.32 -51 33 C-51.66 32.67 -52.32 32.34 -53 32 C-53.02712153 30.083412 -53.04645097 28.1667127 -53.0625 26.25 C-53.07410156 25.18265625 -53.08570313 24.1153125 -53.09765625 23.015625 C-53.01510087 20.46631499 -52.74617558 18.42066409 -52 16 C-50.68 16.33 -49.36 16.66 -48 17 C-48 17.99 -48 18.98 -48 20 C-43.71 20 -39.42 20 -35 20 C-35 20.33 -35 20.66 -35 21 C-38.3 21 -41.6 21 -45 21 C-45 21.66 -45 22.32 -45 23 C-46.65 23 -48.3 23 -50 23 C-50 24.65 -50 26.3 -50 28 C-46.535 27.505 -46.535 27.505 -43 27 C-43 26.34 -43 25.68 -43 25 C-40.03 25 -37.06 25 -34 25 C-34 25.66 -34 26.32 -34 27 C-33.01 27 -32.02 27 -31 27 C-31.99 24.03 -32.98 21.06 -34 18 C-37.96 18 -41.92 18 -46 18 C-46.33 16.35 -46.66 14.7 -47 13 C-46.01 12.67 -45.02 12.34 -44 12 C-43.26676204 9.98491642 -43.26676204 9.98491642 -43 8 C-40.36 8 -37.72 8 -35 8 C-35 9.32 -35 10.64 -35 12 C-34.34 12 -33.68 12 -33 12 C-33 12.66 -33 13.32 -33 14 C-31.35 14.66 -29.7 15.32 -28 16 C-28 16.66 -28 17.32 -28 18 C-26.453125 18.433125 -26.453125 18.433125 -24.875 18.875 C-21.54992003 19.82308798 -18.27248547 20.88256594 -15 22 C-15 21.34 -15 20.68 -15 20 C-13.02 19.67 -11.04 19.34 -9 19 C-9 18.34 -9 17.68 -9 17 C-8.34 16.67 -7.68 16.34 -7 16 C-6.67 15.01 -6.34 14.02 -6 13 C-5.34 13 -4.68 13 -4 13 C-4 12.01 -4 11.02 -4 10 C-3.34 10 -2.68 10 -2 10 C-2 8.35 -2 6.7 -2 5 C-1.34 5 -0.68 5 0 5 C0 3.35 0 1.7 0 0 Z " fill="#FCE7DC" transform="translate(87,60)"/>
<path d="M0 0 C1.4370809 -0.05422947 2.87475462 -0.09289723 4.3125 -0.125 C5.11300781 -0.14820313 5.91351563 -0.17140625 6.73828125 -0.1953125 C9 0 9 0 12 2 C12.495 3.485 12.495 3.485 13 5 C16.11332248 4.33131686 16.11332248 4.33131686 17.1875 1.9375 C17.455625 1.298125 17.72375 0.65875 18 0 C18.66 0 19.32 0 20 0 C19.67 2.31 19.34 4.62 19 7 C18.34 7 17.68 7 17 7 C16.8642317 9.06066104 16.76766097 11.12392757 16.6875 13.1875 C16.60048828 14.91033203 16.60048828 14.91033203 16.51171875 16.66796875 C16.76706782 20.11941022 16.76706782 20.11941022 19 22.90625 C22.95520542 25.66665378 25.62615187 25.58471861 30.3125 25.3125 C31.42334961 25.27866211 31.42334961 25.27866211 32.55664062 25.24414062 C34.37197357 25.1855815 36.18625681 25.09590886 38 25 C38 24.34 38 23.68 38 23 C39.32 23 40.64 23 42 23 C42 23.99 42 24.98 42 26 C43.485 26.495 43.485 26.495 45 27 C45.33 27.33 45.66 27.66 46 28 C46.495 26.515 46.495 26.515 47 25 C47.495 27.475 47.495 27.475 48 30 C48.57234375 30.14308594 49.1446875 30.28617188 49.734375 30.43359375 C50.48203125 30.62050781 51.2296875 30.80742188 52 31 C52.70640625 31.17660156 53.4128125 31.35320313 54.140625 31.53515625 C56.09375 32.0234375 58.046875 32.51171875 60 33 C60 33.66 60 34.32 60 35 C53.26660253 35.19901667 47.44836824 35.1924452 41 33 C36.96518545 32.21702637 33.04983324 31.83169501 28.9453125 31.68359375 C27.83671875 31.64169922 26.728125 31.59980469 25.5859375 31.55664062 C24.44382813 31.51732422 23.30171875 31.47800781 22.125 31.4375 C20.9596875 31.39431641 19.794375 31.35113281 18.59375 31.30664062 C15.72927375 31.20098371 12.86471679 31.09888201 10 31 C10 31.66 10 32.32 10 33 C9.23816406 33.10957031 8.47632813 33.21914063 7.69140625 33.33203125 C1.18336251 34.33139377 -4.83213207 35.70832932 -11 38 C-12.485 38.495 -12.485 38.495 -14 39 C-14.13277344 39.71027344 -14.26554688 40.42054687 -14.40234375 41.15234375 C-14.57894531 42.07144531 -14.75554688 42.99054687 -14.9375 43.9375 C-15.11152344 44.85402344 -15.28554687 45.77054688 -15.46484375 46.71484375 C-16 49 -16 49 -17 50 C-17.23427778 52.01594582 -17.41336124 54.038474 -17.5625 56.0625 C-17.68818359 57.71958984 -17.68818359 57.71958984 -17.81640625 59.41015625 C-17.87699219 60.26480469 -17.93757813 61.11945313 -18 62 C-18.66 62 -19.32 62 -20 62 C-20 63.32 -20 64.64 -20 66 C-19.01 66 -18.02 66 -17 66 C-17.33 67.32 -17.66 68.64 -18 70 C-18 69.01 -18 68.02 -18 67 C-19.65 67 -21.3 67 -23 67 C-25.2813677 61.06071054 -24.81895309 57.84550131 -22.5625 52 C-20.45129479 46.44811527 -19.84855274 42.99154243 -21 37 C-21.70680722 20.57906021 -21.70680722 20.57906021 -19 13 C-18.77828125 12.26910156 -18.5565625 11.53820312 -18.328125 10.78515625 C-17.44779181 8.4223752 -16.73851518 6.83459102 -15 5 C-11.6441429 4.0238466 -8.4801085 3.89373715 -5 4 C-5 3.34 -5 2.68 -5 2 C-3.35 2 -1.7 2 0 2 C0 1.34 0 0.68 0 0 Z " fill="#4388EC" transform="translate(27,13)"/>
<path d="M0 0 C0.33 0 0.66 0 1 0 C1.08696177 3.93736123 1.14037835 7.87447628 1.1875 11.8125 C1.21263672 12.93205078 1.23777344 14.05160156 1.26367188 15.20507812 C1.27333984 16.27822266 1.28300781 17.35136719 1.29296875 18.45703125 C1.3086792 19.44678955 1.32438965 20.43654785 1.34057617 21.45629883 C1 24 1 24 -0.39331055 25.78393555 C-2 27 -2 27 -4 28 C-4.63860769 30.69797102 -5.16825242 33.33366623 -5.625 36.0625 C-5.7590625 36.82111328 -5.893125 37.57972656 -6.03125 38.36132812 C-6.36200122 40.23952258 -6.68200734 42.11960338 -7 44 C-7.99 44 -8.98 44 -10 44 C-10 43.34 -10 42.68 -10 42 C-10.99 42 -11.98 42 -13 42 C-13 42.66 -13 43.32 -13 44 C-13.66 44 -14.32 44 -15 44 C-15 47.3 -15 50.6 -15 54 C-15.33 54 -15.66 54 -16 54 C-16 48.06 -16 42.12 -16 36 C-16.66 36 -17.32 36 -18 36 C-18 35.34 -18 34.68 -18 34 C-19.32 33.67 -20.64 33.34 -22 33 C-22 35.97 -22 38.94 -22 42 C-22.66 42 -23.32 42 -24 42 C-24 42.99 -24 43.98 -24 45 C-25.45823212 45.0270043 -26.91660675 45.04639787 -28.375 45.0625 C-29.59316406 45.07990234 -29.59316406 45.07990234 -30.8359375 45.09765625 C-33 45 -33 45 -35 44 C-35 40.04 -35 36.08 -35 32 C-34.34 32 -33.68 32 -33 32 C-33 31.34 -33 30.68 -33 30 C-30.23547967 28.61773984 -27.9538637 28.90474613 -24.875 28.9375 C-23.77929688 28.94652344 -22.68359375 28.95554687 -21.5546875 28.96484375 C-20.71164063 28.97644531 -19.86859375 28.98804687 -19 29 C-18.67 28.34 -18.34 27.68 -18 27 C-18.66 27 -19.32 27 -20 27 C-20.33 25.35 -20.66 23.7 -21 22 C-21.66 22 -22.32 22 -23 22 C-25.04169485 19.09451118 -26 17.59857954 -26 14 C-26.99 14 -27.98 14 -29 14 C-29 15.65 -29 17.3 -29 19 C-29.66 19 -30.32 19 -31 19 C-31 20.65 -31 22.3 -31 24 C-31.66 24 -32.32 24 -33 24 C-33 24.99 -33 25.98 -33 27 C-33.66 27 -34.32 27 -35 27 C-34.34 24.03 -33.68 21.06 -33 18 C-32.34 18 -31.68 18 -31 18 C-31 13.05 -31 8.1 -31 3 C-32.32 2.67 -33.64 2.34 -35 2 C-32.03 2.33 -29.06 2.66 -26 3 C-26 3.66 -26 4.32 -26 5 C-25.01 5 -24.02 5 -23 5 C-23 5.66 -23 6.32 -23 7 C-21.68 7 -20.36 7 -19 7 C-19 7.66 -19 8.32 -19 9 C-18.236875 9.12375 -17.47375 9.2475 -16.6875 9.375 C-14 10 -14 10 -11 12 C-11 12.66 -11 13.32 -11 14 C-10.34 14 -9.68 14 -9 14 C-8.67 14.66 -8.34 15.32 -8 16 C-5.97536745 16.65213292 -5.97536745 16.65213292 -4 17 C-4 17.66 -4 18.32 -4 19 C-2.68 19.33 -1.36 19.66 0 20 C0 13.4 0 6.8 0 0 Z " fill="#966379" transform="translate(116,46)"/>
<path d="M0 0 C0.99 0 1.98 0 3 0 C2.67 5.28 2.34 10.56 2 16 C3.485 15.505 4.97 15.01 6.5 14.5 C11.97961231 12.8623255 17.0046429 11.80185716 22.5 14 C22.995 14.33 23.49 14.66 24 15 C24 15.99 24 16.98 24 18 C21.69 18.33 19.38 18.66 17 19 C17 19.66 17 20.32 17 21 C15.35 21 13.7 21 12 21 C11.25073929 24.66305234 10.7619986 27.42355152 12 31 C12.66 31.12375 13.32 31.2475 14 31.375 C17 32 17 32 20.4453125 33.02734375 C25.89401327 34.39387492 31.28923011 34.25374821 36.875 34.1875 C37.89980469 34.18685547 38.92460938 34.18621094 39.98046875 34.18554688 C46.37458159 34.14898587 52.65196283 33.76468593 59 33 C59 33.99 59 34.98 59 36 C41.27450527 40.51194411 23.53299252 41.12879025 6.5625 33.625 C4.20859642 32.55094693 4.20859642 32.55094693 2 32 C-0.80167287 33.26333273 -0.80167287 33.26333273 -3 35 C-5.6875 34.6875 -5.6875 34.6875 -8 33 C-8.45381995 30.99022594 -8.90242629 28.97837484 -9.28125 26.953125 C-10.35304919 24.04062719 -12.56165188 23.26303483 -15.25 21.98046875 C-18.25139156 20.29888553 -19.46904141 18.00303416 -21 15 C-21.75 11.125 -21.75 11.125 -22 8 C-21.34 8 -20.68 8 -20 8 C-19.67 6.35 -19.34 4.7 -19 3 C-17.68 2.67 -16.36 2.34 -15 2 C-14.67 4.31 -14.34 6.62 -14 9 C-13.34 9 -12.68 9 -12 9 C-12 9.66 -12 10.32 -12 11 C-11.01 11.33 -10.02 11.66 -9 12 C-9 13.32 -9 14.64 -9 16 C-8.34 16 -7.68 16 -7 16 C-7 14.35 -7 12.7 -7 11 C-6.34 11 -5.68 11 -5 11 C-5 11.99 -5 12.98 -5 14 C-3.35 14.66 -1.7 15.32 0 16 C0 10.72 0 5.44 0 0 Z " fill="#F8CAC0" transform="translate(32,76)"/>
<path d="M0 0 C1.07314453 0.00322266 2.14628906 0.00644531 3.25195312 0.00976562 C4.37150391 0.01814453 5.49105469 0.02652344 6.64453125 0.03515625 C8.34125977 0.04192383 8.34125977 0.04192383 10.07226562 0.04882812 C12.86724052 0.06062127 15.66210945 0.07707975 18.45703125 0.09765625 C18.45703125 1.74765625 18.45703125 3.39765625 18.45703125 5.09765625 C17.79703125 5.09765625 17.13703125 5.09765625 16.45703125 5.09765625 C16.40804687 5.71253906 16.3590625 6.32742187 16.30859375 6.9609375 C16.23382813 7.76917969 16.1590625 8.57742187 16.08203125 9.41015625 C16.01242188 10.21066406 15.9428125 11.01117188 15.87109375 11.8359375 C15.45703125 14.09765625 15.45703125 14.09765625 13.45703125 17.09765625 C12.79703125 17.09765625 12.13703125 17.09765625 11.45703125 17.09765625 C11.45703125 17.75765625 11.45703125 18.41765625 11.45703125 19.09765625 C10.46703125 19.42765625 9.47703125 19.75765625 8.45703125 20.09765625 C8.27140625 20.90203125 8.08578125 21.70640625 7.89453125 22.53515625 C6.45703125 25.09765625 6.45703125 25.09765625 4.109375 25.87109375 C1.57336155 26.36331577 -0.98494062 26.73690869 -3.54296875 27.09765625 C-3.54296875 31.38765625 -3.54296875 35.67765625 -3.54296875 40.09765625 C-4.53296875 40.09765625 -5.52296875 40.09765625 -6.54296875 40.09765625 C-6.54296875 39.43765625 -6.54296875 38.77765625 -6.54296875 38.09765625 C-7.20296875 38.09765625 -7.86296875 38.09765625 -8.54296875 38.09765625 C-9.92605656 35.33148062 -9.65507071 33.08747625 -9.640625 29.99609375 C-9.63740234 28.784375 -9.63417969 27.57265625 -9.63085938 26.32421875 C-9.62248047 25.05320312 -9.61410156 23.7821875 -9.60546875 22.47265625 C-9.59870117 20.55453125 -9.59870117 20.55453125 -9.59179688 18.59765625 C-9.57998088 15.4309698 -9.56204496 12.26430729 -9.54296875 9.09765625 C-10.86296875 13.38765625 -12.18296875 17.67765625 -13.54296875 22.09765625 C-14.53296875 22.09765625 -15.52296875 22.09765625 -16.54296875 22.09765625 C-16.54296875 21.10765625 -16.54296875 20.11765625 -16.54296875 19.09765625 C-17.86296875 19.09765625 -19.18296875 19.09765625 -20.54296875 19.09765625 C-21.73022198 15.38748991 -21.88869136 11.96974947 -21.54296875 8.09765625 C-18.58334716 3.46520506 -13.55509758 2.54683531 -8.54296875 1.09765625 C-5.42453625 0.05817875 -3.26821289 -0.01729213 0 0 Z " fill="#E977A5" transform="translate(33.54296875,45.90234375)"/>
<path d="M0 0 C0.99 0 1.98 0 3 0 C3 0.66 3 1.32 3 2 C4.32 2.33 5.64 2.66 7 3 C7.495 5.97 7.495 5.97 8 9 C9.65 8.67 11.3 8.34 13 8 C13 8.66 13 9.32 13 10 C13.66 10 14.32 10 15 10 C16.35439668 12.70879335 16.06501451 15.00933268 16 18 C16.66 18 17.32 18 18 18 C18 24.6 18 31.2 18 38 C17.01 37.67 16.02 37.34 15 37 C15 36.34 15 35.68 15 35 C13.35 34.67 11.7 34.34 10 34 C10 33.34 10 32.68 10 32 C9.34 32 8.68 32 8 32 C7.566875 31.54625 7.13375 31.0925 6.6875 30.625 C4.64371183 28.65690769 2.65469676 27.93273129 0 27 C0 26.34 0 25.68 0 25 C-1.32 25 -2.64 25 -4 25 C-4 24.34 -4 23.68 -4 23 C-4.99 23 -5.98 23 -7 23 C-7 22.34 -7 21.68 -7 21 C-7.99 21 -8.98 21 -10 21 C-10 20.01 -10 19.02 -10 18 C-10.61488281 17.95101562 -11.22976562 17.90203125 -11.86328125 17.8515625 C-12.67152344 17.77679688 -13.47976562 17.70203125 -14.3125 17.625 C-15.11300781 17.55539063 -15.91351563 17.48578125 -16.73828125 17.4140625 C-19 17 -19 17 -22 15 C-22.33 14.01 -22.66 13.02 -23 12 C-23.99 12 -24.98 12 -26 12 C-26 10.35 -26 8.7 -26 7 C-26.99 7 -27.98 7 -29 7 C-28.6875 5.125 -28.6875 5.125 -28 3 C-27.01 2.34 -26.02 1.68 -25 1 C-25 1.99 -25 2.98 -25 4 C-24.34 4 -23.68 4 -23 4 C-23 4.66 -23 5.32 -23 6 C-22.01 6 -21.02 6 -20 6 C-20.33 8.64 -20.66 11.28 -21 14 C-20.27554688 13.89300781 -19.55109375 13.78601562 -18.8046875 13.67578125 C-12.95841169 12.95084305 -9.10614211 12.54990398 -4 16 C-4.495 11.05 -4.495 11.05 -5 6 C-3.68 6 -2.36 6 -1 6 C-0.67 4.02 -0.34 2.04 0 0 Z " fill="#57A6F8" transform="translate(97,28)"/>
<path d="M0 0 C1.23556641 0.01740234 1.23556641 0.01740234 2.49609375 0.03515625 C3.32238281 0.04417969 4.14867187 0.05320313 5 0.0625 C5.63808594 0.07410156 6.27617188 0.08570313 6.93359375 0.09765625 C6.93359375 0.75765625 6.93359375 1.41765625 6.93359375 2.09765625 C9.90359375 2.09765625 12.87359375 2.09765625 15.93359375 2.09765625 C15.93359375 2.75765625 15.93359375 3.41765625 15.93359375 4.09765625 C18.90359375 4.42765625 21.87359375 4.75765625 24.93359375 5.09765625 C27.18187427 9.59421729 27.10041647 13.17638591 26.93359375 18.09765625 C26.27359375 18.09765625 25.61359375 18.09765625 24.93359375 18.09765625 C24.97484375 18.84015625 25.01609375 19.58265625 25.05859375 20.34765625 C24.92961241 23.18524577 24.36308153 24.68539563 22.93359375 27.09765625 C22.27359375 27.09765625 21.61359375 27.09765625 20.93359375 27.09765625 C20.93359375 28.08765625 20.93359375 29.07765625 20.93359375 30.09765625 C19.28359375 29.76765625 17.63359375 29.43765625 15.93359375 29.09765625 C15.93359375 28.10765625 15.93359375 27.11765625 15.93359375 26.09765625 C15.27359375 26.09765625 14.61359375 26.09765625 13.93359375 26.09765625 C13.60359375 28.40765625 13.27359375 30.71765625 12.93359375 33.09765625 C11.28359375 32.76765625 9.63359375 32.43765625 7.93359375 32.09765625 C7.93359375 30.11765625 7.93359375 28.13765625 7.93359375 26.09765625 C7.27359375 26.09765625 6.61359375 26.09765625 5.93359375 26.09765625 C5.87171875 25.47890625 5.80984375 24.86015625 5.74609375 24.22265625 C5.47796875 23.52140625 5.20984375 22.82015625 4.93359375 22.09765625 C3.69609375 21.63359375 3.69609375 21.63359375 2.43359375 21.16015625 C1.19609375 20.63421875 1.19609375 20.63421875 -0.06640625 20.09765625 C-0.75390625 17.53515625 -0.75390625 17.53515625 -1.06640625 15.09765625 C-1.72640625 14.76765625 -2.38640625 14.43765625 -3.06640625 14.09765625 C-3.39640625 15.08765625 -3.72640625 16.07765625 -4.06640625 17.09765625 C-5.0645401 11.14931801 -5.1980967 6.78216412 -3.06640625 1.09765625 C-2.06640625 0.09765625 -2.06640625 0.09765625 0 0 Z M10.93359375 4.09765625 C10.93359375 5.08765625 10.93359375 6.07765625 10.93359375 7.09765625 C11.59359375 7.09765625 12.25359375 7.09765625 12.93359375 7.09765625 C14.48002183 12.76789255 15.41876456 18.24486125 15.93359375 24.09765625 C16.92359375 24.09765625 17.91359375 24.09765625 18.93359375 24.09765625 C19.20171875 23.49953125 19.46984375 22.90140625 19.74609375 22.28515625 C20.91852842 20.12540817 22.12728657 18.73975369 23.93359375 17.09765625 C20.44575861 13.85049563 20.44575861 13.85049563 15.93359375 13.09765625 C15.93359375 10.12765625 15.93359375 7.15765625 15.93359375 4.09765625 C14.28359375 4.09765625 12.63359375 4.09765625 10.93359375 4.09765625 Z " fill="#EA7AA7" transform="translate(58.06640625,45.90234375)"/>
<path d="M0 0 C0.99 0 1.98 0 3 0 C3 1.32 3 2.64 3 4 C3.99 4 4.98 4 6 4 C6 7.3 6 10.6 6 14 C6.99 14.33 7.98 14.66 9 15 C9.33 16.65 9.66 18.3 10 20 C12.97 20.33 15.94 20.66 19 21 C19 20.34 19 19.68 19 19 C26.54922814 17.97459682 33.95090843 17.88274035 41.5625 17.9375 C42.76197266 17.94201172 43.96144531 17.94652344 45.19726562 17.95117188 C48.13156359 17.96286231 51.06575449 17.97924862 54 18 C54 18.66 54 19.32 54 20 C55.216875 19.979375 56.43375 19.95875 57.6875 19.9375 C60.91977322 19.93175884 63.84934741 20.21233685 67 21 C67 21.66 67 22.32 67 23 C68.65 23 70.3 23 72 23 C72 23.33 72 23.66 72 24 C67.24976871 24.2317186 63.53184067 23.37573735 59 22 C54.9636675 21.22319508 51.05055575 20.83172108 46.9453125 20.68359375 C45.83671875 20.64169922 44.728125 20.59980469 43.5859375 20.55664062 C42.44382813 20.51732422 41.30171875 20.47800781 40.125 20.4375 C38.9596875 20.39431641 37.794375 20.35113281 36.59375 20.30664062 C33.72927375 20.20098371 30.86471679 20.09888201 28 20 C28 20.66 28 21.32 28 22 C26.85724609 22.16435547 26.85724609 22.16435547 25.69140625 22.33203125 C19.18336251 23.33139377 13.16786793 24.70832932 7 27 C6.01 27.33 5.02 27.66 4 28 C3.86722656 28.71027344 3.73445312 29.42054687 3.59765625 30.15234375 C3.33275391 31.53099609 3.33275391 31.53099609 3.0625 32.9375 C2.88847656 33.85402344 2.71445313 34.77054688 2.53515625 35.71484375 C2 38 2 38 1 39 C0.76572222 41.01594582 0.58663876 43.038474 0.4375 45.0625 C0.31181641 46.71958984 0.31181641 46.71958984 0.18359375 48.41015625 C0.12300781 49.26480469 0.06242188 50.11945313 0 51 C-0.66 51 -1.32 51 -2 51 C-2 52.32 -2 53.64 -2 55 C-1.01 55 -0.02 55 1 55 C0.67 56.32 0.34 57.64 0 59 C0 58.01 0 57.02 0 56 C-1.65 56 -3.3 56 -5 56 C-7.2813677 50.06071054 -6.81895309 46.84550131 -4.5625 41 C-2.45129479 35.44811527 -1.84855274 31.99154243 -3 26 C-3.11446011 23.34079878 -3.19036607 20.72030617 -3.1875 18.0625 C-3.18741943 17.3617334 -3.18733887 16.6609668 -3.18725586 15.93896484 C-3.1239324 10.20785835 -2.58874217 5.17748434 0 0 Z " fill="#3067E0" transform="translate(9,24)"/>
<path d="M0 0 C0.33 0 0.66 0 1 0 C1 9.9 1 19.8 1 30 C1.66 30 2.32 30 3 30 C3 30.66 3 31.32 3 32 C3.99 32 4.98 32 6 32 C6 28.7 6 25.4 6 22 C6.66 22 7.32 22 8 22 C8 27.28 8 32.56 8 38 C6.35 37.34 4.7 36.68 3 36 C3 35.01 3 34.02 3 33 C2.34 33 1.68 33 1 33 C1 34.65 1 36.3 1 38 C0.34 38 -0.32 38 -1 38 C-1.12375 37.360625 -1.2475 36.72125 -1.375 36.0625 C-1.58125 35.381875 -1.7875 34.70125 -2 34 C-2.66 33.67 -3.32 33.34 -4 33 C-4 32.34 -4 31.68 -4 31 C-4.66 31 -5.32 31 -6 31 C-6.33 28.69 -6.66 26.38 -7 24 C-8.32 24.33 -9.64 24.66 -11 25 C-11 28.63 -11 32.26 -11 36 C-11.33 36 -11.66 36 -12 36 C-12 34.02 -12 32.04 -12 30 C-12.66 30 -13.32 30 -14 30 C-14.33 30.66 -14.66 31.32 -15 32 C-14.67 29.69 -14.34 27.38 -14 25 C-14.99 25 -15.98 25 -17 25 C-17 23.68 -17 22.36 -17 21 C-16.34 21 -15.68 21 -15 21 C-15.01160156 20.14535156 -15.02320313 19.29070312 -15.03515625 18.41015625 C-15.04417969 17.30542969 -15.05320312 16.20070313 -15.0625 15.0625 C-15.07410156 13.96035156 -15.08570313 12.85820313 -15.09765625 11.72265625 C-15 9 -15 9 -14 8 C-13.63239269 5.67182036 -13.29758419 3.3381615 -13 1 C-12.67 1 -12.34 1 -12 1 C-11.67 4.3 -11.34 7.6 -11 11 C-9.68 11 -8.36 11 -7 11 C-7 11.99 -7 12.98 -7 14 C-6.01 14 -5.02 14 -4 14 C-3.8453125 12.205625 -3.8453125 12.205625 -3.6875 10.375 C-3.21108648 6.4375824 -1.98869284 3.45859625 0 0 Z " fill="#D24D76" transform="translate(24,54)"/>
<path d="M0 0 C1.03253906 0.00676758 1.03253906 0.00676758 2.0859375 0.01367188 C3.76566335 0.02533664 5.44534375 0.04326729 7.125 0.0625 C7.125 1.7125 7.125 3.3625 7.125 5.0625 C6.465 5.0625 5.805 5.0625 5.125 5.0625 C5.021875 5.949375 4.91875 6.83625 4.8125 7.75 C4.0927964 11.21766278 3.33360521 13.30174349 1.125 16.0625 C-1.74686721 17.07153443 -3.95620062 17.05925198 -7 16.9375 C-9.90029775 16.78026754 -9.90029775 16.78026754 -11.75 18.5625 C-12.12125 19.0575 -12.4925 19.5525 -12.875 20.0625 C-13.205 18.0825 -13.535 16.1025 -13.875 14.0625 C-14.535 14.7225 -15.195 15.3825 -15.875 16.0625 C-16.865 15.7325 -17.855 15.4025 -18.875 15.0625 C-18.545 11.7625 -18.215 8.4625 -17.875 5.0625 C-17.215 5.0625 -16.555 5.0625 -15.875 5.0625 C-15.875 4.4025 -15.875 3.7425 -15.875 3.0625 C-15.215 3.0625 -14.555 3.0625 -13.875 3.0625 C-13.875 2.4025 -13.875 1.7425 -13.875 1.0625 C-9.21962644 0.14157719 -4.72814567 -0.05955997 0 0 Z " fill="#ED7CA7" transform="translate(44.875,45.9375)"/>
<path d="M0 0 C0.99 0.33 1.98 0.66 3 1 C3 1.66 3 2.32 3 3 C3.721875 3.2475 4.44375 3.495 5.1875 3.75 C10.3949857 6.06443809 14.06496466 9.96406632 18 14 C18.7425 14.639375 19.485 15.27875 20.25 15.9375 C22.47090625 18.55499665 22.6937722 20.63149425 23 24 C23.66 24 24.32 24 25 24 C26.68158146 27.66864051 27.24028871 30.49416047 27.1953125 34.51953125 C27.18886719 35.54111328 27.18242188 36.56269531 27.17578125 37.61523438 C27.15064453 39.19788086 27.15064453 39.19788086 27.125 40.8125 C27.11597656 41.88693359 27.10695313 42.96136719 27.09765625 44.06835938 C27.07415306 46.71246854 27.04129575 49.35611872 27 52 C25.515 51.01 25.515 51.01 24 50 C23.65942383 47.93701172 23.65942383 47.93701172 23.70703125 45.4296875 C23.71669922 44.53378906 23.72636719 43.63789062 23.73632812 42.71484375 C23.76146484 41.77769531 23.78660156 40.84054688 23.8125 39.875 C23.83280273 38.45767578 23.83280273 38.45767578 23.85351562 37.01171875 C23.88893694 34.67391221 23.93832729 32.33723763 24 30 C23.34 30 22.68 30 22 30 C21.505 26.04 21.505 26.04 21 22 C19.68 22 18.36 22 17 22 C15.515 21.505 15.515 21.505 14 21 C13.3125 18.9375 13.3125 18.9375 13 17 C13.99 17 14.98 17 16 17 C15.34 16.67 14.68 16.34 14 16 C14 15.34 14 14.68 14 14 C13.34 14 12.68 14 12 14 C10.375 12.625 10.375 12.625 9 11 C9 10.34 9 9.68 9 9 C7.515 8.505 7.515 8.505 6 8 C6 7.34 6 6.68 6 6 C3.69 5.34 1.38 4.68 -1 4 C-1 3.34 -1 2.68 -1 2 C-3.31 1.67 -5.62 1.34 -8 1 C-8 0.34 -8 -0.32 -8 -1 C-9.65 -1 -11.3 -1 -13 -1 C-13 -1.66 -13 -2.32 -13 -3 C-15.31 -3 -17.62 -3 -20 -3 C-20 -3.66 -20 -4.32 -20 -5 C-25.61 -5 -31.22 -5 -37 -5 C-37 -5.66 -37 -6.32 -37 -7 C-42.94 -7 -48.88 -7 -55 -7 C-55 -6.34 -55 -5.68 -55 -5 C-58.3 -5 -61.6 -5 -65 -5 C-64.01 -5.33 -63.02 -5.66 -62 -6 C-62 -6.66 -62 -7.32 -62 -8 C-42.24226736 -11.91993416 -17.60185759 -9.86412825 0 0 Z " fill="#778B9E" transform="translate(91,16)"/>
<path d="M0 0 C0.33 2.31 0.66 4.62 1 7 C1.66 7 2.32 7 3 7 C3 7.66 3 8.32 3 9 C3.99 9.33 4.98 9.66 6 10 C6 11.32 6 12.64 6 14 C6.66 14 7.32 14 8 14 C8 12.35 8 10.7 8 9 C8.66 9 9.32 9 10 9 C10 9.99 10 10.98 10 12 C10.99 12.33 11.98 12.66 13 13 C13.66 16.63 14.32 20.26 15 24 C15.66 24 16.32 24 17 24 C17.33 25.32 17.66 26.64 18 28 C17.236875 27.979375 16.47375 27.95875 15.6875 27.9375 C12.89814214 27.87057159 12.89814214 27.87057159 10 29 C10 29.66 10 30.32 10 31 C9.01 31 8.02 31 7 31 C6.814375 29.7625 6.62875 28.525 6.4375 27.25 C5.50263899 23.41639728 5.2200804 23.13856914 1.625 20.875 C1.00625 20.57980469 0.3875 20.28460938 -0.25 19.98046875 C-3.25139156 18.29888553 -4.46904141 16.00303416 -6 13 C-6.75 9.125 -6.75 9.125 -7 6 C-6.34 6 -5.68 6 -5 6 C-4.87625 5.195625 -4.7525 4.39125 -4.625 3.5625 C-4.41875 2.716875 -4.2125 1.87125 -4 1 C-2 0 -2 0 0 0 Z " fill="#F1C8BC" transform="translate(17,78)"/>
<path d="M0 0 C0.99 0 1.98 0 3 0 C3 0.66 3 1.32 3 2 C3.66 2.33 4.32 2.66 5 3 C4.01 3 3.02 3 2 3 C2 3.66 2 4.32 2 5 C3.485 5.495 3.485 5.495 5 6 C6.09168354 11.91876618 6.46289464 15.74153036 3 21 C2.34 21.66 1.68 22.32 1 23 C-1.6015625 22.7578125 -1.6015625 22.7578125 -4.625 22.125 C-5.62789062 21.92132813 -6.63078125 21.71765625 -7.6640625 21.5078125 C-8.43492188 21.34023438 -9.20578125 21.17265625 -10 21 C-10 20.01 -10 19.02 -10 18 C-10.61488281 17.95101562 -11.22976562 17.90203125 -11.86328125 17.8515625 C-12.67152344 17.77679688 -13.47976562 17.70203125 -14.3125 17.625 C-15.11300781 17.55539063 -15.91351563 17.48578125 -16.73828125 17.4140625 C-19 17 -19 17 -22 15 C-22.33 14.01 -22.66 13.02 -23 12 C-23.99 12 -24.98 12 -26 12 C-26 10.35 -26 8.7 -26 7 C-26.99 7 -27.98 7 -29 7 C-28.6875 5.125 -28.6875 5.125 -28 3 C-27.01 2.34 -26.02 1.68 -25 1 C-25 1.99 -25 2.98 -25 4 C-24.34 4 -23.68 4 -23 4 C-23 4.66 -23 5.32 -23 6 C-22.01 6 -21.02 6 -20 6 C-20.33 8.64 -20.66 11.28 -21 14 C-20.27554688 13.89300781 -19.55109375 13.78601562 -18.8046875 13.67578125 C-12.95841169 12.95084305 -9.10614211 12.54990398 -4 16 C-4.495 11.05 -4.495 11.05 -5 6 C-3.68 6 -2.36 6 -1 6 C-0.67 4.02 -0.34 2.04 0 0 Z " fill="#60AEF8" transform="translate(97,28)"/>
<path d="M0 0 C0.33 0 0.66 0 1 0 C1 2.31 1 4.62 1 7 C1.99 7.33 2.98 7.66 4 8 C4.82757813 9.01320313 4.82757813 9.01320313 5.671875 10.046875 C8.9967507 12.83620025 12.12647933 12.43941968 16.25 12.25 C16.99507812 12.23195313 17.74015625 12.21390625 18.5078125 12.1953125 C20.33909701 12.14835649 22.16971649 12.07661652 24 12 C24 11.34 24 10.68 24 10 C25.32 10 26.64 10 28 10 C28 10.99 28 11.98 28 13 C28.99 13.33 29.98 13.66 31 14 C31.495 14.495 31.495 14.495 32 15 C32.33 14.01 32.66 13.02 33 12 C33.495 14.475 33.495 14.475 34 17 C34.57234375 17.14308594 35.1446875 17.28617188 35.734375 17.43359375 C36.48203125 17.62050781 37.2296875 17.80742188 38 18 C38.70640625 18.17660156 39.4128125 18.35320313 40.140625 18.53515625 C42.09375 19.0234375 44.046875 19.51171875 46 20 C46 20.66 46 21.32 46 22 C42.37 21.67 38.74 21.34 35 21 C35 20.34 35 19.68 35 19 C30.71 18.67 26.42 18.34 22 18 C22 17.34 22 16.68 22 16 C4.675 16.495 4.675 16.495 -13 17 C-13 17.66 -13 18.32 -13 19 C-15.97 19 -18.94 19 -22 19 C-21.505 17.515 -21.505 17.515 -21 16 C-20.01 16 -19.02 16 -18 16 C-14.85813434 15.34163026 -14.85813434 15.34163026 -12 14 C-11.03122943 11.96756452 -11.03122943 11.96756452 -11 10 C-10.34 10 -9.68 10 -9 10 C-9 10.99 -9 11.98 -9 13 C-5.7 13 -2.4 13 1 13 C0.34 12.01 -0.32 11.02 -1 10 C-0.9765625 7.51953125 -0.9765625 7.51953125 -0.625 4.8125 C-0.51414062 3.91144531 -0.40328125 3.01039062 -0.2890625 2.08203125 C-0.19367187 1.39496094 -0.09828125 0.70789063 0 0 Z " fill="#3A75E2" transform="translate(41,26)"/>
<path d="M0 0 C1.32 0 2.64 0 4 0 C4.33 1.98 4.66 3.96 5 6 C7.31 6 9.62 6 12 6 C11.67 7.98 11.34 9.96 11 12 C10.34 12 9.68 12 9 12 C9.33 15.3 9.66 18.6 10 22 C8.68 21.67 7.36 21.34 6 21 C1.61298561 20.26883093 -2.55307968 19.89153853 -7 20 C-6.95875 18.80375 -6.9175 17.6075 -6.875 16.375 C-6.86148292 12.57670047 -7.57990247 9.55024382 -9 6 C-8 5 -8 5 -4.4375 4.9375 C-3.303125 4.958125 -2.16875 4.97875 -1 5 C-0.67 3.35 -0.34 1.7 0 0 Z " fill="#F1B1D8" transform="translate(83,22)"/>
<path d="M0 0 C5.61 0 11.22 0 17 0 C17 0.66 17 1.32 17 2 C19.31 2 21.62 2 24 2 C24 2.66 24 3.32 24 4 C25.65 4 27.3 4 29 4 C29 4.66 29 5.32 29 6 C31.31 6.33 33.62 6.66 36 7 C36 7.66 36 8.32 36 9 C36.721875 9.0825 37.44375 9.165 38.1875 9.25 C41.58926868 10.15713831 43.45466084 11.60010879 46 14 C46 14.66 46 15.32 46 16 C46.99 16.33 47.98 16.66 49 17 C49 17.66 49 18.32 49 19 C49.66 19 50.32 19 51 19 C51 19.66 51 20.32 51 21 C51.99 21.33 52.98 21.66 54 22 C53.505 23.485 53.505 23.485 53 25 C53 24.34 53 23.68 53 23 C52.01 22.67 51.02 22.34 50 22 C50 21.34 50 20.68 50 20 C48.68 19.67 47.36 19.34 46 19 C46 18.34 46 17.68 46 17 C45.01 17 44.02 17 43 17 C42.67 18.98 42.34 20.96 42 23 C41.34 23 40.68 23 40 23 C40.33 21.02 40.66 19.04 41 17 C38.69 17 36.38 17 34 17 C33.505 14.03 33.505 14.03 33 11 C31.68 11 30.36 11 29 11 C28.67 12.65 28.34 14.3 28 16 C25.69 16.33 23.38 16.66 21 17 C21.33 18.98 21.66 20.96 22 23 C21.34 23 20.68 23 20 23 C20 22.34 20 21.68 20 21 C19.34 21 18.68 21 18 21 C18.33 18.69 18.66 16.38 19 14 C22.465 13.505 22.465 13.505 26 13 C26.33 11.35 26.66 9.7 27 8 C25.02 8.33 23.04 8.66 21 9 C21 8.01 21 7.02 21 6 C19.02 5.34 17.04 4.68 15 4 C15 3.34 15 2.68 15 2 C10.38 2 5.76 2 1 2 C0.67 1.34 0.34 0.68 0 0 Z " fill="#86C2F0" transform="translate(54,11)"/>
<path d="M0 0 C0.33 0 0.66 0 1 0 C1.08696177 3.93736123 1.14037835 7.87447628 1.1875 11.8125 C1.21263672 12.93205078 1.23777344 14.05160156 1.26367188 15.20507812 C1.27333984 16.27822266 1.28300781 17.35136719 1.29296875 18.45703125 C1.3086792 19.44678955 1.32438965 20.43654785 1.34057617 21.45629883 C0.95047123 24.3699213 0.27991712 25.22497802 -2 27 C-3.9375 26.375 -3.9375 26.375 -6 25 C-6.75 21.875 -6.75 21.875 -7 19 C-7.66 19 -8.32 19 -9 19 C-9 18.34 -9 17.68 -9 17 C-10.32 16.67 -11.64 16.34 -13 16 C-13 15.34 -13 14.68 -13 14 C-15.475 13.505 -15.475 13.505 -18 13 C-18 12.34 -18 11.68 -18 11 C-20.64 10.67 -23.28 10.34 -26 10 C-26 11.32 -26 12.64 -26 14 C-26.99 14 -27.98 14 -29 14 C-29 15.65 -29 17.3 -29 19 C-29.66 19 -30.32 19 -31 19 C-31 20.65 -31 22.3 -31 24 C-31.66 24 -32.32 24 -33 24 C-33 24.99 -33 25.98 -33 27 C-33.66 27 -34.32 27 -35 27 C-34.34 24.03 -33.68 21.06 -33 18 C-32.34 18 -31.68 18 -31 18 C-31 13.05 -31 8.1 -31 3 C-32.32 2.67 -33.64 2.34 -35 2 C-32.03 2.33 -29.06 2.66 -26 3 C-26 3.66 -26 4.32 -26 5 C-25.01 5 -24.02 5 -23 5 C-23 5.66 -23 6.32 -23 7 C-21.68 7 -20.36 7 -19 7 C-19 7.66 -19 8.32 -19 9 C-18.236875 9.12375 -17.47375 9.2475 -16.6875 9.375 C-14 10 -14 10 -11 12 C-11 12.66 -11 13.32 -11 14 C-10.34 14 -9.68 14 -9 14 C-8.67 14.66 -8.34 15.32 -8 16 C-5.97536745 16.65213292 -5.97536745 16.65213292 -4 17 C-4 17.66 -4 18.32 -4 19 C-2.68 19.33 -1.36 19.66 0 20 C0 13.4 0 6.8 0 0 Z " fill="#4875C9" transform="translate(116,46)"/>
<path d="M0 0 C6.75 0.875 6.75 0.875 9 2 C9 2.66 9 3.32 9 4 C9.78375 4.103125 10.5675 4.20625 11.375 4.3125 C14 5 14 5 16 8 C16.07905064 10.33199388 16.08798769 12.66832622 16 15 C16.66 15 17.32 15 18 15 C18.33 14.34 18.66 13.68 19 13 C19.3690205 23.55808656 19.3690205 23.55808656 17 28 C15.68 27.67 14.36 27.34 13 27 C13 25.02 13 23.04 13 21 C12.34 21 11.68 21 11 21 C10.67 18.69 10.34 16.38 10 14 C9.34 14 8.68 14 8 14 C8 13.01 8 12.02 8 11 C7.34 11 6.68 11 6 11 C4.98133771 9.34467377 3.98189187 7.67739862 3 6 C2.34 5.67 1.68 5.34 1 5 C0.375 2.4375 0.375 2.4375 0 0 Z " fill="#E376A2" transform="translate(89,55)"/>
<path d="M0 0 C1.09570312 0.00902344 2.19140625 0.01804687 3.3203125 0.02734375 C4.16335937 0.03894531 5.00640625 0.05054687 5.875 0.0625 C6.535 1.7125 7.195 3.3625 7.875 5.0625 C5.4 4.5675 5.4 4.5675 2.875 4.0625 C2.875 7.0325 2.875 10.0025 2.875 13.0625 C2.215 13.0625 1.555 13.0625 0.875 13.0625 C0.875 14.0525 0.875 15.0425 0.875 16.0625 C-0.58323212 16.0895043 -2.04160675 16.10889787 -3.5 16.125 C-4.31210938 16.13660156 -5.12421875 16.14820312 -5.9609375 16.16015625 C-8.125 16.0625 -8.125 16.0625 -10.125 15.0625 C-10.125 11.1025 -10.125 7.1425 -10.125 3.0625 C-9.465 3.0625 -8.805 3.0625 -8.125 3.0625 C-8.125 2.4025 -8.125 1.7425 -8.125 1.0625 C-5.36047967 -0.31976016 -3.0788637 -0.03275387 0 0 Z " fill="#715869" transform="translate(91.125,74.9375)"/>
<path d="M0 0 C1.21236328 0.01353516 1.21236328 0.01353516 2.44921875 0.02734375 C3.37154297 0.04474609 3.37154297 0.04474609 4.3125 0.0625 C4.3125 0.3925 4.3125 0.7225 4.3125 1.0625 C2.3325 1.0625 0.3525 1.0625 -1.6875 1.0625 C-1.6875 1.7225 -1.6875 2.3825 -1.6875 3.0625 C-2.3475 3.0625 -3.0075 3.0625 -3.6875 3.0625 C-3.6875 3.7225 -3.6875 4.3825 -3.6875 5.0625 C-4.3475 5.0625 -5.0075 5.0625 -5.6875 5.0625 C-5.6875 6.0525 -5.6875 7.0425 -5.6875 8.0625 C-6.6775 8.3925 -7.6675 8.7225 -8.6875 9.0625 C-9.94390258 12.07890055 -9.94390258 12.07890055 -10.875 15.625 C-11.21917969 16.82253906 -11.56335937 18.02007812 -11.91796875 19.25390625 C-12.17191406 20.18074219 -12.42585938 21.10757813 -12.6875 22.0625 C-13.6775 22.0625 -14.6675 22.0625 -15.6875 22.0625 C-15.6875 21.0725 -15.6875 20.0825 -15.6875 19.0625 C-17.0075 19.0625 -18.3275 19.0625 -19.6875 19.0625 C-20.87475323 15.35233366 -21.03322261 11.93459322 -20.6875 8.0625 C-17.72787841 3.43004881 -12.69962883 2.51167906 -7.6875 1.0625 C-4.80538698 0.10179566 -2.98899956 -0.04331883 0 0 Z " fill="#E6678D" transform="translate(32.6875,45.9375)"/>
<path d="M0 0 C1.45903258 0.30921884 2.91720722 0.62248799 4.375 0.9375 C5.18710937 1.11152344 5.99921875 1.28554687 6.8359375 1.46484375 C9 2 9 2 11 3 C18.28325192 4.15886404 25.64503231 4.15300115 33 4.125 C34.01578125 4.12886719 35.0315625 4.13273437 36.078125 4.13671875 C42.44487395 4.12855625 48.67952235 3.76733675 55 3 C55 3.99 55 4.98 55 6 C39.65621587 9.9056905 23.1810842 11.34510842 8 6 C7.26007812 5.74863281 6.52015625 5.49726562 5.7578125 5.23828125 C3.8125 4.5 3.8125 4.5 1 3 C0.67 2.01 0.34 1.02 0 0 Z " fill="#A77C7C" transform="translate(36,106)"/>
<path d="M0 0 C0.66 0.33 1.32 0.66 2 1 C2 2.65 2 4.3 2 6 C2.804375 6.2475 3.60875 6.495 4.4375 6.75 C7 8 7 8 7.8125 10.125 C7.874375 10.74375 7.93625 11.3625 8 12 C8.66 12 9.32 12 10 12 C10 13.98 10 15.96 10 18 C11.32 18 12.64 18 14 18 C14.66 16.02 15.32 14.04 16 12 C16.66 12 17.32 12 18 12 C18.33 12.99 18.66 13.98 19 15 C21.01508358 15.73323796 21.01508358 15.73323796 23 16 C23 15.01 23 14.02 23 13 C23.66 13 24.32 13 25 13 C24.67 14.32 24.34 15.64 24 17 C23.34 17 22.68 17 22 17 C22 17.66 22 18.32 22 19 C20.02 19.33 18.04 19.66 16 20 C16 20.66 16 21.32 16 22 C10.88523181 22.63934602 7.32745622 20.40533547 3 18 C3 17.34 3 16.68 3 16 C1.7934375 15.690625 1.7934375 15.690625 0.5625 15.375 C-0.283125 14.92125 -1.12875 14.4675 -2 14 C-2.8125 10.875 -2.8125 10.875 -3 8 C-2.01 8 -1.02 8 0 8 C0 5.36 0 2.72 0 0 Z " fill="#BC5073" transform="translate(56,60)"/>
<path d="M0 0 C1.19947266 0.00451172 2.39894531 0.00902344 3.63476562 0.01367188 C6.56906359 0.02536231 9.50325449 0.04174862 12.4375 0.0625 C12.4375 0.7225 12.4375 1.3825 12.4375 2.0625 C13.654375 2.041875 14.87125 2.02125 16.125 2 C19.35727322 1.99425884 22.28684741 2.27483685 25.4375 3.0625 C25.4375 3.7225 25.4375 4.3825 25.4375 5.0625 C27.0875 5.0625 28.7375 5.0625 30.4375 5.0625 C30.4375 5.3925 30.4375 5.7225 30.4375 6.0625 C25.68726871 6.2942186 21.96934067 5.43823735 17.4375 4.0625 C13.4011675 3.28569508 9.48805575 2.89422108 5.3828125 2.74609375 C4.27421875 2.70419922 3.165625 2.66230469 2.0234375 2.61914062 C0.88132813 2.57982422 -0.26078125 2.54050781 -1.4375 2.5 C-2.6028125 2.45681641 -3.768125 2.41363281 -4.96875 2.36914062 C-7.83322625 2.26348371 -10.69778321 2.16138201 -13.5625 2.0625 C-13.5625 2.7225 -13.5625 3.3825 -13.5625 4.0625 C-14.32433594 4.17207031 -15.08617188 4.28164063 -15.87109375 4.39453125 C-22.37913749 5.39389377 -28.39463207 6.77082932 -34.5625 9.0625 C-35.5525 9.3925 -36.5425 9.7225 -37.5625 10.0625 C-37.68367188 10.71476562 -37.80484375 11.36703125 -37.9296875 12.0390625 C-38.85193989 16.84896342 -39.86417277 21.45275465 -41.5625 26.0625 C-42.2225 26.0625 -42.8825 26.0625 -43.5625 26.0625 C-43.79363755 21.3241803 -42.92762542 17.58447796 -41.5625 13.0625 C-41.5625 12.0725 -41.5625 11.0825 -41.5625 10.0625 C-39.84765625 8.74609375 -39.84765625 8.74609375 -37.625 7.5 C-34.50162598 5.85911289 -34.50162598 5.85911289 -32.5625 3.0625 C-29.2625 3.0625 -25.9625 3.0625 -22.5625 3.0625 C-22.5625 2.4025 -22.5625 1.7425 -22.5625 1.0625 C-15.01327186 0.03709682 -7.61159157 -0.05475965 0 0 Z " fill="#544784" transform="translate(50.5625,41.9375)"/>
<path d="M0 0 C1.32 0.33 2.64 0.66 4 1 C4 1.66 4 2.32 4 3 C4.66 3 5.32 3 6 3 C6.33 5.64 6.66 8.28 7 11 C7.66 11 8.32 11 9 11 C9.33 10.34 9.66 9.68 10 9 C10 9.99 10 10.98 10 12 C9.34 12 8.68 12 8 12 C8.08701172 12.94359375 8.08701172 12.94359375 8.17578125 13.90625 C8.48577384 19.78725226 7.86590491 23.70329816 4.4453125 28.5703125 C3 30 3 30 0.1875 30.5 C-0.534375 30.335 -1.25625 30.17 -2 30 C-2 29.01 -2 28.02 -2 27 C-1.34 27 -0.68 27 0 27 C0.33 25.68 0.66 24.36 1 23 C1.66 23 2.32 23 3 23 C2.814375 22.401875 2.62875 21.80375 2.4375 21.1875 C2 19 2 19 3 16 C0.32357511 13.81509993 0.32357511 13.81509993 -2 14 C-2 12.35 -2 10.7 -2 9 C-1.34 9 -0.68 9 0 9 C0 6.03 0 3.06 0 0 Z " fill="#ECCEC8" transform="translate(94,79)"/>
<path d="M0 0 C0.33 0 0.66 0 1 0 C1 9.9 1 19.8 1 30 C1.66 30 2.32 30 3 30 C3 30.66 3 31.32 3 32 C3.99 32 4.98 32 6 32 C6 28.7 6 25.4 6 22 C6.66 22 7.32 22 8 22 C8 27.28 8 32.56 8 38 C6.35 37.34 4.7 36.68 3 36 C3 35.01 3 34.02 3 33 C2.34 33 1.68 33 1 33 C1 34.65 1 36.3 1 38 C0.34 38 -0.32 38 -1 38 C-1.12375 37.360625 -1.2475 36.72125 -1.375 36.0625 C-1.58125 35.381875 -1.7875 34.70125 -2 34 C-2.66 33.67 -3.32 33.34 -4 33 C-4 32.34 -4 31.68 -4 31 C-4.66 31 -5.32 31 -6 31 C-6.33 28.69 -6.66 26.38 -7 24 C-5.35 24.99 -3.7 25.98 -2 27 C-2.01047363 26.35973877 -2.02094727 25.71947754 -2.03173828 25.05981445 C-2.07344815 22.14408329 -2.09937363 19.22841505 -2.125 16.3125 C-2.14175781 15.30509766 -2.15851562 14.29769531 -2.17578125 13.25976562 C-2.18222656 12.28330078 -2.18867188 11.30683594 -2.1953125 10.30078125 C-2.20578613 9.40528564 -2.21625977 8.50979004 -2.22705078 7.5871582 C-1.97703456 4.73831743 -1.18016512 2.59105457 0 0 Z " fill="#A3455E" transform="translate(24,54)"/>
<path d="M0 0 C0.97108384 2.6974551 0.95759072 4.28973738 0.53515625 7.17578125 C-0.00635091 11.04538354 -0.13295289 14.72012882 -0.125 18.625 C-0.12757812 19.89601563 -0.13015625 21.16703125 -0.1328125 22.4765625 C-0.1184904 25.86182334 -0.1184904 25.86182334 0.59765625 28.53515625 C1.14808511 31.907201 0.39501005 34.5157602 -0.4375 37.8125 C-0.72496094 38.97394531 -1.01242188 40.13539062 -1.30859375 41.33203125 C-1.53675781 42.21246094 -1.76492187 43.09289062 -2 44 C-1.34 44 -0.68 44 0 44 C0 46.31 0 48.62 0 51 C-0.66 51 -1.32 51 -2 51 C-2 52.32 -2 53.64 -2 55 C-1.01 55 -0.02 55 1 55 C0.67 56.32 0.34 57.64 0 59 C0 58.01 0 57.02 0 56 C-1.65 56 -3.3 56 -5 56 C-7.2813677 50.06071054 -6.81895309 46.84550131 -4.5625 41 C-2.45129479 35.44811527 -1.84855274 31.99154243 -3 26 C-3.11446011 23.34079878 -3.19036607 20.72030617 -3.1875 18.0625 C-3.18741943 17.3617334 -3.18733887 16.6609668 -3.18725586 15.93896484 C-3.1239324 10.20785835 -2.58874217 5.17748434 0 0 Z " fill="#8FA5C9" transform="translate(9,24)"/>
<path d="M0 0 C0.66 0 1.32 0 2 0 C1.690625 0.763125 1.38125 1.52625 1.0625 2.3125 C0.32106407 4.18789677 -0.36228217 6.08684652 -1 8 C2.96 8 6.92 8 11 8 C14 13.625 14 13.625 14 17 C13.01 17 12.02 17 11 17 C11 16.34 11 15.68 11 15 C8.03 15 5.06 15 2 15 C2 15.66 2 16.32 2 17 C-0.31 17.33 -2.62 17.66 -5 18 C-5 16.35 -5 14.7 -5 13 C-3.35 13 -1.7 13 0 13 C0 12.34 0 11.68 0 11 C-0.99 10.67 -1.98 10.34 -3 10 C-3 9.01 -3 8.02 -3 7 C-4.32 6.34 -5.64 5.68 -7 5 C-6.34 5 -5.68 5 -5 5 C-5 4.34 -5 3.68 -5 3 C-3.35 2.67 -1.7 2.34 0 2 C0 1.34 0 0.68 0 0 Z " fill="#F6D3CF" transform="translate(42,70)"/>
<path d="M0 0 C2.64 0 5.28 0 8 0 C8 1.32 8 2.64 8 4 C8.66 4 9.32 4 10 4 C10 4.66 10 5.32 10 6 C12.475 6.99 12.475 6.99 15 8 C14.67 9.32 14.34 10.64 14 12 C12.35 12 10.7 12 9 12 C9 11.34 9 10.68 9 10 C5.04 10 1.08 10 -3 10 C-3.33 8.35 -3.66 6.7 -4 5 C-3.01 4.67 -2.02 4.34 -1 4 C-0.26676204 1.98491642 -0.26676204 1.98491642 0 0 Z " fill="#FCEBDF" transform="translate(44,68)"/>
<path d="M0 0 C0.66 0 1.32 0 2 0 C2 0.66 2 1.32 2 2 C2.66 2 3.32 2 4 2 C4 2.66 4 3.32 4 4 C4.66 4 5.32 4 6 4 C6 4.66 6 5.32 6 6 C9.96 6 13.92 6 18 6 C18.33 7.65 18.66 9.3 19 11 C19.66 11 20.32 11 21 11 C21.33 12.32 21.66 13.64 22 15 C21.236875 14.979375 20.47375 14.95875 19.6875 14.9375 C16.89814214 14.87057159 16.89814214 14.87057159 14 16 C14 16.66 14 17.32 14 18 C13.01 18 12.02 18 11 18 C10.814375 16.7625 10.62875 15.525 10.4375 14.25 C9.81461517 11.67207519 9.45786891 10.37181162 7.37890625 8.68359375 C5.60857372 7.74505987 3.8048948 6.87021713 2 6 C0 3 0 3 0 0 Z " fill="#A24359" transform="translate(13,91)"/>
<path d="M0 0 C0 0.99 0 1.98 0 3 C-2.31 3 -4.62 3 -7 3 C-7 2.34 -7 1.68 -7 1 C-12.61 1 -18.22 1 -24 1 C-24 0.34 -24 -0.32 -24 -1 C-29.94 -1 -35.88 -1 -42 -1 C-42 -0.34 -42 0.32 -42 1 C-45.3 1 -48.6 1 -52 1 C-51.01 0.67 -50.02 0.34 -49 0 C-49 -0.66 -49 -1.32 -49 -2 C-32.89002277 -5.19621948 -16.0174685 -2.45886016 0 0 Z " fill="#738C9D" transform="translate(78,10)"/>
<path d="M0 0 C1.65 0 3.3 0 5 0 C5.95530645 3.23275701 6.16460378 6.19675639 6.1875 9.5625 C6.20167969 10.51253906 6.21585938 11.46257813 6.23046875 12.44140625 C6 15 6 15 4 18 C3.92094936 20.33199388 3.91201231 22.66832622 4 25 C4.928125 25.2165625 4.928125 25.2165625 5.875 25.4375 C8 26 8 26 10 27 C10.33 27.99 10.66 28.98 11 30 C11.66 30.66 12.32 31.32 13 32 C11.35 31.67 9.7 31.34 8 31 C8 30.34 8 29.68 8 29 C7.34 29 6.68 29 6 29 C5.566875 28.54625 5.13375 28.0925 4.6875 27.625 C2.64371183 25.65690769 0.65469676 24.93273129 -2 24 C-2 23.34 -2 22.68 -2 22 C-3.32 22 -4.64 22 -6 22 C-6 21.34 -6 20.68 -6 20 C-6.99 20 -7.98 20 -9 20 C-9 19.34 -9 18.68 -9 18 C-6.98177083 18.32552083 -4.96354167 18.65104167 -2.9453125 18.9765625 C-1.98238281 18.98816406 -1.98238281 18.98816406 -1 19 C1.38432398 16.61567602 2.09773429 15.26203756 3 12 C2.96358928 8.94670129 2.7591417 5.96310146 2 3 C1.34 2.67 0.68 2.34 0 2 C0 1.34 0 0.68 0 0 Z " fill="#4993EC" transform="translate(99,31)"/>
<path d="M0 0 C0.81726562 0.81855469 1.63453125 1.63710938 2.4765625 2.48046875 C6.31391048 5.67825873 9.55210431 5.59594324 14.375 5.3125 C15.11105469 5.28994141 15.84710938 5.26738281 16.60546875 5.24414062 C18.40453842 5.18572927 20.20254753 5.09606337 22 5 C22 4.34 22 3.68 22 3 C23.32 3 24.64 3 26 3 C26 3.99 26 4.98 26 6 C26.99 6.33 27.98 6.66 29 7 C29.33 7.33 29.66 7.66 30 8 C30.33 7.01 30.66 6.02 31 5 C31.33 6.65 31.66 8.3 32 10 C32.57234375 10.14308594 33.1446875 10.28617188 33.734375 10.43359375 C34.48203125 10.62050781 35.2296875 10.80742188 36 11 C36.70640625 11.17660156 37.4128125 11.35320313 38.140625 11.53515625 C40.09375 12.0234375 42.046875 12.51171875 44 13 C44 13.66 44 14.32 44 15 C38.555 14.505 38.555 14.505 33 14 C33 13.01 33 12.02 33 11 C32.030625 10.855625 31.06125 10.71125 30.0625 10.5625 C27 10 27 10 26 9 C24.22130274 8.84235595 22.43681524 8.74899323 20.65234375 8.68359375 C19.57275391 8.64169922 18.49316406 8.59980469 17.38085938 8.55664062 C15.67639648 8.49766602 15.67639648 8.49766602 13.9375 8.4375 C12.79732422 8.39431641 11.65714844 8.35113281 10.48242188 8.30664062 C7.65507805 8.20017161 4.82764262 8.09815793 2 8 C1.34 5.36 0.68 2.72 0 0 Z " fill="#52A0F3" transform="translate(43,33)"/>
<path d="M0 0 C2.58373234 0.30944701 5.16695133 0.62243957 7.75 0.9375 C8.47960937 1.02451172 9.20921875 1.11152344 9.9609375 1.20117188 C13.37584442 1.62027409 16.67603543 2.117274 20 3 C20 5.31 20 7.62 20 10 C19.34 9.67 18.68 9.34 18 9 C18 7.68 18 6.36 18 5 C15.03 4.67 12.06 4.34 9 4 C9 3.34 9 2.68 9 2 C6.03 2 3.06 2 0 2 C0 1.34 0 0.68 0 0 Z M4 4 C5.65 4 7.3 4 9 4 C9 6.97 9 9.94 9 13 C9.763125 13.0825 10.52625 13.165 11.3125 13.25 C14.52373261 14.14615794 15.29374499 15.21611025 17 18 C16.360625 18.61875 15.72125 19.2375 15.0625 19.875 C12.96116416 21.82597612 12.96116416 21.82597612 12 24 C11.01 24 10.02 24 9 24 C8.80083984 22.53626953 8.80083984 22.53626953 8.59765625 21.04296875 C8.42105469 19.77066406 8.24445313 18.49835938 8.0625 17.1875 C7.88847656 15.92292969 7.71445313 14.65835938 7.53515625 13.35546875 C7.09607545 10.01678297 7.09607545 10.01678297 6 7 C5.34 7 4.68 7 4 7 C4 6.01 4 5.02 4 4 Z " fill="#D9729A" transform="translate(65,46)"/>
<path d="M0 0 C1.65 0 3.3 0 5 0 C5 0.66 5 1.32 5 2 C7.31 2.33 9.62 2.66 12 3 C12 3.66 12 4.32 12 5 C12.721875 5.0825 13.44375 5.165 14.1875 5.25 C17.58926868 6.15713831 19.45466084 7.60010879 22 10 C22 10.66 22 11.32 22 12 C22.99 12.33 23.98 12.66 25 13 C25 13.66 25 14.32 25 15 C25.66 15 26.32 15 27 15 C27 15.66 27 16.32 27 17 C27.99 17.33 28.98 17.66 30 18 C29.67 18.99 29.34 19.98 29 21 C29 20.34 29 19.68 29 19 C28.01 18.67 27.02 18.34 26 18 C26 17.34 26 16.68 26 16 C24.68 15.67 23.36 15.34 22 15 C22 14.34 22 13.68 22 13 C21.01 13 20.02 13 19 13 C18.67 14.98 18.34 16.96 18 19 C17.34 19 16.68 19 16 19 C16.33 17.02 16.66 15.04 17 13 C14.69 13 12.38 13 10 13 C9.67 11.35 9.34 9.7 9 8 C10.32 7.67 11.64 7.34 13 7 C11.02 6.34 9.04 5.68 7 5 C7 4.34 7 3.68 7 3 C5.68 3 4.36 3 3 3 C3 2.34 3 1.68 3 1 C2.01 0.67 1.02 0.34 0 0 Z " fill="#78B5ED" transform="translate(78,15)"/>
<path d="M0 0 C0 0.33 0 0.66 0 1 C2.31 1.33 4.62 1.66 7 2 C7 1.34 7 0.68 7 0 C12.94 0 18.88 0 25 0 C25 0.66 25 1.32 25 2 C11.635 2.99 11.635 2.99 -2 4 C-2 4.66 -2 5.32 -2 6 C-3.65 6 -5.3 6 -7 6 C-7 6.66 -7 7.32 -7 8 C-9.95664519 9.4783226 -12.74229737 9.06032783 -16 9 C-13.95877866 4.40725199 -11.40715988 2.73594614 -7.0078125 0.71484375 C-4.58211616 -0.14877965 -2.55270145 -0.31908768 0 0 Z " fill="#A4D4F6" transform="translate(29,9)"/>
<path d="M0 0 C4.95 0 9.9 0 15 0 C15 1.65 15 3.3 15 5 C14.34 5 13.68 5 13 5 C13 5.66 13 6.32 13 7 C12.34 7 11.68 7 11 7 C11 7.66 11 8.32 11 9 C8.36 9 5.72 9 3 9 C3 8.34 3 7.68 3 7 C2.34 7 1.68 7 1 7 C0.67 4.69 0.34 2.38 0 0 Z " fill="#E9979B" transform="translate(63,97)"/>
<path d="M0 0 C0.99 0 1.98 0 3 0 C3 3.63 3 7.26 3 11 C0.36 11 -2.28 11 -5 11 C-5 11.66 -5 12.32 -5 13 C-5.66 13 -6.32 13 -7 13 C-7 13.66 -7 14.32 -7 15 C-8.65 15.33 -10.3 15.66 -12 16 C-12 16.66 -12 17.32 -12 18 C-14.31 18.33 -16.62 18.66 -19 19 C-19 18.01 -19 17.02 -19 16 C-18.01 16 -17.02 16 -16 16 C-15.67 15.34 -15.34 14.68 -15 14 C-11.9375 13.375 -11.9375 13.375 -9 13 C-8.34 11.02 -7.68 9.04 -7 7 C-6.01 7.33 -5.02 7.66 -4 8 C-4 7.34 -4 6.68 -4 6 C-3.34 6 -2.68 6 -2 6 C-1.34 4.02 -0.68 2.04 0 0 Z " fill="#C05C7A" transform="translate(49,57)"/>
<path d="M0 0 C0.33 0 0.66 0 1 0 C1.33 2.64 1.66 5.28 2 8 C2.33 7.34 2.66 6.68 3 6 C4.65 6.33 6.3 6.66 8 7 C8 9.31 8 11.62 8 14 C7.34 14 6.68 14 6 14 C6 14.66 6 15.32 6 16 C5.34 16 4.68 16 4 16 C4 19.63 4 23.26 4 27 C3.67 27 3.34 27 3 27 C3 25.02 3 23.04 3 21 C2.34 21 1.68 21 1 21 C0.67 21.66 0.34 22.32 0 23 C0.33 20.69 0.66 18.38 1 16 C0.01 16 -0.98 16 -2 16 C-2 14.68 -2 13.36 -2 12 C-1.34 12 -0.68 12 0 12 C0 8.04 0 4.08 0 0 Z " fill="#A43252" transform="translate(9,63)"/>
<path d="M0 0 C2.97 0.33 5.94 0.66 9 1 C9 1.66 9 2.32 9 3 C9.99 3 10.98 3 12 3 C12 3.99 12 4.98 12 6 C12.99 6 13.98 6 15 6 C15 6.66 15 7.32 15 8 C13.02 8 11.04 8 9 8 C9 9.32 9 10.64 9 12 C8.01 12 7.02 12 6 12 C6 13.65 6 15.3 6 17 C5.34 17 4.68 17 4 17 C4 18.65 4 20.3 4 22 C3.34 22 2.68 22 2 22 C2 22.99 2 23.98 2 25 C1.34 25 0.68 25 0 25 C0.66 22.03 1.32 19.06 2 16 C2.66 16 3.32 16 4 16 C4 11.05 4 6.1 4 1 C2.68 0.67 1.36 0.34 0 0 Z " fill="#8E4370" transform="translate(81,48)"/>
<path d="M0 0 C0.99 0.33 1.98 0.66 3 1 C3 1.66 3 2.32 3 3 C3.99 3 4.98 3 6 3 C6.99 5.31 7.98 7.62 9 10 C11.47266765 9.65555119 11.47266765 9.65555119 14 9 C14.33 8.34 14.66 7.68 15 7 C15.3690205 17.55808656 15.3690205 17.55808656 13 22 C11.68 21.67 10.36 21.34 9 21 C9 19.02 9 17.04 9 15 C8.34 15 7.68 15 7 15 C6.67 12.69 6.34 10.38 6 8 C5.34 8 4.68 8 4 8 C4 7.01 4 6.02 4 5 C3.34 5 2.68 5 2 5 C1.34 3.35 0.68 1.7 0 0 Z " fill="#E96E9C" transform="translate(93,61)"/>
<path d="M0 0 C0.99 0 1.98 0 3 0 C5.10770759 2.88834003 6 4.38462395 6 8 C6.66 8 7.32 8 8 8 C8.33 9.65 8.66 11.3 9 13 C9.66 13 10.32 13 11 13 C10.67 13.99 10.34 14.98 10 16 C6.04 15.67 2.08 15.34 -2 15 C-2 14.67 -2 14.34 -2 14 C0.64 13.67 3.28 13.34 6 13 C6 12.34 6 11.68 6 11 C3.36 11 0.72 11 -2 11 C-2 9.02 -2 7.04 -2 5 C-1.34 5 -0.68 5 0 5 C0 3.35 0 1.7 0 0 Z " fill="#D3A3A1" transform="translate(87,60)"/>
<path d="M0 0 C1.17369141 0.10054687 1.17369141 0.10054687 2.37109375 0.203125 C5.00004989 0.85919249 5.99368977 1.55063903 7.5625 3.75 C7.5625 5.07 7.5625 6.39 7.5625 7.75 C3.04632401 7.82654536 -1.02835217 7.85228696 -5.4375 6.75 C-5.7675 4.77 -6.0975 2.79 -6.4375 0.75 C-3.98972161 -0.4738892 -2.70359459 -0.266364 0 0 Z " fill="#FBB9D8" transform="translate(64.4375,51.25)"/>
<path d="M0 0 C0.99 0.33 1.98 0.66 3 1 C4.1875 3.5625 4.1875 3.5625 5 6 C5.66 6 6.32 6 7 6 C7 6.99 7 7.98 7 9 C7.66 9 8.32 9 9 9 C11.30844801 15.34823202 11.19818283 21.29481414 11 28 C11.66 28 12.32 28 13 28 C13 28.66 13 29.32 13 30 C12.34 30 11.68 30 11 30 C11 33.3 11 36.6 11 40 C10.67 40 10.34 40 10 40 C10 34.06 10 28.12 10 22 C9.34 22 8.68 22 8 22 C8 19.03 8 16.06 8 13 C7.34 13 6.68 13 6 13 C5.67 11.35 5.34 9.7 5 8 C4.34 8 3.68 8 3 8 C0.95830515 5.09451118 0 3.59857954 0 0 Z " fill="#81525B" transform="translate(90,60)"/>
<path d="M0 0 C1.32 0 2.64 0 4 0 C4.33 1.98 4.66 3.96 5 6 C7.31 6 9.62 6 12 6 C11.67 6.66 11.34 7.32 11 8 C8.36 8 5.72 8 3 8 C3 8.66 3 9.32 3 10 C2.01 10 1.02 10 0 10 C-0.33 9.34 -0.66 8.68 -1 8 C-4.02934491 7.34227572 -4.02934491 7.34227572 -7 7 C-6.67 8.65 -6.34 10.3 -6 12 C-6.66 11.67 -7.32 11.34 -8 11 C-8.6875 8.5 -8.6875 8.5 -9 6 C-8 5 -8 5 -4.4375 4.9375 C-3.303125 4.958125 -2.16875 4.97875 -1 5 C-0.67 3.35 -0.34 1.7 0 0 Z " fill="#E0C4E9" transform="translate(83,22)"/>
<path d="M0 0 C0.66 0 1.32 0 2 0 C2.33 0.99 2.66 1.98 3 3 C5.01508358 3.73323796 5.01508358 3.73323796 7 4 C7 3.01 7 2.02 7 1 C7.66 1 8.32 1 9 1 C8.67 2.32 8.34 3.64 8 5 C7.34 5 6.68 5 6 5 C6 5.66 6 6.32 6 7 C4.02 7.33 2.04 7.66 0 8 C0 8.66 0 9.32 0 10 C-4.44870215 10.39253254 -7.14243493 9.15305957 -11 7 C-8 5 -8 5 -4.8125 5.375 C-3.884375 5.58125 -2.95625 5.7875 -2 6 C-1.34 4.02 -0.68 2.04 0 0 Z " fill="#B96C7B" transform="translate(72,72)"/>
<path d="M0 0 C0.66 0 1.32 0 2 0 C1.87431641 0.91265625 1.87431641 0.91265625 1.74609375 1.84375 C0.75981523 10.33323596 1.30821631 18.51766765 2 27 C1.01 27.33 0.02 27.66 -1 28 C-4.67937091 20.64125817 -1.78029837 7.64574569 0 0 Z " fill="#2155BF" transform="translate(10,24)"/>
<path d="M0 0 C3.3 0.33 6.6 0.66 10 1 C10 1.66 10 2.32 10 3 C10.66 3.33 11.32 3.66 12 4 C8.7 4 5.4 4 2 4 C2 4.66 2 5.32 2 6 C1.34 6 0.68 6 0 6 C0 6.66 0 7.32 0 8 C-0.66 8 -1.32 8 -2 8 C-2 8.66 -2 9.32 -2 10 C-4.97 10.66 -7.94 11.32 -11 12 C-11 11.34 -11 10.68 -11 10 C-9.02 9.67 -7.04 9.34 -5 9 C-5 8.34 -5 7.68 -5 7 C-4.34 6.67 -3.68 6.34 -3 6 C-2.67 5.01 -2.34 4.02 -2 3 C-1.34 3 -0.68 3 0 3 C0 2.01 0 1.02 0 0 Z " fill="#F6DCD2" transform="translate(83,70)"/>
<path d="M0 0 C0 0.66 0 1.32 0 2 C0.66 2 1.32 2 2 2 C2 2.66 2 3.32 2 4 C1.01 4 0.02 4 -1 4 C-1 3.34 -1 2.68 -1 2 C-3.97 2 -6.94 2 -10 2 C-10 2.66 -10 3.32 -10 4 C-12.31 4.33 -14.62 4.66 -17 5 C-17 3.35 -17 1.7 -17 0 C-11.99632677 -1.33431286 -4.7581135 -2.37905675 0 0 Z " fill="#69615C" transform="translate(54,83)"/>
<path d="M0 0 C0.66 0 1.32 0 2 0 C2 0.66 2 1.32 2 2 C2.66 2 3.32 2 4 2 C5.68158146 5.66864051 6.24028871 8.49416047 6.1953125 12.51953125 C6.18886719 13.54111328 6.18242188 14.56269531 6.17578125 15.61523438 C6.15902344 16.67033203 6.14226562 17.72542969 6.125 18.8125 C6.11597656 19.88693359 6.10695313 20.96136719 6.09765625 22.06835938 C6.07415306 24.71246854 6.04129575 27.35611872 6 30 C5.01 29.34 4.02 28.68 3 28 C2.65942383 25.93701172 2.65942383 25.93701172 2.70703125 23.4296875 C2.71669922 22.53378906 2.72636719 21.63789062 2.73632812 20.71484375 C2.76146484 19.77769531 2.78660156 18.84054688 2.8125 17.875 C2.82603516 16.93011719 2.83957031 15.98523437 2.85351562 15.01171875 C2.88893694 12.67391221 2.93832729 10.33723763 3 8 C2.34 8 1.68 8 1 8 C0.67 5.36 0.34 2.72 0 0 Z " fill="#94B3C4" transform="translate(112,38)"/>
<path d="M0 0 C2.97 0 5.94 0 9 0 C9 0.33 9 0.66 9 1 C8.38511719 1.18175781 7.77023438 1.36351562 7.13671875 1.55078125 C6.32847656 1.80214844 5.52023438 2.05351563 4.6875 2.3125 C3.48673828 2.67794922 3.48673828 2.67794922 2.26171875 3.05078125 C-0.11406211 4.04787062 -1.24597301 5.16367262 -3 7 C-3.66 7 -4.32 7 -5 7 C-5.12117187 7.65226562 -5.24234375 8.30453125 -5.3671875 8.9765625 C-6.28943989 13.78646342 -7.30167277 18.39025465 -9 23 C-9.66 23 -10.32 23 -11 23 C-11.23113755 18.2616803 -10.36512542 14.52197796 -9 10 C-9 9.01 -9 8.02 -9 7 C-7.28515625 5.68359375 -7.28515625 5.68359375 -5.0625 4.4375 C-1.93912598 2.79661289 -1.93912598 2.79661289 0 0 Z " fill="#3651A6" transform="translate(18,45)"/>
<path d="M0 0 C0.33 0.99 0.66 1.98 1 3 C1.66 3 2.32 3 3 3 C3.33 3.99 3.66 4.98 4 6 C4.66 6.33 5.32 6.66 6 7 C6 13.6 6 20.2 6 27 C5.34 26.67 4.68 26.34 4 26 C3.54562848 23.39850033 3.20289402 20.87163138 2.9375 18.25 C2.30391167 9.69351113 2.30391167 9.69351113 -1 2 C-0.67 1.34 -0.34 0.68 0 0 Z " fill="#6EC1F4" transform="translate(109,39)"/>
<path d="M0 0 C2.97 0 5.94 0 9 0 C9 0.66 9 1.32 9 2 C11.97 2 14.94 2 18 2 C18 2.66 18 3.32 18 4 C16.35 4 14.7 4 13 4 C13 4.66 13 5.32 13 6 C9.7 6 6.4 6 3 6 C3 4.68 3 3.36 3 2 C2.01 2.33 1.02 2.66 0 3 C0 2.01 0 1.02 0 0 Z " fill="#F083AE" transform="translate(56,46)"/>
<path d="M0 0 C1.32 0 2.64 0 4 0 C4.33 0.99 4.66 1.98 5 3 C5.99 3.33 6.98 3.66 8 4 C8 4.99 8 5.98 8 7 C6.02 7 4.04 7 2 7 C2 7.99 2 8.98 2 10 C2.66 10 3.32 10 4 10 C4 10.66 4 11.32 4 12 C5.98 11.67 7.96 11.34 10 11 C10 11.66 10 12.32 10 13 C2.25 13.125 2.25 13.125 0 12 C0 8.04 0 4.08 0 0 Z " fill="#825770" transform="translate(81,78)"/>
<path d="M0 0 C1.32 0 2.64 0 4 0 C4 2.31 4 4.62 4 7 C3.34 7 2.68 7 2 7 C2 8.32 2 9.64 2 11 C2.99 11 3.98 11 5 11 C4.67 12.32 4.34 13.64 4 15 C4 14.01 4 13.02 4 12 C2.35 12 0.7 12 -1 12 C-3.125 5.25 -3.125 5.25 -2 3 C-1.34 3 -0.68 3 0 3 C0 2.01 0 1.02 0 0 Z " fill="#889AB7" transform="translate(5,68)"/>
<path d="M0 0 C1.21236328 0.01353516 1.21236328 0.01353516 2.44921875 0.02734375 C3.37154297 0.04474609 3.37154297 0.04474609 4.3125 0.0625 C4.3125 0.3925 4.3125 0.7225 4.3125 1.0625 C2.3325 1.0625 0.3525 1.0625 -1.6875 1.0625 C-1.6875 1.7225 -1.6875 2.3825 -1.6875 3.0625 C-2.3475 3.0625 -3.0075 3.0625 -3.6875 3.0625 C-3.6875 3.7225 -3.6875 4.3825 -3.6875 5.0625 C-4.3475 5.0625 -5.0075 5.0625 -5.6875 5.0625 C-5.6875 6.0525 -5.6875 7.0425 -5.6875 8.0625 C-6.3475 8.0625 -7.0075 8.0625 -7.6875 8.0625 C-8.0175 7.4025 -8.3475 6.7425 -8.6875 6.0625 C-12.3175 6.3925 -15.9475 6.7225 -19.6875 7.0625 C-16.81662495 4.19162495 -15.84936592 3.548266 -12.1875 2.4375 C-11.02734375 2.07785156 -11.02734375 2.07785156 -9.84375 1.7109375 C-9.1321875 1.49695312 -8.420625 1.28296875 -7.6875 1.0625 C-4.80538698 0.10179566 -2.98899956 -0.04331883 0 0 Z " fill="#AB476E" transform="translate(32.6875,45.9375)"/>
<path d="M0 0 C0 0.99 0 1.98 0 3 C-1.53844955 3.36789011 -3.08100388 3.71863066 -4.625 4.0625 C-5.48351562 4.25972656 -6.34203125 4.45695312 -7.2265625 4.66015625 C-10.41187939 5.05046973 -12.84325398 4.57671322 -16 4 C-19.12133242 3.74018274 -22.24678208 3.58967009 -25.375 3.4375 C-26.20644531 3.39431641 -27.03789063 3.35113281 -27.89453125 3.30664062 C-29.92953228 3.20138195 -31.96474703 3.10026928 -34 3 C-34 2.67 -34 2.34 -34 2 C-33.29915283 1.97494385 -32.59830566 1.9498877 -31.8762207 1.92407227 C-28.68814512 1.80773455 -25.50033758 1.68517956 -22.3125 1.5625 C-20.65831055 1.50352539 -20.65831055 1.50352539 -18.97070312 1.44335938 C-17.3706543 1.38051758 -17.3706543 1.38051758 -15.73828125 1.31640625 C-14.26935425 1.26141968 -14.26935425 1.26141968 -12.77075195 1.20532227 C-8.41122605 0.88226638 -4.4051051 -0.12586015 0 0 Z " fill="#C1928F" transform="translate(91,109)"/>
<path d="M0 0 C0.99 0 1.98 0 3 0 C3.33 1.32 3.66 2.64 4 4 C4.66 4 5.32 4 6 4 C6 7.3 6 10.6 6 14 C5.01 14 4.02 14 3 14 C3 13.34 3 12.68 3 12 C2.34 12 1.68 12 1 12 C-0.26237731 9.47524538 -0.09856404 7.68799534 -0.0625 4.875 C-0.05347656 3.96492188 -0.04445313 3.05484375 -0.03515625 2.1171875 C-0.02355469 1.41851562 -0.01195313 0.71984375 0 0 Z " fill="#C95581" transform="translate(24,72)"/>
<path d="M0 0 C1.32 0.33 2.64 0.66 4 1 C5.26237731 3.52475462 5.09856404 5.31200466 5.0625 8.125 C5.05347656 9.03507812 5.04445313 9.94515625 5.03515625 10.8828125 C5.02355469 11.58148438 5.01195313 12.28015625 5 13 C2.69 12.67 0.38 12.34 -2 12 C-2 11.01 -2 10.02 -2 9 C-1.34 9 -0.68 9 0 9 C0 6.03 0 3.06 0 0 Z " fill="#F6EAE7" transform="translate(94,79)"/>
<path d="M0 0 C0.721875 0.144375 1.44375 0.28875 2.1875 0.4375 C3.5796875 0.7159375 3.5796875 0.7159375 5 1 C6.66666667 1.33333333 8.33333333 1.66666667 10 2 C10 2.66 10 3.32 10 4 C10.99 4.33 11.98 4.66 13 5 C13 5.66 13 6.32 13 7 C13.928125 7.2165625 13.928125 7.2165625 14.875 7.4375 C17 8 17 8 19 9 C19.33 9.99 19.66 10.98 20 12 C20.66 12.66 21.32 13.32 22 14 C19.525 13.505 19.525 13.505 17 13 C17 12.34 17 11.68 17 11 C16.34 11 15.68 11 15 11 C14.566875 10.54625 14.13375 10.0925 13.6875 9.625 C11.64371183 7.65690769 9.65469676 6.93273129 7 6 C7 5.34 7 4.68 7 4 C5.68 4 4.36 4 3 4 C3 3.34 3 2.68 3 2 C2.01 2 1.02 2 0 2 C0 1.34 0 0.68 0 0 Z " fill="#3C7EE3" transform="translate(90,49)"/>
<path d="M0 0 C0.66 0 1.32 0 2 0 C2 0.66 2 1.32 2 2 C2.66 2 3.32 2 4 2 C4 2.66 4 3.32 4 4 C4.66 4 5.32 4 6 4 C6 4.66 6 5.32 6 6 C8.64 6 11.28 6 14 6 C14 7.65 14 9.3 14 11 C13.34 11 12.68 11 12 11 C12 13.31 12 15.62 12 18 C11.67 18 11.34 18 11 18 C10.814375 16.7625 10.62875 15.525 10.4375 14.25 C9.81461517 11.67207519 9.45786891 10.37181162 7.37890625 8.68359375 C5.60857372 7.74505987 3.8048948 6.87021713 2 6 C0 3 0 3 0 0 Z " fill="#A67E8A" transform="translate(13,91)"/>
<path d="M0 0 C0.76570313 0.79792969 1.53140625 1.59585938 2.3203125 2.41796875 C6.66781955 6.04089129 11.41270092 6.0053382 16.875 6.3125 C17.84953125 6.38533203 18.8240625 6.45816406 19.828125 6.53320312 C22.21809046 6.70893588 24.60750573 6.86389621 27 7 C26.67 7.66 26.34 8.32 26 9 C18.08 8.67 10.16 8.34 2 8 C1.34 5.36 0.68 2.72 0 0 Z " fill="#4489E9" transform="translate(43,33)"/>
<path d="M0 0 C2 0 2 0 4.375 2.25 C5.24125 3.1575 6.1075 4.065 7 5 C8.11375 6.0209375 8.11375 6.0209375 9.25 7.0625 C11.0851527 9.0942762 11.61776714 10.32437 12 13 C11.21625 12.814375 10.4325 12.62875 9.625 12.4375 C7.02910225 11.74037734 7.02910225 11.74037734 5 13 C4.01 12.01 3.02 11.02 2 10 C2.33 9.34 2.66 8.68 3 8 C3.66 8 4.32 8 5 8 C4.34 7.67 3.68 7.34 3 7 C3 6.34 3 5.68 3 5 C2.34 5 1.68 5 1 5 C0.67 3.35 0.34 1.7 0 0 Z " fill="#7AA0BC" transform="translate(102,25)"/>
<path d="M0 0 C1.32 0 2.64 0 4 0 C4 0.66 4 1.32 4 2 C4.763125 2.12375 5.52625 2.2475 6.3125 2.375 C9 3 9 3 12 5 C12 5.66 12 6.32 12 7 C12.66 7 13.32 7 14 7 C16.36503039 9.99106784 17.91553181 12.02861582 18.25 15.875 C18.1675 16.57625 18.085 17.2775 18 18 C16 15 16 15 16 12 C15.34 12 14.68 12 14 12 C14 11.34 14 10.68 14 10 C12.68 9.67 11.36 9.34 10 9 C10 8.34 10 7.68 10 7 C8.35 6.67 6.7 6.34 5 6 C5 5.34 5 4.68 5 4 C4.34 4 3.68 4 3 4 C3 3.01 3 2.02 3 1 C2.01 0.67 1.02 0.34 0 0 Z " fill="#474292" transform="translate(93,53)"/>
<path d="M0 0 C4.57149757 -0.07457894 9.14263509 -0.12880276 13.71459961 -0.16479492 C15.2673968 -0.17981105 16.82015209 -0.20023028 18.37280273 -0.22631836 C20.61452624 -0.26302073 22.85568539 -0.27979787 25.09765625 -0.29296875 C25.78336197 -0.30845261 26.46906769 -0.32393646 27.17555237 -0.33988953 C32.22133364 -0.34162145 35.56230784 0.81268954 40 3 C40 3.33 40 3.66 40 4 C35.71 3.67 31.42 3.34 27 3 C27 2.34 27 1.68 27 1 C17.76 1.33 8.52 1.66 -1 2 C-0.67 1.34 -0.34 0.68 0 0 Z " fill="#386ABE" transform="translate(36,41)"/>
<path d="M0 0 C2.97 0 5.94 0 9 0 C8.01 0.99 7.02 1.98 6 3 C6 2.34 6 1.68 6 1 C2.49787248 2.58429578 -0.25578865 4.15540647 -3 6.8125 C-3.99 7.534375 -4.98 8.25625 -6 9 C-9.375 8.3125 -9.375 8.3125 -12 7 C-12 6.34 -12 5.68 -12 5 C-8.535 4.505 -8.535 4.505 -5 4 C-5 3.34 -5 2.68 -5 2 C-3.35 2 -1.7 2 0 2 C0 1.34 0 0.68 0 0 Z " fill="#4899E7" transform="translate(27,13)"/>
<path d="M0 0 C-0.6875 2.875 -0.6875 2.875 -2 6 C-4.625 7.375 -4.625 7.375 -7 8 C-7 6.68 -7 5.36 -7 4 C-10.3 3.34 -13.6 2.68 -17 2 C-17 1.67 -17 1.34 -17 1 C-11.27959989 0.1679418 -5.77759884 -0.12036664 0 0 Z " fill="#60B1F4" transform="translate(46,11)"/>
<path d="M0 0 C3.91660106 -0.05906707 7.83308457 -0.09394858 11.75 -0.125 C12.84183594 -0.14175781 13.93367188 -0.15851562 15.05859375 -0.17578125 C22.57356933 -0.22024856 29.63271981 0.52221223 37 2 C37 2.33 37 2.66 37 3 C35.73542969 2.95359375 34.47085938 2.9071875 33.16796875 2.859375 C31.50783609 2.82185788 29.84767792 2.78545765 28.1875 2.75 C27.35412109 2.71648438 26.52074219 2.68296875 25.66210938 2.6484375 C23.37379889 2.61167749 21.25678739 2.61504207 19 3 C16.86785313 4.83312072 16.86785313 4.83312072 16 7 C16 5.02 16 3.04 16 1 C10.72 1 5.44 1 0 1 C0 0.67 0 0.34 0 0 Z " fill="#BA4B7C" transform="translate(37,44)"/>
<path d="M0 0 C0.33 0 0.66 0 1 0 C1 1.98 1 3.96 1 6 C2.2375 5.814375 3.475 5.62875 4.75 5.4375 C7.76279577 5.05288777 10.10010827 4.9125406 13 6 C13 4.02 13 2.04 13 0 C13.66 0 14.32 0 15 0 C15.33 3.3 15.66 6.6 16 10 C14.68 9.67 13.36 9.34 12 9 C7.61298561 8.26883093 3.44692032 7.89153853 -1 8 C-0.67 5.36 -0.34 2.72 0 0 Z " fill="#AAAAE3" transform="translate(77,34)"/>
<path d="M0 0 C1.32 0 2.64 0 4 0 C4.33 1.65 4.66 3.3 5 5 C4.34 5 3.68 5 3 5 C2.67 5.99 2.34 6.98 2 8 C1.67 7.67 1.34 7.34 1 7 C-0.66617115 6.95936168 -2.33388095 6.957279 -4 7 C-4 6.34 -4 5.68 -4 5 C-4.66 5 -5.32 5 -6 5 C-6 4.01 -6 3.02 -6 2 C-4.02 2 -2.04 2 0 2 C0 1.34 0 0.68 0 0 Z " fill="#DB7FB3" transform="translate(89,83)"/>
<path d="M0 0 C0.33 0 0.66 0 1 0 C1.33 3.3 1.66 6.6 2 10 C3.32 10 4.64 10 6 10 C6 11.65 6 13.3 6 15 C4.35 14.67 2.7 14.34 1 14 C0.67 14.99 0.34 15.98 0 17 C-0.33 17 -0.66 17 -1 17 C-1.10477512 11.21408489 -0.99250545 5.70690634 0 0 Z " fill="#BD456C" transform="translate(11,55)"/>
<path d="M0 0 C0.33 2.31 0.66 4.62 1 7 C0.01 7.33 -0.98 7.66 -2 8 C-2 9.65 -2 11.3 -2 13 C-2.99 13.33 -3.98 13.66 -5 14 C-7 8.25 -7 8.25 -7 6 C-6.34 6 -5.68 6 -5 6 C-4.87625 5.195625 -4.7525 4.39125 -4.625 3.5625 C-4.41875 2.716875 -4.2125 1.87125 -4 1 C-2 0 -2 0 0 0 Z " fill="#DCA5A0" transform="translate(17,78)"/>
<path d="M0 0 C2.375 0.1875 2.375 0.1875 5 1 C5.71727778 2.64551962 6.38325228 4.31422289 7 6 C9.01735205 7.34410262 9.01735205 7.34410262 11 8 C8.69 8 6.38 8 4 8 C4 7.01 4 6.02 4 5 C1.03 4.67 -1.94 4.34 -5 4 C-4.67 3.34 -4.34 2.68 -4 2 C-2.68 2 -1.36 2 0 2 C0 1.34 0 0.68 0 0 Z " fill="#57ACFB" transform="translate(83,41)"/>
<path d="M0 0 C0.66 0 1.32 0 2 0 C2.33 4.62 2.66 9.24 3 14 C2.67 13.01 2.34 12.02 2 11 C1.01 10.67 0.02 10.34 -1 10 C-2.5 8 -2.5 8 -4 6 C-4.99 5.67 -5.98 5.34 -7 5 C-6.67 4.34 -6.34 3.68 -6 3 C-3.525 3.99 -3.525 3.99 -1 5 C-0.67 3.35 -0.34 1.7 0 0 Z " fill="#4895F0" transform="translate(110,51)"/>
<path d="M0 0 C1.31871094 0.07831055 1.31871094 0.07831055 2.6640625 0.15820312 C4.81807499 0.28697561 6.97159659 0.42391463 9.125 0.5625 C9.125 0.8925 9.125 1.2225 9.125 1.5625 C3.185 1.5625 -2.755 1.5625 -8.875 1.5625 C-8.875 2.2225 -8.875 2.8825 -8.875 3.5625 C-12.175 3.5625 -15.475 3.5625 -18.875 3.5625 C-17.885 3.2325 -16.895 2.9025 -15.875 2.5625 C-15.875 1.9025 -15.875 1.2425 -15.875 0.5625 C-10.47781966 -0.63195794 -5.46375569 -0.35794183 0 0 Z " fill="#5F7A90" transform="translate(44.875,7.4375)"/>
<path d="M0 0 C1.32 0 2.64 0 4 0 C4.061875 0.94875 4.12375 1.8975 4.1875 2.875 C4.455625 3.90625 4.72375 4.9375 5 6 C7.46255685 7.45291273 7.46255685 7.45291273 10 8 C8 10 8 10 5.375 10.125 C4.59125 10.08375 3.8075 10.0425 3 10 C3 9.34 3 8.68 3 8 C2.34 8 1.68 8 1 8 C0.67 5.36 0.34 2.72 0 0 Z " fill="#FCD7C8" transform="translate(14,85)"/>
<path d="M0 0 C0.66 0 1.32 0 2 0 C2 0.99 2 1.98 2 3 C2.639375 3.103125 3.27875 3.20625 3.9375 3.3125 C4.618125 3.539375 5.29875 3.76625 6 4 C6.33 4.99 6.66 5.98 7 7 C7.66 7 8.32 7 9 7 C9 7.99 9 8.98 9 10 C6.69 10 4.38 10 2 10 C2 8.02 2 6.04 2 4 C1.34 4 0.68 4 0 4 C0 2.68 0 1.36 0 0 Z " fill="#A54E62" transform="translate(57,68)"/>
<path d="M0 0 C0 0.66 0 1.32 0 2 C-0.99 2 -1.98 2 -3 2 C-3 3.32 -3 4.64 -3 6 C-5.95664519 7.4783226 -8.74229737 7.06032783 -12 7 C-10.4992678 3.99853561 -9.55814822 2.30054135 -6.5625 0.6875 C-4 0 -4 0 0 0 Z " fill="#8EADCB" transform="translate(25,11)"/>
<path d="M0 0 C2 3 2 3 2 6 C6.29 6.33 10.58 6.66 15 7 C15.33 6.01 15.66 5.02 16 4 C16 5.32 16 6.64 16 8 C12.74696956 9.62651522 9.60774398 9.11453156 6 9 C5.67 8.67 5.34 8.34 5 8 C4.34 8.66 3.68 9.32 3 10 C2.34 10 1.68 10 1 10 C0.67 6.7 0.34 3.4 0 0 Z " fill="#EA8CB5" transform="translate(57,52)"/>
<path d="M0 0 C0.66 0 1.32 0 2 0 C1.67 2.31 1.34 4.62 1 7 C0.34 7 -0.32 7 -1 7 C-1.33 11.29 -1.66 15.58 -2 20 C-2.33 20 -2.66 20 -3 20 C-3 17.69 -3 15.38 -3 13 C-3.66 12.67 -4.32 12.34 -5 12 C-1.85714286 3.42857143 -1.85714286 3.42857143 0 0 Z " fill="#4994EE" transform="translate(45,13)"/>
<path d="M0 0 C1.45903258 0.30921884 2.91720722 0.62248799 4.375 0.9375 C5.18710937 1.11152344 5.99921875 1.28554687 6.8359375 1.46484375 C9 2 9 2 11 3 C12.70363822 3.22622081 14.41328701 3.40888473 16.125 3.5625 C17.03507812 3.64628906 17.94515625 3.73007813 18.8828125 3.81640625 C19.58148438 3.87699219 20.28015625 3.93757813 21 4 C21 4.33 21 4.66 21 5 C6.90696839 6.75897989 6.90696839 6.75897989 1 3 C0.67 2.01 0.34 1.02 0 0 Z " fill="#B38887" transform="translate(36,106)"/>
<path d="M0 0 C1.32 0.33 2.64 0.66 4 1 C4 1.99 4 2.98 4 4 C8.29 4 12.58 4 17 4 C17 4.33 17 4.66 17 5 C13.7 5 10.4 5 7 5 C7 5.66 7 6.32 7 7 C4.69 7 2.38 7 0 7 C0 4.69 0 2.38 0 0 Z " fill="#FAEBE1" transform="translate(35,76)"/>
<path d="M0 0 C0.99 0.33 1.98 0.66 3 1 C4.1875 3.5625 4.1875 3.5625 5 6 C5.66 6 6.32 6 7 6 C7 6.99 7 7.98 7 9 C7.66 9 8.32 9 9 9 C9.33 10.32 9.66 11.64 10 13 C8.68 13 7.36 13 6 13 C5.67 11.35 5.34 9.7 5 8 C4.34 8 3.68 8 3 8 C0.95830515 5.09451118 0 3.59857954 0 0 Z " fill="#AC4C64" transform="translate(90,60)"/>
<path d="M0 0 C5.28 0 10.56 0 16 0 C16.33 2.97 16.66 5.94 17 9 C16.34 9 15.68 9 15 9 C15 9.99 15 10.98 15 12 C14.01 12 13.02 12 12 12 C12.33 10.02 12.66 8.04 13 6 C13.66 6 14.32 6 15 6 C15 4.35 15 2.7 15 1 C10.05 1 5.1 1 0 1 C0 0.67 0 0.34 0 0 Z " fill="#D85E8A" transform="translate(37,45)"/>
<path d="M0 0 C4.95 0 9.9 0 15 0 C15 1.65 15 3.3 15 5 C14.34 5 13.68 5 13 5 C13 4.34 13 3.68 13 3 C8.71 3 4.42 3 0 3 C0 2.01 0 1.02 0 0 Z " fill="#C67B7B" transform="translate(63,97)"/>
<path d="M0 0 C0.66 0 1.32 0 2 0 C2 0.66 2 1.32 2 2 C2.66 2 3.32 2 4 2 C4.55808089 3.43120744 5.09596462 4.87030355 5.625 6.3125 C5.92664063 7.11300781 6.22828125 7.91351563 6.5390625 8.73828125 C6.76722656 9.85783203 6.76722656 9.85783203 7 11 C6.01 12.485 6.01 12.485 5 14 C5 13.01 5 12.02 5 11 C4.34 11 3.68 11 3 11 C2.67 9.68 2.34 8.36 2 7 C1.34 7 0.68 7 0 7 C0 4.69 0 2.38 0 0 Z " fill="#9F5B8C" transform="translate(105,63)"/>
<path d="M0 0 C0.66 0 1.32 0 2 0 C2.22226864 1.76913824 2.42733873 3.54044371 2.625 5.3125 C2.74101563 6.29863281 2.85703125 7.28476562 2.9765625 8.30078125 C3 11 3 11 1 14 C-0.32 13.67 -1.64 13.34 -3 13 C-3.33 11.35 -3.66 9.7 -4 8 C-1.525 8.99 -1.525 8.99 1 10 C0.67 6.7 0.34 3.4 0 0 Z " fill="#72AFF2" transform="translate(92,34)"/>
<path d="M0 0 C0.33 0.99 0.66 1.98 1 3 C0.01 4.485 0.01 4.485 -1 6 C-1.66 6 -2.32 6 -3 6 C-3 6.66 -3 7.32 -3 8 C-3.99 8.33 -4.98 8.66 -6 9 C-7.21869929 11.50447516 -7.21869929 11.50447516 -8 14 C-8.99 13.67 -9.98 13.34 -11 13 C-10.505 12.1028125 -10.505 12.1028125 -10 11.1875 C-8.79212012 8.94613529 -8.79212012 8.94613529 -9 6 C-8.34 6 -7.68 6 -7 6 C-6.67 5.34 -6.34 4.68 -6 4 C-6 4.66 -6 5.32 -6 6 C-4.04105639 5.88693303 -4.04105639 5.88693303 -2 5 C-0.70339566 2.50965614 -0.70339566 2.50965614 0 0 Z " fill="#E26B96" transform="translate(48,57)"/>
<path d="M0 0 C2.97 0 5.94 0 9 0 C8.67 0.66 8.34 1.32 8 2 C7.030625 1.979375 6.06125 1.95875 5.0625 1.9375 C2.12534105 1.64381501 2.12534105 1.64381501 1 3 C3.31 3 5.62 3 8 3 C8 3.33 8 3.66 8 4 C6.06403108 4.22211116 4.12610672 4.42722992 2.1875 4.625 C0.56908203 4.79902344 0.56908203 4.79902344 -1.08203125 4.9765625 C-4 5 -4 5 -7 3 C-3.535 2.505 -3.535 2.505 0 2 C0 1.34 0 0.68 0 0 Z " fill="#F1D8D2" transform="translate(44,85)"/>
<path d="M0 0 C0.66 0 1.32 0 2 0 C2.33 0.99 2.66 1.98 3 3 C5.01508358 3.73323796 5.01508358 3.73323796 7 4 C7 3.01 7 2.02 7 1 C7.66 1 8.32 1 9 1 C8.67 2.32 8.34 3.64 8 5 C7.34 5 6.68 5 6 5 C6 5.66 6 6.32 6 7 C4.68 7.33 3.36 7.66 2 8 C2 7.34 2 6.68 2 6 C1.01 6 0.02 6 -1 6 C-0.67 4.02 -0.34 2.04 0 0 Z " fill="#C26080" transform="translate(72,72)"/>
<path d="M0 0 C0.99 0.33 1.98 0.66 3 1 C2.67 3.31 2.34 5.62 2 8 C1.34 8 0.68 8 0 8 C0 9.65 0 11.3 0 13 C-0.66 13 -1.32 13 -2 13 C-2 13.99 -2 14.98 -2 16 C-2.66 16 -3.32 16 -4 16 C-3.34 13.03 -2.68 10.06 -2 7 C-1.34 7 -0.68 7 0 7 C0 4.69 0 2.38 0 0 Z " fill="#B76576" transform="translate(85,57)"/>
<path d="M0 0 C0.33 0.66 0.66 1.32 1 2 C3.02463255 2.65213292 3.02463255 2.65213292 5 3 C5 4.32 5 5.64 5 7 C2.69 7 0.38 7 -2 7 C-2 5.35 -2 3.7 -2 2 C-1.34 2 -0.68 2 0 2 C0 1.34 0 0.68 0 0 Z " fill="#FBD8D0" transform="translate(87,63)"/>
<path d="M0 0 C0.33 0 0.66 0 1 0 C1 7.59 1 15.18 1 23 C0.01 22.67 -0.98 22.34 -2 22 C-2 22.66 -2 23.32 -2 24 C-2.66 24 -3.32 24 -4 24 C-4.33 22.02 -4.66 20.04 -5 18 C-3.35 18.99 -1.7 19.98 0 21 C0 14.07 0 7.14 0 0 Z " fill="#8E2F4B" transform="translate(22,60)"/>
<path d="M0 0 C1.65 0 3.3 0 5 0 C5 0.66 5 1.32 5 2 C7.31 2.33 9.62 2.66 12 3 C12 3.66 12 4.32 12 5 C13.65 5.33 15.3 5.66 17 6 C17.33 6.99 17.66 7.98 18 9 C17.01 9 16.02 9 15 9 C14.67 8.34 14.34 7.68 14 7 C11.6859378 6.26924352 9.35171131 5.59861742 7 5 C7 4.34 7 3.68 7 3 C5.68 3 4.36 3 3 3 C3 2.34 3 1.68 3 1 C2.01 0.67 1.02 0.34 0 0 Z " fill="#9CD9F7" transform="translate(78,15)"/>
<path d="M0 0 C2.97 0 5.94 0 9 0 C9 0.99 9 1.98 9 3 C9.99 3 10.98 3 12 3 C12 3.99 12 4.98 12 6 C10.02 6.33 8.04 6.66 6 7 C6 6.01 6 5.02 6 4 C4.02 3.34 2.04 2.68 0 2 C0 1.34 0 0.68 0 0 Z " fill="#72BEF2" transform="translate(69,13)"/>
<path d="M0 0 C0 1.65 0 3.3 0 5 C-2.31 5.33 -4.62 5.66 -7 6 C-7 4.35 -7 2.7 -7 1 C-2.25 0 -2.25 0 0 0 Z " fill="#75726E" transform="translate(44,82)"/>
<path d="M0 0 C0.66 0.33 1.32 0.66 2 1 C1.67 1.33 1.34 1.66 1 2 C0.855625 3.051875 0.71125 4.10375 0.5625 5.1875 C0.0469677 8.68166337 -0.79042981 11.69384149 -2 15 C-2.66 15 -3.32 15 -4 15 C-4.39473574 9.73685677 -3.17298232 5.71751084 -1 1 C-0.67 0.67 -0.34 0.34 0 0 Z " fill="#624F7B" transform="translate(11,53)"/>
<path d="M0 0 C0.33 0 0.66 0 1 0 C1 7.26 1 14.52 1 22 C0.34 22 -0.32 22 -1 22 C-1.33 22.99 -1.66 23.98 -2 25 C-2.33 23.68 -2.66 22.36 -3 21 C-2.01 20.67 -1.02 20.34 0 20 C0 13.4 0 6.8 0 0 Z " fill="#305779" transform="translate(116,46)"/>
<path d="M0 0 C0.99 0 1.98 0 3 0 C4.06351675 3.38391693 4.21442982 4.5804634 2.5625 7.8125 C2.046875 8.534375 1.53125 9.25625 1 10 C0.87625 9.360625 0.7525 8.72125 0.625 8.0625 C0.315625 7.0415625 0.315625 7.0415625 0 6 C-0.66 5.67 -1.32 5.34 -2 5 C-1.34 3.35 -0.68 1.7 0 0 Z " fill="#4D75BD" transform="translate(12,18)"/>
<path d="M0 0 C2.4375 0.75 2.4375 0.75 5 2 C5.8125 4.125 5.8125 4.125 6 6 C6.33 4.35 6.66 2.7 7 1 C8.2077558 4.62326739 7.54311128 5.64146369 6 9 C4.68 8.67 3.36 8.34 2 8 C2 6.02 2 4.04 2 2 C1.34 2 0.68 2 0 2 C0 1.34 0 0.68 0 0 Z " fill="#D9648E" transform="translate(100,74)"/>
<path d="M0 0 C2.97 0.99 5.94 1.98 9 3 C9 3.99 9 4.98 9 6 C7.68 6 6.36 6 5 6 C5 5.34 5 4.68 5 4 C3.35 4 1.7 4 0 4 C0 2.68 0 1.36 0 0 Z " fill="#859CB2" transform="translate(78,11)"/>
<path d="M0 0 C0.33 0 0.66 0 1 0 C1 1.98 1 3.96 1 6 C2.65 5.67 4.3 5.34 6 5 C6 6.32 6 7.64 6 9 C4.68 9 3.36 9 2 9 C2 9.99 2 10.98 2 12 C1.34 12 0.68 12 0 12 C0 8.04 0 4.08 0 0 Z " fill="#B0476A" transform="translate(101,76)"/>
<path d="M0 0 C3.3 0.33 6.6 0.66 10 1 C10 3.31 10 5.62 10 8 C9.34 7.67 8.68 7.34 8 7 C8 5.68 8 4.36 8 3 C5.36 2.67 2.72 2.34 0 2 C0 1.34 0 0.68 0 0 Z " fill="#BE6693" transform="translate(75,48)"/>
<path d="M0 0 C0.99 0.33 1.98 0.66 3 1 C3 1.66 3 2.32 3 3 C3.99 3.33 4.98 3.66 6 4 C6 4.66 6 5.32 6 6 C6.66 6 7.32 6 8 6 C8 6.66 8 7.32 8 8 C8.99 8.33 9.98 8.66 11 9 C10.67 9.99 10.34 10.98 10 12 C10 11.34 10 10.68 10 10 C9.01 9.67 8.02 9.34 7 9 C7 8.34 7 7.68 7 7 C5.68 6.67 4.36 6.34 3 6 C3 5.34 3 4.68 3 4 C2.01 4 1.02 4 0 4 C0 2.68 0 1.36 0 0 Z " fill="#8FD3F1" transform="translate(97,24)"/>
<path d="M0 0 C0.99 0.495 0.99 0.495 2 1 C1.67 1.66 1.34 2.32 1 3 C1.99 3 2.98 3 4 3 C6 5 6 5 6.1953125 7.3828125 C6.16050781 8.74019531 6.16050781 8.74019531 6.125 10.125 C6.10695313 11.03507812 6.08890625 11.94515625 6.0703125 12.8828125 C6.04710937 13.58148438 6.02390625 14.28015625 6 15 C5.67 15 5.34 15 5 15 C5 13.02 5 11.04 5 9 C4.34 9 3.68 9 3 9 C2.67 9.66 2.34 10.32 2 11 C2.33 8.69 2.66 6.38 3 4 C2.01 4 1.02 4 0 4 C0 2.68 0 1.36 0 0 Z " fill="#8B495D" transform="translate(7,75)"/>
<path d="M0 0 C6.75 0.875 6.75 0.875 9 2 C9 2.66 9 3.32 9 4 C9.99 4.33 10.98 4.66 12 5 C10.68 5 9.36 5 8 5 C8 4.34 8 3.68 8 3 C6.68 3 5.36 3 4 3 C3.67 3.99 3.34 4.98 3 6 C2.34 5.67 1.68 5.34 1 5 C0.375 2.4375 0.375 2.4375 0 0 Z " fill="#CE628E" transform="translate(89,55)"/>
<path d="M0 0 C0.66 0 1.32 0 2 0 C1.45276317 3.37462715 0.9451 5.08235 -1 8 C-3.625 8.1875 -3.625 8.1875 -6 8 C-6 7.34 -6 6.68 -6 6 C-5.01 6 -4.02 6 -3 6 C-2.67 5.01 -2.34 4.02 -2 3 C-1.34 3 -0.68 3 0 3 C0 2.01 0 1.02 0 0 Z " fill="#8C706D" transform="translate(98,101)"/>
<path d="M0 0 C0.66 0 1.32 0 2 0 C2 3.3 2 6.6 2 10 C1.01 10 0.02 10 -1 10 C-1.125 2.25 -1.125 2.25 0 0 Z " fill="#E0628F" transform="translate(28,76)"/>
<path d="M0 0 C1.32 0 2.64 0 4 0 C4 0.66 4 1.32 4 2 C4.763125 2.103125 5.52625 2.20625 6.3125 2.3125 C9.17059424 3.04364039 10.15742885 3.76951913 12 6 C9.69 6 7.38 6 5 6 C5 5.34 5 4.68 5 4 C4.34 4 3.68 4 3 4 C3 3.01 3 2.02 3 1 C2.01 0.67 1.02 0.34 0 0 Z " fill="#434CA2" transform="translate(93,53)"/>
<path d="M0 0 C0.66 0 1.32 0 2 0 C2 0.66 2 1.32 2 2 C2.66 2 3.32 2 4 2 C4 2.66 4 3.32 4 4 C4.66 4 5.32 4 6 4 C6 4.99 6 5.98 6 7 C6.99 7 7.98 7 9 7 C9 7.66 9 8.32 9 9 C5.0873016 7.6957672 2.62689759 6.21065261 0 3 C0 2.01 0 1.02 0 0 Z " fill="#AB9090" transform="translate(13,91)"/>
<path d="M0 0 C1.134375 0.020625 2.26875 0.04125 3.4375 0.0625 C3.4375 1.0525 3.4375 2.0425 3.4375 3.0625 C2.674375 3.000625 1.91125 2.93875 1.125 2.875 C-1.60775312 2.80351915 -1.60775312 2.80351915 -3.375 4.5625 C-3.766875 5.0575 -4.15875 5.5525 -4.5625 6.0625 C-4.605221 4.39638095 -4.60313832 2.72867115 -4.5625 1.0625 C-3.5625 0.0625 -3.5625 0.0625 0 0 Z " fill="#F28EB7" transform="translate(36.5625,59.9375)"/>
<path d="M0 0 C0.99 0 1.98 0 3 0 C3.99 2.31 4.98 4.62 6 7 C5.34 7 4.68 7 4 7 C4 6.34 4 5.68 4 5 C0.04 4.67 -3.92 4.34 -8 4 C-8 3.67 -8 3.34 -8 3 C-3.545 2.505 -3.545 2.505 1 2 C0.67 1.34 0.34 0.68 0 0 Z " fill="#E5CDC8" transform="translate(50,78)"/>
<path d="M0 0 C0.33 0.66 0.66 1.32 1 2 C2.64363134 2.72159424 4.31050386 3.39351421 6 4 C5.67 5.32 5.34 6.64 5 8 C3.35 8 1.7 8 0 8 C0.66 6.68 1.32 5.36 2 4 C1.34 4 0.68 4 0 4 C0 2.68 0 1.36 0 0 Z " fill="#F6D7CF" transform="translate(53,72)"/>
<path d="M0 0 C2.4375 0.75 2.4375 0.75 5 2 C5.8125 4.125 5.8125 4.125 6 6 C6.66 6 7.32 6 8 6 C8 6.99 8 7.98 8 9 C7.34 9 6.68 9 6 9 C5.34 8.01 4.68 7.02 4 6 C3.01 5.67 2.02 5.34 1 5 C0.67 3.35 0.34 1.7 0 0 Z " fill="#D45C88" transform="translate(58,66)"/>
<path d="M0 0 C0.598125 0.20625 1.19625 0.4125 1.8125 0.625 C1 2.5625 1 2.5625 -0.1875 4.625 C-1.1775 4.955 -2.1675 5.285 -3.1875 5.625 C-3.8475 4.305 -4.5075 2.985 -5.1875 1.625 C-2.1875 -0.375 -2.1875 -0.375 0 0 Z " fill="#A791A0" transform="translate(32.1875,105.375)"/>
<path d="M0 0 C0.66 0 1.32 0 2 0 C2 0.66 2 1.32 2 2 C2.99 2.33 3.98 2.66 5 3 C5 4.32 5 5.64 5 7 C3.35 6.67 1.7 6.34 0 6 C0 4.02 0 2.04 0 0 Z " fill="#F1B0B2" transform="translate(18,85)"/>
<path d="M0 0 C0.99 0 1.98 0 3 0 C3.33 0.99 3.66 1.98 4 3 C4.99 3.33 5.98 3.66 7 4 C7 4.99 7 5.98 7 7 C5.68 7 4.36 7 3 7 C3 6.01 3 5.02 3 4 C2.01 4 1.02 4 0 4 C0 2.68 0 1.36 0 0 Z " fill="#603758" transform="translate(82,78)"/>
<path d="M0 0 C0.99 0.33 1.98 0.66 3 1 C3.1875 3.8125 3.1875 3.8125 3 7 C2.01 7.99 1.02 8.98 0 10 C0 6.7 0 3.4 0 0 Z " fill="#F9F2FA" transform="translate(94,79)"/>
<path d="M0 0 C0.93423645 3.01031744 1.04449911 3.86650268 0 7 C-2.06640625 7.73046875 -2.06640625 7.73046875 -4.5625 8.1875 C-5.38878906 8.34605469 -6.21507813 8.50460938 -7.06640625 8.66796875 C-7.70449219 8.77753906 -8.34257813 8.88710937 -9 9 C-9 8.34 -9 7.68 -9 7 C-7.02 6.67 -5.04 6.34 -3 6 C-3 5.34 -3 4.68 -3 4 C-2.34 3.67 -1.68 3.34 -1 3 C-0.67 2.01 -0.34 1.02 0 0 Z " fill="#EBC4C2" transform="translate(81,73)"/>
<path d="M0 0 C0.33 0 0.66 0 1 0 C1 5.61 1 11.22 1 17 C-0.32 16.67 -1.64 16.34 -3 16 C-3 15.34 -3 14.68 -3 14 C-2.01 14 -1.02 14 0 14 C0 9.38 0 4.76 0 0 Z " fill="#AF4063" transform="translate(21,64)"/>
<path d="M0 0 C0.66 0 1.32 0 2 0 C2.05422947 1.4370809 2.09289723 2.87475462 2.125 4.3125 C2.14820313 5.11300781 2.17140625 5.91351563 2.1953125 6.73828125 C2 9 2 9 0 12 C-0.19573608 10.56359829 -0.38127816 9.12580496 -0.5625 7.6875 C-0.66691406 6.88699219 -0.77132812 6.08648437 -0.87890625 5.26171875 C-1 3 -1 3 0 0 Z " fill="#F58CB3" transform="translate(54,51)"/>
<path d="M0 0 C0.66 0 1.32 0 2 0 C2.33 3.3 2.66 6.6 3 10 C1.68 9.67 0.36 9.34 -1 9 C-1.33 8.34 -1.66 7.68 -2 7 C-1.01 7 -0.02 7 1 7 C0.67 6.67 0.34 6.34 0 6 C-0.04080783 4.00041636 -0.04254356 1.99954746 0 0 Z " fill="#C7BCE8" transform="translate(90,34)"/>
<path d="M0 0 C1.98 0 3.96 0 6 0 C6 1.32 6 2.64 6 4 C4.02 4 2.04 4 0 4 C0 2.68 0 1.36 0 0 Z " fill="#CB9BC1" transform="translate(86,78)"/>
<path d="M0 0 C0.66 0 1.32 0 2 0 C2 2.31 2 4.62 2 7 C0.35 7 -1.3 7 -3 7 C-2.67 5.68 -2.34 4.36 -2 3 C-1.34 3 -0.68 3 0 3 C0 2.01 0 1.02 0 0 Z " fill="#D58F99" transform="translate(49,61)"/>
<path d="M0 0 C0.99 0 1.98 0 3 0 C3 3.63 3 7.26 3 11 C2.67 11 2.34 11 2 11 C2 8.69 2 6.38 2 4 C1.34 4 0.68 4 0 4 C0 4.66 0 5.32 0 6 C-0.66 6 -1.32 6 -2 6 C-1.34 4.02 -0.68 2.04 0 0 Z " fill="#A24863" transform="translate(49,57)"/>
<path d="M0 0 C1.65 0 3.3 0 5 0 C5.33 0.66 5.66 1.32 6 2 C5.67 2.99 5.34 3.98 5 5 C3.68 5 2.36 5 1 5 C0.67 3.35 0.34 1.7 0 0 Z " fill="#E8BAE5" transform="translate(89,29)"/>
<path d="M0 0 C0.33 0 0.66 0 1 0 C1 5.28 1 10.56 1 16 C0.01 15.67 -0.98 15.34 -2 15 C-1.34 10.05 -0.68 5.1 0 0 Z " fill="#8D4448" transform="translate(31,76)"/>
<path d="M0 0 C0.33 0 0.66 0 1 0 C1.33 4.95 1.66 9.9 2 15 C1.01 15 0.02 15 -1 15 C-0.67 10.05 -0.34 5.1 0 0 Z " fill="#913356" transform="translate(9,63)"/>
<path d="M0 0 C2.97 0.33 5.94 0.66 9 1 C9 1.66 9 2.32 9 3 C9.99 3 10.98 3 12 3 C12 3.66 12 4.32 12 5 C9.33333333 4.33333333 6.66666667 3.66666667 4 3 C4 2.34 4 1.68 4 1 C2.68 0.67 1.36 0.34 0 0 Z " fill="#32478B" transform="translate(81,48)"/>
<path d="M0 0 C-0.33 0.99 -0.66 1.98 -1 3 C-6.94 3.495 -6.94 3.495 -13 4 C-8.87942631 -0.12057369 -5.65607239 -0.16160207 0 0 Z " fill="#C7507B" transform="translate(26,49)"/>
<path d="M0 0 C3.63 0.33 7.26 0.66 11 1 C11 1.66 11 2.32 11 3 C7.37 2.67 3.74 2.34 0 2 C0 1.34 0 0.68 0 0 Z " fill="#3E79CE" transform="translate(76,45)"/>
<path d="M0 0 C0.33 0 0.66 0 1 0 C1.66 3.96 2.32 7.92 3 12 C1.68 11.34 0.36 10.68 -1 10 C-0.67 6.7 -0.34 3.4 0 0 Z " fill="#3A7DE3" transform="translate(41,26)"/>
<path d="M0 0 C0.66 0 1.32 0 2 0 C2 0.99 2 1.98 2 3 C2.99 3 3.98 3 5 3 C5 4.98 5 6.96 5 9 C4.01 8.67 3.02 8.34 2 8 C2 6.68 2 5.36 2 4 C1.34 4 0.68 4 0 4 C0 2.68 0 1.36 0 0 Z " fill="#8B3B50" transform="translate(57,68)"/>
<path d="M0 0 C0.66 0 1.32 0 2 0 C3.4783226 2.95664519 3.06032783 5.74229737 3 9 C2.67 8.01 2.34 7.02 2 6 C1.01 5.67 0.02 5.34 -1 5 C-0.67 3.35 -0.34 1.7 0 0 Z " fill="#4DA2F7" transform="translate(110,56)"/>
<path d="M0 0 C0.66 0 1.32 0 2 0 C2 0.99 2 1.98 2 3 C3.32 2.67 4.64 2.34 6 2 C5.01 3.485 5.01 3.485 4 5 C3.34 5 2.68 5 2 5 C2 5.66 2 6.32 2 7 C1.34 7 0.68 7 0 7 C0 4.69 0 2.38 0 0 Z " fill="#633F54" transform="translate(25,102)"/>
<path d="M0 0 C2.475 0.495 2.475 0.495 5 1 C5.33 2.65 5.66 4.3 6 6 C3.5625 5.25 3.5625 5.25 1 4 C0.1875 1.875 0.1875 1.875 0 0 Z " fill="#FA97BD" transform="translate(92,57)"/>
<path d="M0 0 C0.99 0 1.98 0 3 0 C3 0.66 3 1.32 3 2 C5.31 2.33 7.62 2.66 10 3 C9.01 4.485 9.01 4.485 8 6 C7.01 5.67 6.02 5.34 5 5 C5 4.34 5 3.68 5 3 C4.360625 2.87625 3.72125 2.7525 3.0625 2.625 C2.381875 2.41875 1.70125 2.2125 1 2 C0.67 1.34 0.34 0.68 0 0 Z " fill="#66B4E5" transform="translate(82,18)"/>
<path d="M0 0 C1.98 0.99 3.96 1.98 6 3 C4.68 3.33 3.36 3.66 2 4 C1.67 5.65 1.34 7.3 1 9 C0.67 9 0.34 9 0 9 C0 6.03 0 3.06 0 0 Z " fill="#7BB5ED" transform="translate(81,18)"/>
<path d="M0 0 C0 0.99 0 1.98 0 3 C-3.3 2.67 -6.6 2.34 -10 2 C-10 1.67 -10 1.34 -10 1 C-6.59437148 0.22157062 -3.49234244 -0.09978121 0 0 Z " fill="#BE9D9E" transform="translate(91,109)"/>
<path d="M0 0 C1.32 0 2.64 0 4 0 C4.33 1.65 4.66 3.3 5 5 C4.34 5 3.68 5 3 5 C2.67 5.99 2.34 6.98 2 8 C1.855625 7.05125 1.71125 6.1025 1.5625 5.125 C1.17064601 2.1065506 1.17064601 2.1065506 0 0 Z " fill="#BC7299" transform="translate(89,83)"/>
<path d="M0 0 C0.99 0 1.98 0 3 0 C4.75 2.375 4.75 2.375 6 5 C5.67 5.66 5.34 6.32 5 7 C3.0625 6.3125 3.0625 6.3125 1 5 C0.25 2.375 0.25 2.375 0 0 Z " fill="#E7A19B" transform="translate(87,60)"/>
<path d="M0 0 C1.32 0.33 2.64 0.66 4 1 C4.33 2.98 4.66 4.96 5 7 C4.34 7 3.68 7 3 7 C3 6.34 3 5.68 3 5 C2.01 4.67 1.02 4.34 0 4 C0 2.68 0 1.36 0 0 Z " fill="#9C3D58" transform="translate(85,53)"/>
<path d="M0 0 C1.32 0.33 2.64 0.66 4 1 C4 2.32 4 3.64 4 5 C2.68 5 1.36 5 0 5 C0 3.35 0 1.7 0 0 Z " fill="#F899C2" transform="translate(74,53)"/>
<path d="M0 0 C0.99 0 1.98 0 3 0 C3 2.97 3 5.94 3 9 C2.01 9.495 2.01 9.495 1 10 C0.67 6.7 0.34 3.4 0 0 Z " fill="#366DE5" transform="translate(12,28)"/>
<path d="M0 0 C0.66 1.32 1.32 2.64 2 4 C1.01 4.495 1.01 4.495 0 5 C-2.625 4.0625 -2.625 4.0625 -5 3 C-5 2.34 -5 1.68 -5 1 C-3.35 0.67 -1.7 0.34 0 0 Z " fill="#4E92EB" transform="translate(20,17)"/>
<path d="M0 0 C2.97 0.495 2.97 0.495 6 1 C5 4 5 4 2.9375 5.1875 C2.298125 5.455625 1.65875 5.72375 1 6 C0.4465236 3.92446352 0 2.15634036 0 0 Z " fill="#DCADA9" transform="translate(34,102)"/>
<path d="M0 0 C2.35171131 0.59861742 4.6859378 1.26924352 7 2 C7.33 2.66 7.66 3.32 8 4 C5.69 4 3.38 4 1 4 C0.67 2.68 0.34 1.36 0 0 Z " fill="#F4D7CC" transform="translate(59,78)"/>
<path d="M0 0 C0.433125 0.66 0.86625 1.32 1.3125 2 C2.1478125 2.99 2.1478125 2.99 3 4 C3.99 4 4.98 4 6 4 C6 5.32 6 6.64 6 8 C3.5625 7.375 3.5625 7.375 1 6 C0.1875 2.875 0.1875 2.875 0 0 Z " fill="#A55563" transform="translate(53,68)"/>
<path d="M0 0 C0.99 0.33 1.98 0.66 3 1 C4.1875 3.5625 4.1875 3.5625 5 6 C4.34 6.66 3.68 7.32 3 8 C0 3.375 0 3.375 0 0 Z " fill="#B75566" transform="translate(90,60)"/>
<path d="M0 0 C2 2 2 2 3 5 C5.00016466 6.20882096 5.00016466 6.20882096 7 7 C4.69 7 2.38 7 0 7 C0 4.69 0 2.38 0 0 Z " fill="#539FF4" transform="translate(87,42)"/>
<path d="M0 0 C0.33 0.66 0.66 1.32 1 2 C1.66 2 2.32 2 3 2 C3.33 4.31 3.66 6.62 4 9 C3.67 8.01 3.34 7.02 3 6 C2.34 6 1.68 6 1 6 C1 5.01 1 4.02 1 3 C0.34 3 -0.32 3 -1 3 C-0.67 2.01 -0.34 1.02 0 0 Z " fill="#8FD3F6" transform="translate(109,36)"/>
<path d="M0 0 C2.475 0.495 2.475 0.495 5 1 C4.67 1.99 4.34 2.98 4 4 C2.68 3.67 1.36 3.34 0 3 C0 2.01 0 1.02 0 0 Z " fill="#FCC2BA" transform="translate(47,90)"/>
<path d="M0 0 C2.64 0 5.28 0 8 0 C7.67 1.32 7.34 2.64 7 4 C6.34 3.67 5.68 3.34 5 3 C5 2.34 5 1.68 5 1 C3.35 1.33 1.7 1.66 0 2 C0 1.34 0 0.68 0 0 Z " fill="#FCCDCD" transform="translate(44,68)"/>
<path d="M0 0 C0.99 0.99 1.98 1.98 3 3 C2.34 4.32 1.68 5.64 1 7 C0.34 6.34 -0.32 5.68 -1 5 C-0.625 2.375 -0.625 2.375 0 0 Z " fill="#EF81AA" transform="translate(101,61)"/>
<path d="M0 0 C2.475 0.495 2.475 0.495 5 1 C5.33 1.99 5.66 2.98 6 4 C4.02 4 2.04 4 0 4 C0 2.68 0 1.36 0 0 Z " fill="#F192B8" transform="translate(79,54)"/>
</svg>
