<?xml version="1.0" encoding="UTF-8"?>
<svg version="1.1" xmlns="http://www.w3.org/2000/svg" width="130" height="139">
<path d="M0 0 C0.69738281 0.00902344 1.39476562 0.01804687 2.11328125 0.02734375 C3.82566958 0.05080112 5.53788004 0.08666896 7.25 0.125 C7.25 0.785 7.25 1.445 7.25 2.125 C7.806875 2.186875 8.36375 2.24875 8.9375 2.3125 C12.89865392 3.70425678 15.30667116 6.26163439 17.19921875 10 C19.65242071 16.50996033 19.94095315 23.2300582 20.25 30.125 C21.9 30.125 23.55 30.125 25.25 30.125 C25.29898438 29.32835938 25.34796875 28.53171875 25.3984375 27.7109375 C26.34347279 14.31750629 26.34347279 14.31750629 30.75 9.25 C33.25 7.125 33.25 7.125 35.25 7.125 C35.25 6.465 35.25 5.805 35.25 5.125 C50.03132118 4.386959 50.03132118 4.386959 56.25 9.125 C56.25 10.115 56.25 11.105 56.25 12.125 C56.91 12.125 57.57 12.125 58.25 12.125 C61.49183886 20.02698222 60.29983541 27.85754615 59.25 36.125 C59.8275 36.46273437 60.405 36.80046875 61 37.1484375 C61.7425 37.59445313 62.485 38.04046875 63.25 38.5 C63.9925 38.94085938 64.735 39.38171875 65.5 39.8359375 C66.0775 40.26132812 66.655 40.68671875 67.25 41.125 C67.25 41.785 67.25 42.445 67.25 43.125 C68.57 43.785 69.89 44.445 71.25 45.125 C71.25 45.785 71.25 46.445 71.25 47.125 C72.24 47.125 73.23 47.125 74.25 47.125 C75.75 49.0625 75.75 49.0625 77.25 52.125 C77.53230469 52.69863281 77.81460938 53.27226563 78.10546875 53.86328125 C81.94739753 63.15245177 81.19086262 75.42068688 79.25 85.125 C77.1875 86.5625 77.1875 86.5625 75.25 87.125 C75.25 89.435 75.25 91.745 75.25 94.125 C75.91 94.125 76.57 94.125 77.25 94.125 C76.755 95.61 76.755 95.61 76.25 97.125 C74.27 96.63 74.27 96.63 72.25 96.125 C70.89908472 98.82683055 70.91141942 101.24308206 70.6875 104.25 C70.56181641 105.89355469 70.56181641 105.89355469 70.43359375 107.5703125 C70.37300781 108.41335937 70.31242187 109.25640625 70.25 110.125 C69.59 110.125 68.93 110.125 68.25 110.125 C68.188125 110.99125 68.12625 111.8575 68.0625 112.75 C67.07303466 116.86008678 65.44663555 119.44346212 62.25 122.125 C55.04325707 126.25470663 47.32690051 128.37525455 39.03125 128.390625 C38.36967896 128.39253845 37.70810791 128.3944519 37.02648926 128.39642334 C35.63826107 128.39777447 34.25001977 128.39415358 32.86181641 128.38574219 C30.75524099 128.37502666 28.64951813 128.38567351 26.54296875 128.3984375 C25.18489398 128.39711571 23.82681973 128.39455293 22.46875 128.390625 C20.6424707 128.38724121 20.6424707 128.38724121 18.77929688 128.38378906 C15.02903329 128.10879741 11.82412021 127.26658141 8.25 126.125 C6.91869885 125.78364073 5.58641852 125.44574044 4.25 125.125 C4.25 124.465 4.25 123.805 4.25 123.125 C3.26 123.125 2.27 123.125 1.25 123.125 C0.59 124.445 -0.07 125.765 -0.75 127.125 C-2.235 126.63 -2.235 126.63 -3.75 126.125 C-4.08 124.145 -4.41 122.165 -4.75 120.125 C-5.45125 120.2075 -6.1525 120.29 -6.875 120.375 C-10.68948359 120.04330577 -12.67669367 118.32976324 -15.75 116.125 C-16.74 115.795 -17.73 115.465 -18.75 115.125 C-18.75 114.465 -18.75 113.805 -18.75 113.125 C-19.53375 112.939375 -20.3175 112.75375 -21.125 112.5625 C-23.75 111.125 -23.75 111.125 -24.71875 107.90625 C-25.0590625 106.6584375 -25.399375 105.410625 -25.75 104.125 C-26.7810829 102.14029897 -27.82329558 100.16135105 -28.875 98.1875 C-31.84691534 91.398713 -32.34660229 85.31579191 -32.375 77.9375 C-32.38547363 76.94049072 -32.39594727 75.94348145 -32.40673828 74.91625977 C-32.27189691 67.68434715 -30.59063475 61.75504476 -27.75 55.125 C-27.09 55.125 -26.43 55.125 -25.75 55.125 C-25.75 53.805 -25.75 52.485 -25.75 51.125 C-25.09 51.125 -24.43 51.125 -23.75 51.125 C-23.62625 50.2896875 -23.62625 50.2896875 -23.5 49.4375 C-22.51104459 46.38822081 -20.90242534 44.47310037 -18.75 42.125 C-18.09 42.125 -17.43 42.125 -16.75 42.125 C-16.09 40.805 -15.43 39.485 -14.75 38.125 C-14.09 38.125 -13.43 38.125 -12.75 38.125 C-13.224375 37.25875 -13.69875 36.3925 -14.1875 35.5 C-16.75857624 29.94647532 -16.90689069 24.62926449 -16.9375 18.5625 C-16.95167969 17.28246094 -16.96585938 16.00242187 -16.98046875 14.68359375 C-16.65124082 9.60009136 -15.15067843 5.9180644 -11.75 2.125 C-8.07036441 -0.39030645 -4.2845578 -0.10529159 0 0 Z " fill="#394E5B" transform="translate(40.75,5.875)"/>
<path d="M0 0 C4.62 0 9.24 0 14 0 C14 0.66 14 1.32 14 2 C16.475 2.495 16.475 2.495 19 3 C19 3.66 19 4.32 19 5 C19.66 5 20.32 5 21 5 C21 5.99 21 6.98 21 8 C21.66 8 22.32 8 23 8 C23.33 7.01 23.66 6.02 24 5 C26.86501253 12.34937998 27.64775091 19.14120137 28 27 C29.65 27 31.3 27 33 27 C33.04898438 26.20335938 33.09796875 25.40671875 33.1484375 24.5859375 C34.09347279 11.19250629 34.09347279 11.19250629 38.5 6.125 C41 4 41 4 43 4 C43 3.34 43 2.68 43 2 C57.78132118 1.261959 57.78132118 1.261959 64 6 C64 6.99 64 7.98 64 9 C64.66 9 65.32 9 66 9 C69.24183886 16.90198222 68.04983541 24.73254615 67 33 C67.5775 33.33773437 68.155 33.67546875 68.75 34.0234375 C69.4925 34.46945313 70.235 34.91546875 71 35.375 C71.7425 35.81585938 72.485 36.25671875 73.25 36.7109375 C73.8275 37.13632812 74.405 37.56171875 75 38 C75 38.66 75 39.32 75 40 C76.32 40.66 77.64 41.32 79 42 C79 42.66 79 43.32 79 44 C79.99 44 80.98 44 82 44 C83.5 45.9375 83.5 45.9375 85 49 C85.28230469 49.57363281 85.56460938 50.14726563 85.85546875 50.73828125 C89.69739753 60.02745177 88.94086262 72.29568688 87 82 C84.9375 83.4375 84.9375 83.4375 83 84 C83 86.31 83 88.62 83 91 C82.67 91 82.34 91 82 91 C81.08342019 85.61509359 80.88861841 80.45769811 81 75 C80.34 75 79.68 75 79 75 C79 74.01 79 73.02 79 72 C77.68 72 76.36 72 75 72 C75 71.34 75 70.68 75 70 C73.96875 69.87625 72.9375 69.7525 71.875 69.625 C68.37883154 69.06110186 65.31602373 68.21317941 62 67 C62 66.34 62 65.68 62 65 C37.745 64.505 37.745 64.505 13 64 C13 64.66 13 65.32 13 66 C9.7 66 6.4 66 3 66 C3 66.66 3 67.32 3 68 C1.35 68 -0.3 68 -2 68 C-2 68.66 -2 69.32 -2 70 C-3.32 70 -4.64 70 -6 70 C-6 70.66 -6 71.32 -6 72 C-7.98 72 -9.96 72 -12 72 C-12 71.34 -12 70.68 -12 70 C-13.98 70 -15.96 70 -18 70 C-18.18262291 64.70393571 -17.81674579 61.02276777 -16 56 C-15.62468554 53.67305036 -15.28082798 51.34023315 -15 49 C-14.34 49 -13.68 49 -13 49 C-12.67 47.35 -12.34 45.7 -12 44 C-11.34 44 -10.68 44 -10 44 C-10 43.34 -10 42.68 -10 42 C-9.34 42 -8.68 42 -8 42 C-8 41.34 -8 40.68 -8 40 C-7.34 40 -6.68 40 -6 40 C-5.67 39.01 -5.34 38.02 -5 37 C-2.9375 36.3125 -2.9375 36.3125 -1 36 C-1 35.34 -1 34.68 -1 34 C-0.01 34 0.98 34 2 34 C2 31.36 2 28.72 2 26 C1.34 26 0.68 26 0 26 C-3.90281671 18.19436658 -3.27891493 10.51207047 -3 2 C-2.01 2 -1.02 2 0 2 C0 1.34 0 0.68 0 0 Z " fill="#F0F2F7" transform="translate(33,9)"/>
<path d="M0 0 C0.495 0.99 0.495 0.99 1 2 C1.66 2 2.32 2 3 2 C3 2.99 3 3.98 3 5 C3.66 5 4.32 5 5 5 C5 5.99 5 6.98 5 8 C0.545 8.495 0.545 8.495 -4 9 C-4 9.66 -4 10.32 -4 11 C-1.03 11 1.94 11 5 11 C5.33 10.34 5.66 9.68 6 9 C7.32 9.66 8.64 10.32 10 11 C10 11.66 10 12.32 10 13 C10.66 13 11.32 13 12 13 C12 13.66 12 14.32 12 15 C12.99 15 13.98 15 15 15 C15 14.34 15 13.68 15 13 C15.66 13 16.32 13 17 13 C17 13.66 17 14.32 17 15 C17.66 15 18.32 15 19 15 C19.495 15.99 19.495 15.99 20 17 C22.52733235 17.65555119 22.52733235 17.65555119 25 18 C25 17.34 25 16.68 25 16 C28.465 15.505 28.465 15.505 32 15 C32 14.34 32 13.68 32 13 C32.66 13 33.32 13 34 13 C34 12.34 34 11.68 34 11 C38.01861962 9.66046013 41.80338135 9.27049433 46 10 C47.9375 12.4375 47.9375 12.4375 49 15 C49.99 15.495 49.99 15.495 51 16 C51.4140625 18.06640625 51.4140625 18.06640625 51.625 20.5625 C51.73714844 21.80193359 51.73714844 21.80193359 51.8515625 23.06640625 C51.92503906 24.02353516 51.92503906 24.02353516 52 25 C52.99 24.67 53.98 24.34 55 24 C55.33 22.35 55.66 20.7 56 19 C56.33 19 56.66 19 57 19 C57 22.96 57 26.92 57 31 C56.34 31 55.68 31 55 31 C54.9071875 32.299375 54.9071875 32.299375 54.8125 33.625 C53.82303466 37.73508678 52.19663555 40.31846212 49 43 C41.79325707 47.12970663 34.07690051 49.25025455 25.78125 49.265625 C25.11967896 49.26753845 24.45810791 49.2694519 23.77648926 49.27142334 C22.38826107 49.27277447 21.00001977 49.26915358 19.61181641 49.26074219 C17.50524099 49.25002666 15.39951813 49.26067351 13.29296875 49.2734375 C11.93489398 49.27211571 10.57681973 49.26955293 9.21875 49.265625 C7.3924707 49.26224121 7.3924707 49.26224121 5.52929688 49.25878906 C1.77903329 48.98379741 -1.42587979 48.14158141 -5 47 C-6.33130115 46.65864073 -7.66358148 46.32074044 -9 46 C-9 45.34 -9 44.68 -9 44 C-9.99 44 -10.98 44 -12 44 C-12.66 45.32 -13.32 46.64 -14 48 C-15.485 47.505 -15.485 47.505 -17 47 C-17.33 45.02 -17.66 43.04 -18 41 C-18.70125 41.0825 -19.4025 41.165 -20.125 41.25 C-23.93948359 40.91830577 -25.92669367 39.20476324 -29 37 C-29.99 36.67 -30.98 36.34 -32 36 C-32 35.34 -32 34.68 -32 34 C-33.65 33.34 -35.3 32.68 -37 32 C-37.33 29.69 -37.66 27.38 -38 25 C-37.34 25 -36.68 25 -36 25 C-35.67 22.69 -35.34 20.38 -35 18 C-34.34 18 -33.68 18 -33 18 C-33 17.34 -33 16.68 -33 16 C-31.35 16 -29.7 16 -28 16 C-28 16.66 -28 17.32 -28 18 C-27.34 18 -26.68 18 -26 18 C-26 19.32 -26 20.64 -26 22 C-25.34 22 -24.68 22 -24 22 C-23.67 23.65 -23.34 25.3 -23 27 C-21.68 27.33 -20.36 27.66 -19 28 C-19.04125 26.906875 -19.0825 25.81375 -19.125 24.6875 C-19 21 -19 21 -17 18 C-16.01 18 -15.02 18 -14 18 C-14 17.34 -14 16.68 -14 16 C-12.625 14.375 -12.625 14.375 -11 13 C-10.34 13 -9.68 13 -9 13 C-9 12.34 -9 11.68 -9 11 C-8.38125 10.938125 -7.7625 10.87625 -7.125 10.8125 C-4.75620163 10.18108908 -4.75620163 10.18108908 -3.8125 7.625 C-3.544375 6.75875 -3.27625 5.8925 -3 5 C-2.67 4.01 -2.34 3.02 -2 2 C-1.34 2 -0.68 2 0 2 C0 1.34 0 0.68 0 0 Z " fill="#F9CBC2" transform="translate(54,85)"/>
<path d="M0 0 C14.78132118 -0.738041 14.78132118 -0.738041 21 4 C21 4.99 21 5.98 21 7 C21.66 7 22.32 7 23 7 C26.24183886 14.90198222 25.04983541 22.73254615 24 31 C24.5775 31.33773437 25.155 31.67546875 25.75 32.0234375 C26.86375 32.69246094 26.86375 32.69246094 28 33.375 C28.7425 33.81585938 29.485 34.25671875 30.25 34.7109375 C30.8275 35.13632812 31.405 35.56171875 32 36 C32 36.66 32 37.32 32 38 C33.32 38.66 34.64 39.32 36 40 C36 40.66 36 41.32 36 42 C36.99 42 37.98 42 39 42 C40.5 43.9375 40.5 43.9375 42 47 C42.28230469 47.57363281 42.56460938 48.14726563 42.85546875 48.73828125 C46.69739753 58.02745177 45.94086262 70.29568688 44 80 C41.9375 81.4375 41.9375 81.4375 40 82 C40 84.31 40 86.62 40 89 C39.67 89 39.34 89 39 89 C38.08342019 83.61509359 37.88861841 78.45769811 38 73 C37.34 73 36.68 73 36 73 C36 72.01 36 71.02 36 70 C34.68 70 33.36 70 32 70 C32 69.34 32 68.68 32 68 C30.96875 67.87625 29.9375 67.7525 28.875 67.625 C25.37883154 67.06110186 22.31602373 66.21317941 19 65 C19 64.34 19 63.68 19 63 C-0.305 62.505 -0.305 62.505 -20 62 C-15.50112567 59.75056283 -15.50112567 59.75056283 -11.82983398 59.8046875 C-11.01896835 59.81129395 -10.20810272 59.81790039 -9.37266541 59.82470703 C-8.07251244 59.84960205 -8.07251244 59.84960205 -6.74609375 59.875 C-5.84883072 59.88257324 -4.95156769 59.89014648 -4.02711487 59.89794922 C-1.16371394 59.92236086 1.69928235 59.95962221 4.5625 60 C8.33462454 60.05309735 12.10654941 60.09312588 15.87890625 60.125 C17.18209557 60.14989502 17.18209557 60.14989502 18.51161194 60.17529297 C19.72318214 60.18520264 19.72318214 60.18520264 20.95922852 60.1953125 C22.02367943 60.21102295 22.02367943 60.21102295 23.1096344 60.22705078 C25.33260633 60.1043587 25.33260633 60.1043587 28 58 C28 58.66 28 59.32 28 60 C28.66 60 29.32 60 30 60 C30 60.66 30 61.32 30 62 C30.99 62 31.98 62 33 62 C33.33 61.01 33.66 60.02 34 59 C35.65 59.33 37.3 59.66 39 60 C39.125 66.625 39.125 66.625 38 70 C38.66 70 39.32 70 40 70 C40 70.66 40 71.32 40 72 C40.66 72 41.32 72 42 72 C41.67 65.73 41.34 59.46 41 53 C40.34 53 39.68 53 39 53 C38.79697266 52.06027344 38.79697266 52.06027344 38.58984375 51.1015625 C37.51771332 46.29097767 37.51771332 46.29097767 34.2421875 42.95703125 C32.10496935 42.33633778 32.10496935 42.33633778 29 42 C28.90912109 40.86111328 28.90912109 40.86111328 28.81640625 39.69921875 C28.2332613 36.85229998 28.2332613 36.85229998 25.83984375 35.26953125 C13.70172356 29.1759662 0.99079777 28.88120364 -12.32470703 28.34057617 C-17.89851305 28.10148695 -17.89851305 28.10148695 -19 27 C-19.15655027 25.51361008 -19.25066943 24.02050873 -19.31640625 22.52734375 C-19.35830078 21.62822266 -19.40019531 20.72910156 -19.44335938 19.80273438 C-19.48267578 18.85720703 -19.52199219 17.91167969 -19.5625 16.9375 C-19.60568359 15.98810547 -19.64886719 15.03871094 -19.69335938 14.06054688 C-19.79979276 11.70718647 -19.90181008 9.35371646 -20 7 C-19.34 7 -18.68 7 -18 7 C-16.15433468 10.98393611 -15.63977171 14.44376683 -15.375 18.8125 C-15.30023438 19.97394531 -15.22546875 21.13539062 -15.1484375 22.33203125 C-15.09945312 23.21246094 -15.05046875 24.09289062 -15 25 C-13.35 25 -11.7 25 -10 25 C-9.92652344 23.80503906 -9.92652344 23.80503906 -9.8515625 22.5859375 C-8.90652721 9.19250629 -8.90652721 9.19250629 -4.5 4.125 C-2 2 -2 2 0 2 C0 1.34 0 0.68 0 0 Z " fill="#EEF1F7" transform="translate(76,11)"/>
<path d="M0 0 C0.33 0.66 0.66 1.32 1 2 C1.66 2 2.32 2 3 2 C3 2.99 3 3.98 3 5 C3.66 5 4.32 5 5 5 C5 5.99 5 6.98 5 8 C0.545 8.495 0.545 8.495 -4 9 C-4 9.66 -4 10.32 -4 11 C-1.03 11 1.94 11 5 11 C5.33 10.34 5.66 9.68 6 9 C7.32 9.66 8.64 10.32 10 11 C10 11.66 10 12.32 10 13 C10.66 13 11.32 13 12 13 C12 13.66 12 14.32 12 15 C12.99 15 13.98 15 15 15 C15 14.34 15 13.68 15 13 C15.66 13 16.32 13 17 13 C17 13.66 17 14.32 17 15 C17.66 15 18.32 15 19 15 C19.495 15.99 19.495 15.99 20 17 C22.52733235 17.65555119 22.52733235 17.65555119 25 18 C25 17.34 25 16.68 25 16 C28.3 15.67 31.6 15.34 35 15 C35 20.61 35 26.22 35 32 C38.63 32.66 42.26 33.32 46 34 C46 37.30941204 45.59660706 39.11090151 44 42 C41.375 42.8125 41.375 42.8125 39 43 C39 43.66 39 44.32 39 45 C32.1881201 46.25218381 25.40947968 46.18378123 18.5 46.1875 C16.70369141 46.20586914 16.70369141 46.20586914 14.87109375 46.22460938 C8.86512348 46.23458607 3.65356218 46.10345769 -2 44 C-2.97615085 40.89406547 -3.10408834 39.31226501 -2.0625 36.1875 C0 34 0 34 1.984375 33.6875 C3.99228714 33.6875 5.99879927 33.83596715 8 34 C8 31.69 8 29.38 8 27 C8.66 27 9.32 27 10 27 C9.67 23.37 9.34 19.74 9 16 C4.38 16 -0.24 16 -5 16 C-5 16.66 -5 17.32 -5 18 C-5.66 18 -6.32 18 -7 18 C-6.67 18.66 -6.34 19.32 -6 20 C-5.01 20 -4.02 20 -3 20 C-2.67 22.64 -2.34 25.28 -2 28 C-3.32 28 -4.64 28 -6 28 C-6 28.66 -6 29.32 -6 30 C-6.99 30 -7.98 30 -9 30 C-9 30.66 -9 31.32 -9 32 C-9.99 32 -10.98 32 -12 32 C-12 31.34 -12 30.68 -12 30 C-12.66 30 -13.32 30 -14 30 C-16.67927341 25.98108988 -16.15601248 23.75838077 -16 19 C-15.34 19 -14.68 19 -14 19 C-14 18.01 -14 17.02 -14 16 C-12.625 14.3125 -12.625 14.3125 -11 13 C-10.34 13 -9.68 13 -9 13 C-9 12.34 -9 11.68 -9 11 C-8.38125 10.938125 -7.7625 10.87625 -7.125 10.8125 C-4.75620163 10.18108908 -4.75620163 10.18108908 -3.8125 7.625 C-3.544375 6.75875 -3.27625 5.8925 -3 5 C-2.67 4.01 -2.34 3.02 -2 2 C-1.34 2 -0.68 2 0 2 C0 1.34 0 0.68 0 0 Z " fill="#F9E3D9" transform="translate(54,85)"/>
<path d="M0 0 C1.60488281 0.00483398 1.60488281 0.00483398 3.2421875 0.00976562 C4.35335937 0.01814453 5.46453125 0.02652344 6.609375 0.03515625 C8.29933594 0.04192383 8.29933594 0.04192383 10.0234375 0.04882812 C12.80213717 0.06060228 15.58072909 0.07704785 18.359375 0.09765625 C18.359375 0.75765625 18.359375 1.41765625 18.359375 2.09765625 C18.95105469 2.08605469 19.54273438 2.07445313 20.15234375 2.0625 C24.36169285 2.01443239 28.2516083 2.03758742 32.359375 3.09765625 C32.689375 2.43765625 33.019375 1.77765625 33.359375 1.09765625 C35.669375 1.75765625 37.979375 2.41765625 40.359375 3.09765625 C40.359375 3.75765625 40.359375 4.41765625 40.359375 5.09765625 C41.679375 5.09765625 42.999375 5.09765625 44.359375 5.09765625 C44.359375 6.08765625 44.359375 7.07765625 44.359375 8.09765625 C45.019375 8.09765625 45.679375 8.09765625 46.359375 8.09765625 C46.854375 16.01765625 46.854375 16.01765625 47.359375 24.09765625 C48.349375 24.09765625 49.339375 24.09765625 50.359375 24.09765625 C49.864375 25.58265625 49.864375 25.58265625 49.359375 27.09765625 C48.039375 26.76765625 46.719375 26.43765625 45.359375 26.09765625 C45.029375 26.75765625 44.699375 27.41765625 44.359375 28.09765625 C43.699375 28.09765625 43.039375 28.09765625 42.359375 28.09765625 C42.276875 28.88140625 42.194375 29.66515625 42.109375 30.47265625 C41.861875 31.33890625 41.614375 32.20515625 41.359375 33.09765625 C40.039375 33.75765625 38.719375 34.41765625 37.359375 35.09765625 C37.359375 31.79765625 37.359375 28.49765625 37.359375 25.09765625 C36.369375 24.76765625 35.379375 24.43765625 34.359375 24.09765625 C33.699375 22.77765625 33.039375 21.45765625 32.359375 20.09765625 C28.399375 20.09765625 24.439375 20.09765625 20.359375 20.09765625 C20.359375 20.75765625 20.359375 21.41765625 20.359375 22.09765625 C19.699375 22.09765625 19.039375 22.09765625 18.359375 22.09765625 C18.359375 22.75765625 18.359375 23.41765625 18.359375 24.09765625 C16.049375 24.42765625 13.739375 24.75765625 11.359375 25.09765625 C11.359375 25.75765625 11.359375 26.41765625 11.359375 27.09765625 C9.709375 27.09765625 8.059375 27.09765625 6.359375 27.09765625 C6.029375 26.10765625 5.699375 25.11765625 5.359375 24.09765625 C4.699375 24.09765625 4.039375 24.09765625 3.359375 24.09765625 C3.359375 23.43765625 3.359375 22.77765625 3.359375 22.09765625 C2.699375 22.09765625 2.039375 22.09765625 1.359375 22.09765625 C1.359375 22.75765625 1.359375 23.41765625 1.359375 24.09765625 C0.369375 24.09765625 -0.620625 24.09765625 -1.640625 24.09765625 C-1.640625 23.43765625 -1.640625 22.77765625 -1.640625 22.09765625 C-2.300625 22.09765625 -2.960625 22.09765625 -3.640625 22.09765625 C-3.640625 21.43765625 -3.640625 20.77765625 -3.640625 20.09765625 C-5.58665774 19.50695611 -5.58665774 19.50695611 -7.640625 19.09765625 C-7.970625 19.42765625 -8.300625 19.75765625 -8.640625 20.09765625 C-10.15990538 20.16945589 -11.68229982 20.18157632 -13.203125 20.16015625 C-14.02941406 20.15113281 -14.85570312 20.14210938 -15.70703125 20.1328125 C-16.66416016 20.11541016 -16.66416016 20.11541016 -17.640625 20.09765625 C-17.640625 19.43765625 -17.640625 18.77765625 -17.640625 18.09765625 C-14.670625 17.76765625 -11.700625 17.43765625 -8.640625 17.09765625 C-8.640625 16.43765625 -8.640625 15.77765625 -8.640625 15.09765625 C-7.980625 15.09765625 -7.320625 15.09765625 -6.640625 15.09765625 C-6.640625 14.43765625 -6.640625 13.77765625 -6.640625 13.09765625 C-7.300625 13.09765625 -7.960625 13.09765625 -8.640625 13.09765625 C-9.90300231 10.57290163 -9.73918904 8.78565159 -9.703125 5.97265625 C-9.69410156 5.06257813 -9.68507813 4.1525 -9.67578125 3.21484375 C-9.66417969 2.51617187 -9.65257812 1.8175 -9.640625 1.09765625 C-6.36436125 0.11545685 -3.41274381 -0.01815289 0 0 Z " fill="#495763" transform="translate(67.640625,75.90234375)"/>
<path d="M0 0 C0.69738281 0.00902344 1.39476562 0.01804687 2.11328125 0.02734375 C3.82566958 0.05080112 5.53788004 0.08666896 7.25 0.125 C7.25 0.785 7.25 1.445 7.25 2.125 C7.8275 2.2075 8.405 2.29 9 2.375 C11.95520475 3.36006825 13.31482323 4.70602904 15.25 7.125 C15.25 8.445 15.25 9.765 15.25 11.125 C14.59 11.125 13.93 11.125 13.25 11.125 C13.25 10.135 13.25 9.145 13.25 8.125 C12.59 8.125 11.93 8.125 11.25 8.125 C11.25 7.465 11.25 6.805 11.25 6.125 C8.775 5.63 8.775 5.63 6.25 5.125 C6.25 4.465 6.25 3.805 6.25 3.125 C1.63 3.125 -2.99 3.125 -7.75 3.125 C-7.75 3.785 -7.75 4.445 -7.75 5.125 C-8.74 5.125 -9.73 5.125 -10.75 5.125 C-10.63553728 7.68836254 -10.50880499 10.25013445 -10.375 12.8125 C-10.3440625 13.53373047 -10.313125 14.25496094 -10.28125 14.99804688 C-10.05433118 19.13931531 -9.44942826 22.29092405 -7.75 26.125 C-7.75 27.115 -7.75 28.105 -7.75 29.125 C-7.09 29.125 -6.43 29.125 -5.75 29.125 C-4.625 34.875 -4.625 34.875 -5.75 37.125 C-6.74 37.125 -7.73 37.125 -8.75 37.125 C-8.75 37.785 -8.75 38.445 -8.75 39.125 C-9.389375 39.41375 -10.02875 39.7025 -10.6875 40 C-12.90206079 40.95323451 -12.90206079 40.95323451 -13.75 43.125 C-14.41 43.125 -15.07 43.125 -15.75 43.125 C-15.75 43.785 -15.75 44.445 -15.75 45.125 C-16.41 45.125 -17.07 45.125 -17.75 45.125 C-17.75 45.785 -17.75 46.445 -17.75 47.125 C-18.41 47.125 -19.07 47.125 -19.75 47.125 C-20.245 49.6 -20.245 49.6 -20.75 52.125 C-21.41 52.125 -22.07 52.125 -22.75 52.125 C-22.688125 53.671875 -22.688125 53.671875 -22.625 55.25 C-22.74812035 59.06673083 -23.51131245 61.55466529 -24.75 65.125 C-25.18996764 67.78897991 -25.47193778 70.43706524 -25.75 73.125 C-23.77 73.125 -21.79 73.125 -19.75 73.125 C-19.75 73.785 -19.75 74.445 -19.75 75.125 C-17.77 75.125 -15.79 75.125 -13.75 75.125 C-13.75 74.465 -13.75 73.805 -13.75 73.125 C-12.43 73.125 -11.11 73.125 -9.75 73.125 C-9.75 72.465 -9.75 71.805 -9.75 71.125 C-8.1 71.125 -6.45 71.125 -4.75 71.125 C-4.75 70.465 -4.75 69.805 -4.75 69.125 C-1.45 69.125 1.85 69.125 5.25 69.125 C5.25 68.465 5.25 67.805 5.25 67.125 C8.55 67.125 11.85 67.125 15.25 67.125 C15.25 67.455 15.25 67.785 15.25 68.125 C13.27 68.125 11.29 68.125 9.25 68.125 C9.25 68.785 9.25 69.445 9.25 70.125 C7.93 70.125 6.61 70.125 5.25 70.125 C5.25 70.785 5.25 71.445 5.25 72.125 C0.795 72.62 0.795 72.62 -3.75 73.125 C-3.75 73.785 -3.75 74.445 -3.75 75.125 C-5.01839526 75.63115298 -6.28983102 76.12969099 -7.5625 76.625 C-8.27019531 76.9034375 -8.97789063 77.181875 -9.70703125 77.46875 C-11.75 78.125 -11.75 78.125 -14.75 78.125 C-15.08 79.115 -15.41 80.105 -15.75 81.125 C-16.41 81.125 -17.07 81.125 -17.75 81.125 C-17.75 81.785 -17.75 82.445 -17.75 83.125 C-19.73 83.62 -19.73 83.62 -21.75 84.125 C-21.75 84.785 -21.75 85.445 -21.75 86.125 C-22.41 86.125 -23.07 86.125 -23.75 86.125 C-24.08 88.105 -24.41 90.085 -24.75 92.125 C-25.74 92.125 -26.73 92.125 -27.75 92.125 C-27.75 93.775 -27.75 95.425 -27.75 97.125 C-32.42890719 91.22550833 -31.99686365 85.88875578 -32.0625 78.625 C-32.09150391 77.58601563 -32.12050781 76.54703125 -32.15039062 75.4765625 C-32.21139763 67.94923643 -30.7738663 62.00837578 -27.75 55.125 C-27.09 55.125 -26.43 55.125 -25.75 55.125 C-25.75 53.805 -25.75 52.485 -25.75 51.125 C-25.09 51.125 -24.43 51.125 -23.75 51.125 C-23.62625 50.2896875 -23.62625 50.2896875 -23.5 49.4375 C-22.51104459 46.38822081 -20.90242534 44.47310037 -18.75 42.125 C-18.09 42.125 -17.43 42.125 -16.75 42.125 C-16.09 40.805 -15.43 39.485 -14.75 38.125 C-14.09 38.125 -13.43 38.125 -12.75 38.125 C-13.224375 37.25875 -13.69875 36.3925 -14.1875 35.5 C-16.75857624 29.94647532 -16.90689069 24.62926449 -16.9375 18.5625 C-16.95167969 17.28246094 -16.96585938 16.00242187 -16.98046875 14.68359375 C-16.65124082 9.60009136 -15.15067843 5.9180644 -11.75 2.125 C-8.07036441 -0.39030645 -4.2845578 -0.10529159 0 0 Z " fill="#698EEB" transform="translate(40.75,5.875)"/>
<path d="M0 0 C1.125 3.75 1.125 3.75 0 6 C1.0725 6.103125 2.145 6.20625 3.25 6.3125 C6.84739269 6.97202199 8.45776191 7.45776191 11 10 C11 10.66 11 11.32 11 12 C12.32 12.66 13.64 13.32 15 14 C15 14.66 15 15.32 15 16 C15.99 16 16.98 16 18 16 C19.5 17.9375 19.5 17.9375 21 21 C21.42345703 21.86044922 21.42345703 21.86044922 21.85546875 22.73828125 C25.69739753 32.02745177 24.94086262 44.29568688 23 54 C20.9375 55.4375 20.9375 55.4375 19 56 C19 58.31 19 60.62 19 63 C18.67 63 18.34 63 18 63 C17.08342019 57.61509359 16.88861841 52.45769811 17 47 C16.34 47 15.68 47 15 47 C15 46.01 15 45.02 15 44 C13.68 44 12.36 44 11 44 C11 43.34 11 42.68 11 42 C9.96875 41.87625 8.9375 41.7525 7.875 41.625 C4.37883154 41.06110186 1.31602373 40.21317941 -2 39 C-2 38.34 -2 37.68 -2 37 C-21.305 36.505 -21.305 36.505 -41 36 C-36.50112567 33.75056283 -36.50112567 33.75056283 -32.82983398 33.8046875 C-32.01896835 33.81129395 -31.20810272 33.81790039 -30.37266541 33.82470703 C-29.07251244 33.84960205 -29.07251244 33.84960205 -27.74609375 33.875 C-26.84883072 33.88257324 -25.95156769 33.89014648 -25.02711487 33.89794922 C-22.16371394 33.92236086 -19.30071765 33.95962221 -16.4375 34 C-12.66537546 34.05309735 -8.89345059 34.09312588 -5.12109375 34.125 C-3.81790443 34.14989502 -3.81790443 34.14989502 -2.48838806 34.17529297 C-1.27681786 34.18520264 -1.27681786 34.18520264 -0.04077148 34.1953125 C1.02367943 34.21102295 1.02367943 34.21102295 2.1096344 34.22705078 C4.33260633 34.1043587 4.33260633 34.1043587 7 32 C7 32.66 7 33.32 7 34 C7.66 34 8.32 34 9 34 C9 34.66 9 35.32 9 36 C9.99 36 10.98 36 12 36 C12.33 35.01 12.66 34.02 13 33 C14.65 33.33 16.3 33.66 18 34 C18.125 40.625 18.125 40.625 17 44 C17.66 44 18.32 44 19 44 C19 44.66 19 45.32 19 46 C19.66 46 20.32 46 21 46 C20.67 39.73 20.34 33.46 20 27 C19.34 27 18.68 27 18 27 C17.79697266 26.06027344 17.79697266 26.06027344 17.58984375 25.1015625 C16.51771332 20.29097767 16.51771332 20.29097767 13.2421875 16.95703125 C11.10496935 16.33633778 11.10496935 16.33633778 8 16 C8 15.2575 8 14.515 8 13.75 C6.79334286 10.43169286 6.01007481 10.19940189 2.9375 8.6875 C1.63271056 8.10733879 0.32226452 7.53914658 -1 7 C-1 3 -1 3 0 0 Z " fill="#86A0E0" transform="translate(97,37)"/>
<path d="M0 0 C14.78132118 -0.738041 14.78132118 -0.738041 21 4 C21 4.99 21 5.98 21 7 C21.66 7 22.32 7 23 7 C25.42351711 12.90732295 26.02929235 18.91212295 24 25 C23.34 25 22.68 25 22 25 C22 20.71 22 16.42 22 12 C21.34 12 20.68 12 20 12 C19.505 9.03 19.505 9.03 19 6 C18.34 6 17.68 6 17 6 C17 5.34 17 4.68 17 4 C11.72 3.67 6.44 3.34 1 3 C1 3.66 1 4.32 1 5 C-0.32 5.33 -1.64 5.66 -3 6 C-2.67 10.95 -2.34 15.9 -2 21 C-1.34 21 -0.68 21 0 21 C0 22.98 0 24.96 0 27 C-6.27 27 -12.54 27 -19 27 C-19.33 20.4 -19.66 13.8 -20 7 C-19.34 7 -18.68 7 -18 7 C-16.15433468 10.98393611 -15.63977171 14.44376683 -15.375 18.8125 C-15.30023438 19.97394531 -15.22546875 21.13539062 -15.1484375 22.33203125 C-15.09945312 23.21246094 -15.05046875 24.09289062 -15 25 C-13.35 25 -11.7 25 -10 25 C-9.92652344 23.80503906 -9.92652344 23.80503906 -9.8515625 22.5859375 C-8.90652721 9.19250629 -8.90652721 9.19250629 -4.5 4.125 C-2 2 -2 2 0 2 C0 1.34 0 0.68 0 0 Z " fill="#89A0DF" transform="translate(76,11)"/>
<path d="M0 0 C0.66061432 -0.00095673 1.32122864 -0.00191345 2.00186157 -0.00289917 C3.39186702 -0.00357593 4.78187572 -0.00175701 6.171875 0.00244141 C8.27611559 0.00777965 10.3801411 0.0024881 12.484375 -0.00390625 C19.03466057 -0.0068193 25.43847194 0.07864659 31.9140625 1.1328125 C31.9140625 1.7928125 31.9140625 2.4528125 31.9140625 3.1328125 C33.5640625 3.1328125 35.2140625 3.1328125 36.9140625 3.1328125 C36.9140625 4.1228125 36.9140625 5.1128125 36.9140625 6.1328125 C29.9840625 5.6378125 29.9840625 5.6378125 22.9140625 5.1328125 C22.9140625 4.4728125 22.9140625 3.8128125 22.9140625 3.1328125 C13.6740625 3.4628125 4.4340625 3.7928125 -5.0859375 4.1328125 C-4.7559375 8.0928125 -4.4259375 12.0528125 -4.0859375 16.1328125 C-3.4259375 16.1328125 -2.7659375 16.1328125 -2.0859375 16.1328125 C-2.0859375 16.7928125 -2.0859375 17.4528125 -2.0859375 18.1328125 C-3.4059375 17.8028125 -4.7259375 17.4728125 -6.0859375 17.1328125 C-6.0859375 16.1428125 -6.0859375 15.1528125 -6.0859375 14.1328125 C-7.7359375 14.1328125 -9.3859375 14.1328125 -11.0859375 14.1328125 C-11.2096875 14.7309375 -11.3334375 15.3290625 -11.4609375 15.9453125 C-12.0859375 18.1328125 -12.0859375 18.1328125 -14.0859375 21.1328125 C-14.7459375 21.1328125 -15.4059375 21.1328125 -16.0859375 21.1328125 C-15.9415625 20.5965625 -15.7971875 20.0603125 -15.6484375 19.5078125 C-14.99140002 16.73365423 -14.53373802 13.94755862 -14.0859375 11.1328125 C-13.4259375 11.1328125 -12.7659375 11.1328125 -12.0859375 11.1328125 C-12.0859375 10.1428125 -12.0859375 9.1528125 -12.0859375 8.1328125 C-13.81520624 8.44474714 -15.54434794 8.75738612 -17.2734375 9.0703125 C-18.23636719 9.24433594 -19.19929688 9.41835937 -20.19140625 9.59765625 C-22.82833722 10.085186 -25.457928 10.59952355 -28.0859375 11.1328125 C-28.4159375 10.1428125 -28.7459375 9.1528125 -29.0859375 8.1328125 C-28.0959375 8.1328125 -27.1059375 8.1328125 -26.0859375 8.1328125 C-26.0859375 7.4728125 -26.0859375 6.8128125 -26.0859375 6.1328125 C-21.6309375 5.6378125 -21.6309375 5.6378125 -17.0859375 5.1328125 C-17.0859375 4.4728125 -17.0859375 3.8128125 -17.0859375 3.1328125 C-15.7659375 3.1328125 -14.4459375 3.1328125 -13.0859375 3.1328125 C-13.0859375 2.4728125 -13.0859375 1.8128125 -13.0859375 1.1328125 C-8.67074541 0.28383438 -4.49337078 0.00416659 0 0 Z " fill="#2E4356" transform="translate(63.0859375,72.8671875)"/>
<path d="M0 0 C1.96731079 -0.00628418 1.96731079 -0.00628418 3.97436523 -0.01269531 C5.38656414 -0.00456589 6.79875594 0.00489748 8.2109375 0.015625 C9.26971603 0.02027771 9.26971603 0.02027771 10.34988403 0.02502441 C38.83772824 0.17299421 38.83772824 0.17299421 48.5859375 6.265625 C48.5859375 7.255625 48.5859375 8.245625 48.5859375 9.265625 C43.1409375 8.770625 43.1409375 8.770625 37.5859375 8.265625 C37.5859375 7.605625 37.5859375 6.945625 37.5859375 6.265625 C25.0459375 6.265625 12.5059375 6.265625 -0.4140625 6.265625 C-0.4140625 6.925625 -0.4140625 7.585625 -0.4140625 8.265625 C-4.0440625 8.595625 -7.6740625 8.925625 -11.4140625 9.265625 C-10.4240625 8.605625 -9.4340625 7.945625 -8.4140625 7.265625 C-8.37240885 5.59947892 -8.37240885 3.93177108 -8.4140625 2.265625 C-5.62484761 -0.52358989 -3.90305654 0.00742127 0 0 Z " fill="#F9FAFA" transform="translate(51.4140625,38.734375)"/>
<path d="M0 0 C0.33 0.66 0.66 1.32 1 2 C1.66 2 2.32 2 3 2 C3 2.99 3 3.98 3 5 C3.66 5 4.32 5 5 5 C5 5.99 5 6.98 5 8 C0.545 8.495 0.545 8.495 -4 9 C-4 9.66 -4 10.32 -4 11 C-1.03 11 1.94 11 5 11 C5.33 10.34 5.66 9.68 6 9 C7.32 9.66 8.64 10.32 10 11 C10 11.66 10 12.32 10 13 C10.66 13 11.32 13 12 13 C12 13.66 12 14.32 12 15 C10.68 15 9.36 15 8 15 C7.67 14.67 7.34 14.34 7 14 C7 14.33 7 14.66 7 15 C1.06 15.495 1.06 15.495 -5 16 C-5 16.66 -5 17.32 -5 18 C-5.66 18 -6.32 18 -7 18 C-6.67 18.66 -6.34 19.32 -6 20 C-5.01 20 -4.02 20 -3 20 C-2.67 22.64 -2.34 25.28 -2 28 C-3.32 28 -4.64 28 -6 28 C-6 28.66 -6 29.32 -6 30 C-6.99 30 -7.98 30 -9 30 C-9 30.66 -9 31.32 -9 32 C-9.99 32 -10.98 32 -12 32 C-12 31.34 -12 30.68 -12 30 C-12.66 30 -13.32 30 -14 30 C-16.67927341 25.98108988 -16.15601248 23.75838077 -16 19 C-15.34 19 -14.68 19 -14 19 C-14 18.01 -14 17.02 -14 16 C-12.625 14.3125 -12.625 14.3125 -11 13 C-10.34 13 -9.68 13 -9 13 C-9 12.34 -9 11.68 -9 11 C-8.38125 10.938125 -7.7625 10.87625 -7.125 10.8125 C-4.75620163 10.18108908 -4.75620163 10.18108908 -3.8125 7.625 C-3.544375 6.75875 -3.27625 5.8925 -3 5 C-2.67 4.01 -2.34 3.02 -2 2 C-1.34 2 -0.68 2 0 2 C0 1.34 0 0.68 0 0 Z " fill="#F0DCD2" transform="translate(54,85)"/>
<path d="M0 0 C-0.309375 0.556875 -0.61875 1.11375 -0.9375 1.6875 C-2.0942205 3.97019863 -2.0942205 3.97019863 -2.5 6.5 C-2.99503583 8.97517916 -3.78058271 10.80504887 -5 13 C-4.34 13.33 -3.68 13.66 -3 14 C-3.71027344 14.26554687 -4.42054687 14.53109375 -5.15234375 14.8046875 C-6.07144531 15.15789062 -6.99054687 15.51109375 -7.9375 15.875 C-8.85402344 16.22304687 -9.77054688 16.57109375 -10.71484375 16.9296875 C-13.14941056 17.7819086 -13.14941056 17.7819086 -14 20 C-15.65 20 -17.3 20 -19 20 C-19 19.01 -19 18.02 -19 17 C-17.68 17 -16.36 17 -15 17 C-15 16.34 -15 15.68 -15 15 C-16.32 15 -17.64 15 -19 15 C-19 14.01 -19 13.02 -19 12 C-19.66 12 -20.32 12 -21 12 C-21 13.32 -21 14.64 -21 16 C-21.66 16 -22.32 16 -23 16 C-24.35439668 13.29120665 -24.06501451 10.99066732 -24 8 C-23.34 8 -22.68 8 -22 8 C-21.87625 7.360625 -21.7525 6.72125 -21.625 6.0625 C-21.41875 5.381875 -21.2125 4.70125 -21 4 C-20.34 3.67 -19.68 3.34 -19 3 C-19.99 2.34 -20.98 1.68 -22 1 C-20.125 0.375 -20.125 0.375 -18 0 C-17.34 0.66 -16.68 1.32 -16 2 C-14.05808166 1.7339984 -14.05808166 1.7339984 -12 1 C-10.66803146 0.62018085 -9.33468342 0.2451661 -8 -0.125 C-7.34 -0.31320313 -6.68 -0.50140625 -6 -0.6953125 C-3.72094022 -1.04251301 -2.18051697 -0.69114601 0 0 Z " fill="#45535F" transform="translate(52,81)"/>
<path d="M0 0 C0.66 0 1.32 0 2 0 C1.67 0.99 1.34 1.98 1 3 C0.34 3 -0.32 3 -1 3 C-1 3.66 -1 4.32 -1 5 C0.98 4.67 2.96 4.34 5 4 C5 4.66 5 5.32 5 6 C4.01 6 3.02 6 2 6 C2 6.66 2 7.32 2 8 C1.01 8 0.02 8 -1 8 C-1 8.66 -1 9.32 -1 10 C0.32 10 1.64 10 3 10 C3 11.65 3 13.3 3 15 C3.66 15 4.32 15 5 15 C5 16.32 5 17.64 5 19 C5.66 19 6.32 19 7 19 C7 20.65 7 22.3 7 24 C8.98 24.33 10.96 24.66 13 25 C13 25.33 13 25.66 13 26 C11.35 26 9.7 26 8 26 C8 26.66 8 27.32 8 28 C6.68 28 5.36 28 4 28 C4 28.66 4 29.32 4 30 C2.02 30 0.04 30 -2 30 C-2 29.34 -2 28.68 -2 28 C-3.98 28 -5.96 28 -8 28 C-8.18262291 22.70393571 -7.81674579 19.02276777 -6 14 C-5.62468554 11.67305036 -5.28082798 9.34023315 -5 7 C-4.34 7 -3.68 7 -3 7 C-2.67 5.35 -2.34 3.7 -2 2 C-1.34 2 -0.68 2 0 2 C0 1.34 0 0.68 0 0 Z " fill="#B8C8F1" transform="translate(23,51)"/>
<path d="M0 0 C0.66 0 1.32 0 2 0 C4.04169485 2.90548882 5 4.40142046 5 8 C5.66 8 6.32 8 7 8 C7.33 8.66 7.66 9.32 8 10 C10.64 10 13.28 10 16 10 C16 9.34 16 8.68 16 8 C17.65 8 19.3 8 21 8 C21 8.66 21 9.32 21 10 C22.65 10 24.3 10 26 10 C26 10.99 26 11.98 26 13 C25.34 13 24.68 13 24 13 C24 13.66 24 14.32 24 15 C23.34 15 22.68 15 22 15 C22 15.66 22 16.32 22 17 C19.69 17.33 17.38 17.66 15 18 C15 18.66 15 19.32 15 20 C13.35 20 11.7 20 10 20 C9.67 19.01 9.34 18.02 9 17 C8.34 17 7.68 17 7 17 C7 16.34 7 15.68 7 15 C6.34 15 5.68 15 5 15 C5 15.66 5 16.32 5 17 C4.01 17 3.02 17 2 17 C2 16.34 2 15.68 2 15 C1.34 15 0.68 15 0 15 C0 14.34 0 13.68 0 13 C-0.66 13 -1.32 13 -2 13 C-2.33 11.68 -2.66 10.36 -3 9 C-2.34 8.67 -1.68 8.34 -1 8 C-0.53476937 6.10466658 -0.53476937 6.10466658 -0.375 3.9375 C-0.25125 2.638125 -0.1275 1.33875 0 0 Z " fill="#303D44" transform="translate(64,83)"/>
<path d="M0 0 C0.69738281 0.00902344 1.39476563 0.01804687 2.11328125 0.02734375 C3.82566958 0.05080112 5.53788004 0.08666896 7.25 0.125 C7.25 0.785 7.25 1.445 7.25 2.125 C7.8275 2.2075 8.405 2.29 9 2.375 C11.95520475 3.36006825 13.31482323 4.70602904 15.25 7.125 C15.25 8.445 15.25 9.765 15.25 11.125 C14.59 11.125 13.93 11.125 13.25 11.125 C13.25 10.135 13.25 9.145 13.25 8.125 C12.59 8.125 11.93 8.125 11.25 8.125 C11.25 7.465 11.25 6.805 11.25 6.125 C8.775 5.63 8.775 5.63 6.25 5.125 C6.25 4.465 6.25 3.805 6.25 3.125 C1.63 3.125 -2.99 3.125 -7.75 3.125 C-7.75 3.785 -7.75 4.445 -7.75 5.125 C-8.74 5.125 -9.73 5.125 -10.75 5.125 C-10.63553728 7.68836254 -10.50880499 10.25013445 -10.375 12.8125 C-10.3440625 13.53373047 -10.313125 14.25496094 -10.28125 14.99804688 C-10.05433118 19.13931531 -9.44942826 22.29092405 -7.75 26.125 C-7.75 27.115 -7.75 28.105 -7.75 29.125 C-7.09 29.125 -6.43 29.125 -5.75 29.125 C-4.625 34.875 -4.625 34.875 -5.75 37.125 C-6.74 37.125 -7.73 37.125 -8.75 37.125 C-8.75 36.465 -8.75 35.805 -8.75 35.125 C-9.41 35.125 -10.07 35.125 -10.75 35.125 C-10.75 34.135 -10.75 33.145 -10.75 32.125 C-11.41 32.125 -12.07 32.125 -12.75 32.125 C-13.51797796 29.3920814 -13.87805332 26.95722214 -13.8828125 24.12109375 C-13.88410156 23.38052734 -13.88539062 22.63996094 -13.88671875 21.87695312 C-13.88285156 21.11318359 -13.87898438 20.34941406 -13.875 19.5625 C-13.87886719 18.79486328 -13.88273437 18.02722656 -13.88671875 17.23632812 C-13.880981 13.94572861 -13.79747031 11.26741093 -12.75 8.125 C-13.41 8.125 -14.07 8.125 -14.75 8.125 C-15.08 9.115 -15.41 10.105 -15.75 11.125 C-15.22043997 7.31216777 -14.38927191 4.95977353 -11.75 2.125 C-8.06678033 -0.38668956 -4.28651521 -0.10533969 0 0 Z " fill="#6789E0" transform="translate(40.75,5.875)"/>
<path d="M0 0 C1.65 0 3.3 0 5 0 C5 0.66 5 1.32 5 2 C5.66 2 6.32 2 7 2 C7 3.98 7 5.96 7 8 C7.66 8.33 8.32 8.66 9 9 C9 10.98 9 12.96 9 15 C10.65 14.67 12.3 14.34 14 14 C13.125 17.875 13.125 17.875 12 19 C9.66702567 19.04092937 7.33294775 19.04241723 5 19 C4.67 19.66 4.34 20.32 4 21 C3.01 20.67 2.02 20.34 1 20 C1 19.34 1 18.68 1 18 C-1.475 17.01 -1.475 17.01 -4 16 C-4.33 13.69 -4.66 11.38 -5 9 C-4.34 9 -3.68 9 -3 9 C-2.67 6.69 -2.34 4.38 -2 2 C-1.34 2 -0.68 2 0 2 C0 1.34 0 0.68 0 0 Z " fill="#F9CABD" transform="translate(21,101)"/>
<path d="M0 0 C0.33 0 0.66 0 1 0 C1 3.96 1 7.92 1 12 C0.34 12 -0.32 12 -1 12 C-1.0928125 13.299375 -1.0928125 13.299375 -1.1875 14.625 C-2.17696534 18.73508678 -3.80336445 21.31846212 -7 24 C-14.31086683 28.18937313 -22.04951742 30.26514923 -30.46484375 30.1953125 C-31.48210289 30.19106766 -31.48210289 30.19106766 -32.51991272 30.18673706 C-34.65929766 30.17565416 -36.7982443 30.1505736 -38.9375 30.125 C-40.39908244 30.11495476 -41.86067153 30.10583163 -43.32226562 30.09765625 C-46.88164979 30.07575425 -50.44078203 30.04130866 -54 30 C-54 29.34 -54 28.68 -54 28 C-55.65 28 -57.3 28 -59 28 C-59 27.67 -59 27.34 -59 27 C-47.45 27.33 -35.9 27.66 -24 28 C-24 27.34 -24 26.68 -24 26 C-21.69 26 -19.38 26 -17 26 C-17 25.34 -17 24.68 -17 24 C-14.69 23.67 -12.38 23.34 -10 23 C-10 22.34 -10 21.68 -10 21 C-9.34 21 -8.68 21 -8 21 C-7.505 19.515 -7.505 19.515 -7 18 C-6.34 18 -5.68 18 -5 18 C-5.33 13.38 -5.66 8.76 -6 4 C-5.34 4.66 -4.68 5.32 -4 6 C-3.01 5.67 -2.02 5.34 -1 5 C-0.67 3.35 -0.34 1.7 0 0 Z " fill="#8B7372" transform="translate(110,104)"/>
<path d="M0 0 C0.33 0 0.66 0 1 0 C3.66514806 10.37357631 3.66514806 10.37357631 1 16 C1.99 15.67 2.98 15.34 4 15 C4.66 15 5.32 15 6 15 C7.54278761 14.84405035 9.08437905 14.67607097 10.625 14.5 C11.44226562 14.4071875 12.25953125 14.314375 13.1015625 14.21875 C13.72804688 14.1465625 14.35453125 14.074375 15 14 C14.67 14.99 14.34 15.98 14 17 C13.34 17 12.68 17 12 17 C12 17.66 12 18.32 12 19 C10.68 19.33 9.36 19.66 8 20 C8 20.66 8 21.32 8 22 C7.34 22 6.68 22 6 22 C5.67 23.98 5.34 25.96 5 28 C4.01 28 3.02 28 2 28 C2 29.65 2 31.3 2 33 C-1.09035976 29.10345943 -2.12923865 26.29046795 -2.09765625 21.33203125 C-2.09443359 20.43935547 -2.09121094 19.54667969 -2.08789062 18.62695312 C-2.07951172 17.69818359 -2.07113281 16.76941406 -2.0625 15.8125 C-2.05798828 14.87212891 -2.05347656 13.93175781 -2.04882812 12.96289062 C-2.03704626 10.64186288 -2.02059558 8.32096356 -2 6 C-1.34 6 -0.68 6 0 6 C0 4.02 0 2.04 0 0 Z " fill="#4362AA" transform="translate(11,70)"/>
<path d="M0 0 C1.16015625 -0.03867188 1.16015625 -0.03867188 2.34375 -0.078125 C4.5 0.25 4.5 0.25 6.26953125 1.47265625 C7.86176288 3.77254638 7.80793016 5.16760639 7.6875 7.9375 C7.66042969 8.74574219 7.63335937 9.55398437 7.60546875 10.38671875 C7.55326172 11.30904297 7.55326172 11.30904297 7.5 12.25 C6.84 12.25 6.18 12.25 5.5 12.25 C5.5 12.91 5.5 13.57 5.5 14.25 C2.2 14.25 -1.1 14.25 -4.5 14.25 C-4.83 11.28 -5.16 8.31 -5.5 5.25 C-6.82 5.58 -8.14 5.91 -9.5 6.25 C-9.5 5.26 -9.5 4.27 -9.5 3.25 C-8.84 3.25 -8.18 3.25 -7.5 3.25 C-7.5 2.59 -7.5 1.93 -7.5 1.25 C-4.73952457 0.32984152 -2.86637731 0.05732755 0 0 Z " fill="#364A46" transform="translate(56.5,99.75)"/>
<path d="M0 0 C0.99 0 1.98 0 3 0 C3.66 1.65 4.32 3.3 5 5 C5.66 5 6.32 5 7 5 C7 5.66 7 6.32 7 7 C8.98 7 10.96 7 13 7 C15.67479955 13.16366852 17.40332975 19.20879906 17 26 C15.125 28.6875 15.125 28.6875 13 30 C12.67 30 12.34 30 12 30 C12 26.7 12 23.4 12 20 C11.01 19.67 10.02 19.34 9 19 C7.00603743 16.33916031 5 13.38757675 5 10 C4.34 10 3.68 10 3 10 C2.67 8.35 2.34 6.7 2 5 C1.34 5 0.68 5 0 5 C0 3.35 0 1.7 0 0 Z " fill="#344654" transform="translate(93,81)"/>
<path d="M0 0 C1.125 3.75 1.125 3.75 0 6 C1.0725 6.103125 2.145 6.20625 3.25 6.3125 C6.84739269 6.97202199 8.45776191 7.45776191 11 10 C11 10.66 11 11.32 11 12 C12.32 12.66 13.64 13.32 15 14 C15 14.66 15 15.32 15 16 C15.99 16 16.98 16 18 16 C19.5 17.9375 19.5 17.9375 21 21 C21.28230469 21.57363281 21.56460938 22.14726563 21.85546875 22.73828125 C25.42857676 31.37748607 25.19075575 43.02496837 23 52 C22.34 52 21.68 52 21 52 C20.505 39.625 20.505 39.625 20 27 C19.34 27 18.68 27 18 27 C17.86464844 26.37351562 17.72929688 25.74703125 17.58984375 25.1015625 C16.51771332 20.29097767 16.51771332 20.29097767 13.2421875 16.95703125 C11.10496935 16.33633778 11.10496935 16.33633778 8 16 C8 15.2575 8 14.515 8 13.75 C6.79334286 10.43169286 6.01007481 10.19940189 2.9375 8.6875 C1.63271056 8.10733879 0.32226452 7.53914658 -1 7 C-1 3 -1 3 0 0 Z " fill="#7C8997" transform="translate(97,37)"/>
<path d="M0 0 C0.66 0 1.32 0 2 0 C2 7.92 2 15.84 2 24 C2.66 24 3.32 24 4 24 C4 24.99 4 25.98 4 27 C4.66 27 5.32 27 6 27 C6 28.32 6 29.64 6 31 C5.360625 31.28875 4.72125 31.5775 4.0625 31.875 C1.84793921 32.82823451 1.84793921 32.82823451 1 35 C0.34 35 -0.32 35 -1 35 C-1 35.66 -1 36.32 -1 37 C-1.66 37 -2.32 37 -3 37 C-3 37.66 -3 38.32 -3 39 C-3.66 39 -4.32 39 -5 39 C-5.495 41.475 -5.495 41.475 -6 44 C-6.66 44 -7.32 44 -8 44 C-8 45.32 -8 46.64 -8 48 C-8.66 48 -9.32 48 -10 48 C-10 48.99 -10 49.98 -10 51 C-10.66 51 -11.32 51 -12 51 C-11.67 48.36 -11.34 45.72 -11 43 C-10.34 43 -9.68 43 -9 43 C-8.87625 42.1646875 -8.87625 42.1646875 -8.75 41.3125 C-7.76104459 38.26322081 -6.15242534 36.34810037 -4 34 C-3.34 34 -2.68 34 -2 34 C-1.34 32.68 -0.68 31.36 0 30 C0.66 30 1.32 30 2 30 C1.2884375 28.700625 1.2884375 28.700625 0.5625 27.375 C-2.05208957 21.72748653 -2.13985013 16.26541023 -2.0625 10.125 C-2.05798828 9.43664063 -2.05347656 8.74828125 -2.04882812 8.0390625 C-2.03716336 6.35933665 -2.01923271 4.67965625 -2 3 C-1.34 3 -0.68 3 0 3 C0 2.01 0 1.02 0 0 Z " fill="#8391A9" transform="translate(26,14)"/>
<path d="M0 0 C3.96 0.99 3.96 0.99 8 2 C8 2.66 8 3.32 8 4 C9.32 4 10.64 4 12 4 C12 4.99 12 5.98 12 7 C12.66 7 13.32 7 14 7 C14.495 14.92 14.495 14.92 15 23 C15.99 23 16.98 23 18 23 C17.67 23.99 17.34 24.98 17 26 C15.68 25.67 14.36 25.34 13 25 C12.67 25.66 12.34 26.32 12 27 C11.01 26.67 10.02 26.34 9 26 C8.855625 24.906875 8.71125 23.81375 8.5625 22.6875 C8.11711896 19.06877013 8.11711896 19.06877013 7 16 C8.65 16.33 10.3 16.66 12 17 C12 14.69 12 12.38 12 10 C11.01 10 10.02 10 9 10 C8.67 9.34 8.34 8.68 8 8 C6.02111039 7.27306096 4.02045442 6.60183749 2 6 C2 5.34 2 4.68 2 4 C0.68 4 -0.64 4 -2 4 C-2 3.34 -2 2.68 -2 2 C-1.34 2 -0.68 2 0 2 C0 1.34 0 0.68 0 0 Z " fill="#304460" transform="translate(100,77)"/>
<path d="M0 0 C2.375 1.375 2.375 1.375 4 3 C4 3.66 4 4.32 4 5 C3.34 5 2.68 5 2 5 C2 7.31 2 9.62 2 12 C-0.22890995 13.11445498 -1.53055106 13.16480286 -4 13.1875 C-5.051875 13.20876953 -5.051875 13.20876953 -6.125 13.23046875 C-8 13 -8 13 -10 11 C-10.125 7.375 -10.125 7.375 -10 4 C-9.34 4 -8.68 4 -8 4 C-8 4.66 -8 5.32 -8 6 C-7.34 6 -6.68 6 -6 6 C-6 5.01 -6 4.02 -6 3 C-6.66 3 -7.32 3 -8 3 C-8 2.34 -8 1.68 -8 1 C-5.19084526 -0.40457737 -3.11189466 -0.24895157 0 0 Z " fill="#4A594E" transform="translate(98,100)"/>
<path d="M0 0 C0.495 0.99 0.495 0.99 1 2 C1.66 2 2.32 2 3 2 C3 2.66 3 3.32 3 4 C3.99 4 4.98 4 6 4 C6.33 3.01 6.66 2.02 7 1 C9.475 1.495 9.475 1.495 12 2 C12.125 5.375 12.125 5.375 12 9 C11.34 9.66 10.68 10.32 10 11 C9.76539063 10.35546875 9.53078125 9.7109375 9.2890625 9.046875 C8.18838927 6.7922092 8.18838927 6.7922092 5.8359375 6.390625 C5.02382812 6.34421875 4.21171875 6.2978125 3.375 6.25 C2.14910156 6.16492188 2.14910156 6.16492188 0.8984375 6.078125 C0.27195313 6.05234375 -0.35453125 6.0265625 -1 6 C-1 5.34 -1 4.68 -1 4 C-16.18 4 -31.36 4 -47 4 C-43.40451492 2.20225746 -42.49361207 1.75066899 -38.81396484 1.8046875 C-37.99987152 1.81129395 -37.1857782 1.81790039 -36.34701538 1.82470703 C-35.04215683 1.84960205 -35.04215683 1.84960205 -33.7109375 1.875 C-32.8113028 1.88257324 -31.91166809 1.89014648 -30.98477173 1.89794922 C-28.11465237 1.92236172 -25.24493666 1.95963251 -22.375 2 C-18.59115713 2.05302683 -14.80751053 2.09307728 -11.0234375 2.125 C-10.14948334 2.14159668 -9.27552917 2.15819336 -8.37509155 2.17529297 C-6.24932895 2.19267837 -4.1232096 2.10559292 -2 2 C-1.34 1.34 -0.68 0.68 0 0 Z " fill="#9FB5D9" transform="translate(103,69)"/>
<path d="M0 0 C0.99 0 1.98 0 3 0 C3 0.66 3 1.32 3 2 C2.34 2 1.68 2 1 2 C1.33 2.66 1.66 3.32 2 4 C2.99 4 3.98 4 5 4 C5.33 6.64 5.66 9.28 6 12 C4.68 12 3.36 12 2 12 C2 12.66 2 13.32 2 14 C1.01 14 0.02 14 -1 14 C-1 14.66 -1 15.32 -1 16 C-1.99 16 -2.98 16 -4 16 C-4 15.34 -4 14.68 -4 14 C-4.66 14 -5.32 14 -6 14 C-8.4294516 10.3558226 -8.16179575 8.28758728 -8 4 C-5.525 4.495 -5.525 4.495 -3 5 C-2.566875 4.175 -2.13375 3.35 -1.6875 2.5 C-1.130625 1.675 -0.57375 0.85 0 0 Z " fill="#F2DDD2" transform="translate(46,101)"/>
<path d="M0 0 C0.33 3.63 0.66 7.26 1 11 C0.01 11.33 -0.98 11.66 -2 12 C-2 12.66 -2 13.32 -2 14 C-2.66 14 -3.32 14 -4 14 C-4.33 16.31 -4.66 18.62 -5 21 C-5.99 21 -6.98 21 -8 21 C-10.60018816 17.09971775 -10.15085514 13.52565431 -10 9 C-9.01 9 -8.02 9 -7 9 C-6.67 7.02 -6.34 5.04 -6 3 C-5.34 3 -4.68 3 -4 3 C-4 2.34 -4 1.68 -4 1 C-2 0 -2 0 0 0 Z " fill="#2F4552" transform="translate(23,89)"/>
<path d="M0 0 C14.78132118 -0.738041 14.78132118 -0.738041 21 4 C21 4.99 21 5.98 21 7 C21.66 7 22.32 7 23 7 C25.42351711 12.90732295 26.02929235 18.91212295 24 25 C23.34 25 22.68 25 22 25 C22 20.71 22 16.42 22 12 C21.34 12 20.68 12 20 12 C19.67 10.02 19.34 8.04 19 6 C18.34 6 17.68 6 17 6 C17 5.34 17 4.68 17 4 C11.72 3.67 6.44 3.34 1 3 C1 3.66 1 4.32 1 5 C-0.32 5.33 -1.64 5.66 -3 6 C-2.67 4.68 -2.34 3.36 -2 2 C-1.34 2 -0.68 2 0 2 C0 1.34 0 0.68 0 0 Z " fill="#838D96" transform="translate(76,11)"/>
<path d="M0 0 C2 2.4375 2 2.4375 3 5 C3.66 5.33 4.32 5.66 5 6 C5.28571429 13.42857143 5.28571429 13.42857143 3 17 C2.67 15.35 2.34 13.7 2 12 C1.01 12.495 1.01 12.495 0 13 C0 12.01 0 11.02 0 10 C0.66 10 1.32 10 2 10 C2 9.34 2 8.68 2 8 C-1.90028225 5.39981184 -5.47434569 5.84914486 -10 6 C-10 6.66 -10 7.32 -10 8 C-9.34 8 -8.68 8 -8 8 C-8 8.99 -8 9.98 -8 11 C-8.66 11 -9.32 11 -10 11 C-10 10.34 -10 9.68 -10 9 C-10.66 8.67 -11.32 8.34 -12 8 C-11.67 7.01 -11.34 6.02 -11 5 C-11.99 5 -12.98 5 -14 5 C-14 4.34 -14 3.68 -14 3 C-13.34 3 -12.68 3 -12 3 C-12 2.34 -12 1.68 -12 1 C-8.31043934 -0.84478033 -4.01736804 -0.62165595 0 0 Z " fill="#D9CEC5" transform="translate(100,95)"/>
<path d="M0 0 C0.66 0 1.32 0 2 0 C2 1.65 2 3.3 2 5 C4.475 5.495 4.475 5.495 7 6 C7 8.31 7 10.62 7 13 C6.01 13 5.02 13 4 13 C4 12.01 4 11.02 4 10 C3.34 10.99 2.68 11.98 2 13 C0.99445068 12.68305176 -0.01109863 12.36610352 -1.04711914 12.03955078 C-4.77983216 10.97614016 -8.36454484 10.60041361 -12.24609375 10.3671875 C-12.90207047 10.32562531 -13.55804718 10.28406311 -14.23390198 10.24124146 C-16.30139876 10.11189855 -18.36934297 9.99326315 -20.4375 9.875 C-21.85095519 9.78847185 -23.2643674 9.70123862 -24.67773438 9.61328125 C-28.11803127 9.4007109 -31.55881448 9.19772909 -35 9 C-35 8.67 -35 8.34 -35 8 C-23.86438211 7.22834204 -13.12815896 6.82001577 -2 8 C-1.34 5.36 -0.68 2.72 0 0 Z " fill="#CDD7E8" transform="translate(93,30)"/>
<path d="M0 0 C3.63 0 7.26 0 11 0 C11.33 1.32 11.66 2.64 12 4 C13.32 4.33 14.64 4.66 16 5 C16 5.66 16 6.32 16 7 C16.99 7 17.98 7 19 7 C19 7.66 19 8.32 19 9 C18.01 9 17.02 9 16 9 C15.34 10.32 14.68 11.64 14 13 C13.01 12.67 12.02 12.34 11 12 C10.67 10.02 10.34 8.04 10 6 C8.9171875 6.12375 8.9171875 6.12375 7.8125 6.25 C4.12889581 5.92256852 2.61373889 4.53906064 0 2 C0 1.34 0 0.68 0 0 Z " fill="#636E73" transform="translate(26,120)"/>
<path d="M0 0 C-0.33 0.66 -0.66 1.32 -1 2 C-1.66 2 -2.32 2 -3 2 C-3.33 3.32 -3.66 4.64 -4 6 C-4.66 6 -5.32 6 -6 6 C-6 9.63 -6 13.26 -6 17 C-7.65 17.33 -9.3 17.66 -11 18 C-11.08097324 15.72975032 -11.13917704 13.45867925 -11.1875 11.1875 C-11.22230469 9.92292969 -11.25710937 8.65835938 -11.29296875 7.35546875 C-11 4 -11 4 -9.67578125 2.11328125 C-6.4795482 -0.01009036 -3.71794102 -0.10048489 0 0 Z " fill="#233B4E" transform="translate(34,83)"/>
<path d="M0 0 C0.66 0 1.32 0 2 0 C2 0.66 2 1.32 2 2 C3.65 2 5.3 2 7 2 C7 2.99 7 3.98 7 5 C6.34 5 5.68 5 5 5 C5 5.66 5 6.32 5 7 C4.34 7 3.68 7 3 7 C3 7.66 3 8.32 3 9 C0.69 9.33 -1.62 9.66 -4 10 C-4 10.66 -4 11.32 -4 12 C-5.65 12 -7.3 12 -9 12 C-9.66 10.35 -10.32 8.7 -11 7 C-8.36 7 -5.72 7 -3 7 C-2.67 5.68 -2.34 4.36 -2 3 C-1.34 3 -0.68 3 0 3 C0 2.01 0 1.02 0 0 Z " fill="#242E32" transform="translate(83,91)"/>
<path d="M0 0 C0.33 1.32 0.66 2.64 1 4 C1.66 4 2.32 4 3 4 C3 3.01 3 2.02 3 1 C3.66 1 4.32 1 5 1 C4.86722656 1.556875 4.73445313 2.11375 4.59765625 2.6875 C3.41779695 7.7858701 2.56750461 12.79787441 2 18 C3.98 18 5.96 18 8 18 C8 18.66 8 19.32 8 20 C8.66 20.33 9.32 20.66 10 21 C9.34 21.66 8.68 22.32 8 23 C7.01 23 6.02 23 5 23 C5 22.34 5 21.68 5 21 C5.66 21 6.32 21 7 21 C7 20.34 7 19.68 7 19 C5.02 19.33 3.04 19.66 1 20 C0.34 18.35 -0.32 16.7 -1 15 C-1.99 15 -2.98 15 -4 15 C-3.43179252 9.54520815 -2.05362055 5.08940744 0 0 Z " fill="#94A7DF" transform="translate(13,61)"/>
<path d="M0 0 C-0.33 0.99 -0.66 1.98 -1 3 C-1 2.34 -1 1.68 -1 1 C-3.64 1 -6.28 1 -9 1 C-9 1.99 -9 2.98 -9 4 C-8.01 4 -7.02 4 -6 4 C-6 3.34 -6 2.68 -6 2 C-5.01 2 -4.02 2 -3 2 C-3 3.98 -3 5.96 -3 8 C-4.65 8 -6.3 8 -8 8 C-8.33 8.66 -8.66 9.32 -9 10 C-9.66 9.67 -10.32 9.34 -11 9 C-11 7.02 -11 5.04 -11 3 C-12.32 3.33 -13.64 3.66 -15 4 C-15 3.01 -15 2.02 -15 1 C-14.34 1 -13.68 1 -13 1 C-13 0.34 -13 -0.32 -13 -1 C-8.46089183 -2.51303606 -4.47150576 -1.49050192 0 0 Z " fill="#274236" transform="translate(62,102)"/>
<path d="M0 0 C0.99 0 1.98 0 3 0 C3 2.31 3 4.62 3 7 C-1.62 7 -6.24 7 -11 7 C-11 7.66 -11 8.32 -11 9 C-13.31 9.33 -15.62 9.66 -18 10 C-18.33 8.02 -18.66 6.04 -19 4 C-13.06 4 -7.12 4 -1 4 C-0.67 2.68 -0.34 1.36 0 0 Z " fill="#CFDCF6" transform="translate(54,31)"/>
<path d="M0 0 C0.66 0 1.32 0 2 0 C4.29132284 5.21702018 5.24576326 10.29478153 5 16 C3.125 18.6875 3.125 18.6875 1 20 C0.67 20 0.34 20 0 20 C0 16.7 0 13.4 0 10 C-0.66 10 -1.32 10 -2 10 C-2.22036864 6.14354879 -1.60355101 3.50776784 0 0 Z " fill="#192F3B" transform="translate(105,91)"/>
<path d="M0 0 C0.66 0 1.32 0 2 0 C3.84566532 3.98393611 4.36022829 7.44376683 4.625 11.8125 C4.69976562 12.97394531 4.77453125 14.13539062 4.8515625 15.33203125 C4.90054688 16.21246094 4.94953125 17.09289062 5 18 C6.98 18 8.96 18 11 18 C11.33 16.68 11.66 15.36 12 14 C12 15.98 12 17.96 12 20 C8.37 20 4.74 20 1 20 C0.67 13.4 0.34 6.8 0 0 Z " fill="#7A8594" transform="translate(56,18)"/>
<path d="M0 0 C4.95 0 9.9 0 15 0 C15 0.66 15 1.32 15 2 C15.5775 2.0825 16.155 2.165 16.75 2.25 C19.70520475 3.23506825 21.06482323 4.58102904 23 7 C23 8.32 23 9.64 23 11 C22.34 11 21.68 11 21 11 C21 10.01 21 9.02 21 8 C20.34 8 19.68 8 19 8 C19 7.34 19 6.68 19 6 C16.525 5.505 16.525 5.505 14 5 C14 4.34 14 3.68 14 3 C9.38 3 4.76 3 0 3 C0 2.01 0 1.02 0 0 Z " fill="#9499A0" transform="translate(33,6)"/>
<path d="M0 0 C3.3 0 6.6 0 10 0 C10 0.66 10 1.32 10 2 C7.03 2 4.06 2 1 2 C1 2.66 1 3.32 1 4 C-1.31 4 -3.62 4 -6 4 C-6 4.66 -6 5.32 -6 6 C-7.5811292 6.50692692 -9.16501383 7.00526443 -10.75 7.5 C-11.63171875 7.7784375 -12.5134375 8.056875 -13.421875 8.34375 C-16 9 -16 9 -20 9 C-20 8.34 -20 7.68 -20 7 C-13.35216058 3.03686496 -7.68654573 2.25621819 0 2 C0 1.34 0 0.68 0 0 Z " fill="#C9D1E4" transform="translate(51,45)"/>
<path d="M0 0 C0.33 1.65 0.66 3.3 1 5 C1.99 4.67 2.98 4.34 4 4 C4.33 5.32 4.66 6.64 5 8 C5.598125 7.67 6.19625 7.34 6.8125 7 C9 6 9 6 12 6 C11.125 9.875 11.125 9.875 10 11 C7.66702567 11.04092937 5.33294775 11.04241723 3 11 C3 10.34 3 9.68 3 9 C1.68 8.67 0.36 8.34 -1 8 C-1.33 6.68 -1.66 5.36 -2 4 C-2.66 4 -3.32 4 -4 4 C-4 3.01 -4 2.02 -4 1 C-2 0 -2 0 0 0 Z " fill="#FBDFD1" transform="translate(23,109)"/>
<path d="M0 0 C1.60332791 -0.08121924 3.20784026 -0.13929134 4.8125 -0.1875 C6.15248047 -0.23970703 6.15248047 -0.23970703 7.51953125 -0.29296875 C10.41647515 0.04918998 11.22555028 0.75393573 13 3 C12 6 12 6 11 7 C3.54135338 7.36090226 3.54135338 7.36090226 0 5 C-0.1875 2.375 -0.1875 2.375 0 0 Z " fill="#D68E98" transform="translate(89,112)"/>
<path d="M0 0 C2.375 1.375 2.375 1.375 4 3 C4 3.66 4 4.32 4 5 C3.34 5 2.68 5 2 5 C2 6.98 2 8.96 2 11 C1.67 11 1.34 11 1 11 C1 9.35 1 7.7 1 6 C-0.32 6 -1.64 6 -3 6 C-3 6.66 -3 7.32 -3 8 C-4.65 8 -6.3 8 -8 8 C-8 7.34 -8 6.68 -8 6 C-7.34 6 -6.68 6 -6 6 C-6 5.01 -6 4.02 -6 3 C-6.66 3 -7.32 3 -8 3 C-8 2.34 -8 1.68 -8 1 C-5.19084526 -0.40457737 -3.11189466 -0.24895157 0 0 Z " fill="#1D3434" transform="translate(98,100)"/>
<path d="M0 0 C0.99 0.33 1.98 0.66 3 1 C3.73046875 3.06640625 3.73046875 3.06640625 4.1875 5.5625 C4.34605469 6.38878906 4.50460938 7.21507813 4.66796875 8.06640625 C4.77753906 8.70449219 4.88710938 9.34257813 5 10 C5.66 10 6.32 10 7 10 C7 10.66 7 11.32 7 12 C5.68 11.67 4.36 11.34 3 11 C3 10.01 3 9.02 3 8 C1.35 8 -0.3 8 -2 8 C-2.12375 8.598125 -2.2475 9.19625 -2.375 9.8125 C-3 12 -3 12 -5 15 C-5.66 15 -6.32 15 -7 15 C-6.37240135 12.07120629 -5.41377341 9.63904371 -4 7 C-3.34 7 -2.68 7 -2 7 C-2 6.01 -2 5.02 -2 4 C-1.34 4 -0.68 4 0 4 C0 2.68 0 1.36 0 0 Z " fill="#343737" transform="translate(54,79)"/>
<path d="M0 0 C3.3 0 6.6 0 10 0 C10 0.33 10 0.66 10 1 C8.02 1 6.04 1 4 1 C4 1.66 4 2.32 4 3 C2.68 3 1.36 3 0 3 C0 3.66 0 4.32 0 5 C-4.96073422 6.32286246 -9.91111512 6.08893197 -15 6 C-15 5.34 -15 4.68 -15 4 C-13.35 4 -11.7 4 -10 4 C-10 3.34 -10 2.68 -10 2 C-6.7 2 -3.4 2 0 2 C0 1.34 0 0.68 0 0 Z " fill="#819EE9" transform="translate(46,73)"/>
<path d="M0 0 C0.825 0.309375 1.65 0.61875 2.5 0.9375 C10.75989963 3.44496953 19.43567114 3.28666892 28 3.5625 C29.87751953 3.62727539 29.87751953 3.62727539 31.79296875 3.69335938 C34.86188523 3.79878017 37.93087389 3.90090342 41 4 C41 4.33 41 4.66 41 5 C31.1 5 21.2 5 11 5 C11 5.33 11 5.66 11 6 C6.78121808 6.19622241 3.82989106 5.80230168 0 4 C0 2.68 0 1.36 0 0 Z " fill="#C9A7A2" transform="translate(45,127)"/>
<path d="M0 0 C0.33 0.66 0.66 1.32 1 2 C2.65 1.67 4.3 1.34 6 1 C5.01 1.495 5.01 1.495 4 2 C3.67 2.99 3.34 3.98 3 5 C2.67 4.34 2.34 3.68 2 3 C1.34 3 0.68 3 0 3 C0 5.31 0 7.62 0 10 C0.66 10 1.32 10 2 10 C2.268125 10.639375 2.53625 11.27875 2.8125 11.9375 C3.88667752 14.33131686 3.88667752 14.33131686 7 15 C6.67 16.32 6.34 17.64 6 19 C5.01 18.67 4.02 18.34 3 18 C3 17.34 3 16.68 3 16 C0.525 15.01 0.525 15.01 -2 14 C-2.33 11.69 -2.66 9.38 -3 7 C-2.34 7 -1.68 7 -1 7 C-0.67 4.69 -0.34 2.38 0 0 Z " fill="#B8958F" transform="translate(19,103)"/>
<path d="M0 0 C9.24 0 18.48 0 28 0 C27.67 0.66 27.34 1.32 27 2 C13.635 2.495 13.635 2.495 0 3 C0 2.01 0 1.02 0 0 Z " fill="#192F45" transform="translate(57,73)"/>
<path d="M0 0 C3.63 0 7.26 0 11 0 C11.33 0.99 11.66 1.98 12 3 C11.67 3.66 11.34 4.32 11 5 C9.37509046 5.02698189 7.75005367 5.04638757 6.125 5.0625 C4.76761719 5.07990234 4.76761719 5.07990234 3.3828125 5.09765625 C1 5 1 5 -1 4 C-0.67 2.68 -0.34 1.36 0 0 Z " fill="#EC93A0" transform="translate(51,114)"/>
<path d="M0 0 C0.99 0 1.98 0 3 0 C4.25433458 3.76300374 4.10695422 7.27210909 4.0625 11.1875 C4.05798828 11.93708984 4.05347656 12.68667969 4.04882812 13.45898438 C4.03706354 15.30602383 4.01912865 17.15302213 4 19 C3.34 19 2.68 19 2 19 C2 18.34 2 17.68 2 17 C1.34 17 0.68 17 0 17 C0 11.39 0 5.78 0 0 Z " fill="#F8FBFC" transform="translate(114,64)"/>
<path d="M0 0 C-0.66 3.3 -1.32 6.6 -2 10 C-3.32 9.67 -4.64 9.34 -6 9 C-6.33 7.35 -6.66 5.7 -7 4 C-7.66 4 -8.32 4 -9 4 C-9 2.68 -9 1.36 -9 0 C-5.32211882 -1.22596039 -4.21550387 -0.84310077 0 0 Z " fill="#324149" transform="translate(37,103)"/>
<path d="M0 0 C2.97 0.495 2.97 0.495 6 1 C6 1.66 6 2.32 6 3 C6.66 3.33 7.32 3.66 8 4 C5.375 7.875 5.375 7.875 2 9 C1.67 9.66 1.34 10.32 1 11 C-0.65 11 -2.3 11 -4 11 C-4 10.01 -4 9.02 -4 8 C-2.68 8 -1.36 8 0 8 C0 5.36 0 2.72 0 0 Z " fill="#4C5D6A" transform="translate(37,90)"/>
<path d="M0 0 C0.66 0.33 1.32 0.66 2 1 C1.34 2.32 0.68 3.64 0 5 C0.53625 4.67 1.0725 4.34 1.625 4 C4.5391061 2.77300796 6.86867708 2.85766714 10 3 C6.375 6 6.375 6 3 6 C3.33 6.99 3.66 7.98 4 9 C0.78548731 10.60725635 -2.43612536 10.05748185 -6 10 C-6 9.34 -6 8.68 -6 8 C-5.34 7.67 -4.68 7.34 -4 7 C-3.34786708 4.97536745 -3.34786708 4.97536745 -3 3 C-2.34 3 -1.68 3 -1 3 C-0.67 2.01 -0.34 1.02 0 0 Z " fill="#EEF4FC" transform="translate(28,46)"/>
<path d="M0 0 C0.66 0 1.32 0 2 0 C2 0.66 2 1.32 2 2 C2.66 2 3.32 2 4 2 C4 3.98 4 5.96 4 8 C4.66 8 5.32 8 6 8 C5.34 9.32 4.68 10.64 4 12 C3.34 12 2.68 12 2 12 C2 14.31 2 16.62 2 19 C1.67 19 1.34 19 1 19 C-0.15316726 12.65758005 -0.09507063 6.43311296 0 0 Z " fill="#A0BDEF" transform="translate(114,81)"/>
<path d="M0 0 C0.66 0.33 1.32 0.66 2 1 C2.12375 1.969375 2.2475 2.93875 2.375 3.9375 C2.6491645 7.11582828 2.6491645 7.11582828 5.0625 8.375 C5.701875 8.58125 6.34125 8.7875 7 9 C6.67 9.99 6.34 10.98 6 12 C3.69 12.33 1.38 12.66 -1 13 C-1.07654536 8.48382401 -1.10228696 4.40914783 0 0 Z " fill="#AEC1F6" transform="translate(16,66)"/>
<path d="M0 0 C0.66 0 1.32 0 2 0 C1.67 6.27 1.34 12.54 1 19 C0.01 18.67 -0.98 18.34 -2 18 C-2 13.05 -2 8.1 -2 3 C-1.34 3 -0.68 3 0 3 C0 2.01 0 1.02 0 0 Z " fill="#67799C" transform="translate(26,14)"/>
<path d="M0 0 C0.66 0.33 1.32 0.66 2 1 C2 6.28 2 11.56 2 17 C1.01 17 0.02 17 -1 17 C-1 14.36 -1 11.72 -1 9 C-1.99 9 -2.98 9 -4 9 C-3.46930939 5.17902761 -2.50298434 2.93828597 0 0 Z " fill="#AFBBCA" transform="translate(72,14)"/>
<path d="M0 0 C3.63 0 7.26 0 11 0 C11.33 1.98 11.66 3.96 12 6 C3.13043478 5.26086957 3.13043478 5.26086957 0 2 C0 1.34 0 0.68 0 0 Z " fill="#786463" transform="translate(26,120)"/>
<path d="M0 0 C0.66 0 1.32 0 2 0 C1.67 0.99 1.34 1.98 1 3 C0.34 3 -0.32 3 -1 3 C-1 3.66 -1 4.32 -1 5 C0.98 4.67 2.96 4.34 5 4 C5 4.66 5 5.32 5 6 C4.01 6 3.02 6 2 6 C2 6.66 2 7.32 2 8 C1.01 8 0.02 8 -1 8 C-0.67 8.99 -0.34 9.98 0 11 C-0.66 11 -1.32 11 -2 11 C-2.33 11.66 -2.66 12.32 -3 13 C-3.66 12.67 -4.32 12.34 -5 12 C-5 10.35 -5 8.7 -5 7 C-4.34 7 -3.68 7 -3 7 C-2.67 5.35 -2.34 3.7 -2 2 C-1.34 2 -0.68 2 0 2 C0 1.34 0 0.68 0 0 Z " fill="#ABBDE7" transform="translate(23,51)"/>
<path d="M0 0 C0.33 1.32 0.66 2.64 1 4 C0.01 4 -0.98 4 -2 4 C-2 8.62 -2 13.24 -2 18 C-2.66 18 -3.32 18 -4 18 C-4 14.37 -4 10.74 -4 7 C-4.66 7 -5.32 7 -6 7 C-6.33 7.99 -6.66 8.98 -7 10 C-6.47229401 6.20051686 -5.62859821 3.83079807 -3 1 C-2.01 0.67 -1.02 0.34 0 0 Z " fill="#C2CEEA" transform="translate(32,7)"/>
<path d="M0 0 C0.99 0.33 1.98 0.66 3 1 C2.34 1 1.68 1 1 1 C0.93941406 1.62648438 0.87882812 2.25296875 0.81640625 2.8984375 C0.73261719 3.71570313 0.64882813 4.53296875 0.5625 5.375 C0.48128906 6.18710938 0.40007813 6.99921875 0.31640625 7.8359375 C0 10 0 10 -1 12 C-2.97888961 12.72693904 -4.97954558 13.39816251 -7 14 C-8.04449911 10.86650268 -7.93423645 10.01031744 -7 7 C-7.99 6.67 -8.98 6.34 -10 6 C-9.67 5.34 -9.34 4.68 -9 4 C-8.34 4 -7.68 4 -7 4 C-6.67 5.65 -6.34 7.3 -6 9 C-4.68 9.33 -3.36 9.66 -2 10 C-2.04125 8.906875 -2.0825 7.81375 -2.125 6.6875 C-2 3 -2 3 0 0 Z " fill="#CFA49B" transform="translate(37,103)"/>
<path d="M0 0 C0.99 0 1.98 0 3 0 C3 0.66 3 1.32 3 2 C3.99 2.33 4.98 2.66 6 3 C2.84493858 3.93619813 0.03413498 4.1057123 -3.25 4.0625 C-4.14203125 4.05347656 -5.0340625 4.04445313 -5.953125 4.03515625 C-6.62859375 4.02355469 -7.3040625 4.01195313 -8 4 C-8 4.66 -8 5.32 -8 6 C-11.3 6 -14.6 6 -18 6 C-17.67 5.34 -17.34 4.68 -17 4 C-15.1796875 3.40234375 -15.1796875 3.40234375 -12.875 2.9375 C-12.06804688 2.7725 -11.26109375 2.6075 -10.4296875 2.4375 C-8.28927692 2.05208845 -6.15550858 1.72370861 -4 1.4375 C-1.12405802 1.32327972 -1.12405802 1.32327972 0 0 Z " fill="#D4E2FA" transform="translate(54,69)"/>
<path d="M0 0 C1.65 0 3.3 0 5 0 C5 0.66 5 1.32 5 2 C3.948125 2.433125 2.89625 2.86625 1.8125 3.3125 C-0.57084338 4.31677171 -2.49896079 5.3249047 -4.6875 6.75 C-7 8 -7 8 -9.25 7.8125 C-11 7 -11 7 -12 5 C-11.01 5 -10.02 5 -9 5 C-9 4.34 -9 3.68 -9 3 C-4.545 2.505 -4.545 2.505 0 2 C0 1.34 0 0.68 0 0 Z " fill="#1E354C" transform="translate(46,76)"/>
<path d="M0 0 C0.99 0.33 1.98 0.66 3 1 C3 2.32 3 3.64 3 5 C3.66 5 4.32 5 5 5 C5 5.99 5 6.98 5 8 C5.66 8 6.32 8 7 8 C7 9.32 7 10.64 7 12 C5.02 12.66 3.04 13.32 1 14 C1 13.01 1 12.02 1 11 C1.66 11 2.32 11 3 11 C2.505 10.113125 2.01 9.22625 1.5 8.3125 C0.05621326 5.12413762 -0.30159922 3.41812454 0 0 Z " fill="#68789F" transform="translate(25,33)"/>
<path d="M0 0 C0.99 0 1.98 0 3 0 C3 0.99 3 1.98 3 3 C2.34 3 1.68 3 1 3 C0.67 4.32 0.34 5.64 0 7 C-2.31 7 -4.62 7 -7 7 C-7.66 5.35 -8.32 3.7 -9 2 C-6.03 2 -3.06 2 0 2 C0 1.34 0 0.68 0 0 Z " fill="#374A5A" transform="translate(80,91)"/>
<path d="M0 0 C0.99 0.495 0.99 0.495 2 1 C1.01 1.495 1.01 1.495 0 2 C0 1.34 0 0.68 0 0 Z M2 3 C1.01 3.495 1.01 3.495 0 4 C0 4.66 0 5.32 0 6 C-4.41225737 7.47075246 -7.48281619 8.36884358 -12 7 C-12 6.34 -12 5.68 -12 5 C-6.77729131 2.33535271 -3.9180497 1.67145823 2 3 Z " fill="#F8FBFC" transform="translate(45,49)"/>
<path d="M0 0 C0.33 0.66 0.66 1.32 1 2 C1.66 2 2.32 2 3 2 C3 2.99 3 3.98 3 5 C3.66 5 4.32 5 5 5 C5 5.99 5 6.98 5 8 C2.36 8.33 -0.28 8.66 -3 9 C-2.67 6.69 -2.34 4.38 -2 2 C-1.34 2 -0.68 2 0 2 C0 1.34 0 0.68 0 0 Z " fill="#F6DED8" transform="translate(54,85)"/>
<path d="M0 0 C0.99 0 1.98 0 3 0 C3 0.99 3 1.98 3 3 C3.66 3.33 4.32 3.66 5 4 C4.34 4 3.68 4 3 4 C3 4.66 3 5.32 3 6 C-0.3 6 -3.6 6 -7 6 C-6 3 -6 3 -5 2 C-3.33382885 1.95936168 -1.66611905 1.957279 0 2 C0 1.34 0 0.68 0 0 Z " fill="#767A68" transform="translate(59,108)"/>
<path d="M0 0 C0 0.66 0 1.32 0 2 C-10.3734499 2.16494885 -20.6510926 1.65043638 -31 1 C-31 0.67 -31 0.34 -31 0 C-20.52650256 -0.76405986 -10.46319307 -1.20160344 0 0 Z " fill="#B0BED9" transform="translate(89,38)"/>
<path d="M0 0 C-0.33 0.99 -0.66 1.98 -1 3 C-1.66 3 -2.32 3 -3 3 C-3 3.66 -3 4.32 -3 5 C-4.32 5.33 -5.64 5.66 -7 6 C-7 6.66 -7 7.32 -7 8 C-7.66 8 -8.32 8 -9 8 C-9.33 8.66 -9.66 9.32 -10 10 C-10.36627907 4.50581395 -10.36627907 4.50581395 -8.6875 2.1875 C-5.70643644 0.08971453 -3.65509816 0 0 0 Z " fill="#537ACF" transform="translate(26,84)"/>
<path d="M0 0 C0.66 0 1.32 0 2 0 C1.93993922 1.45947705 1.8511311 2.91779272 1.75 4.375 C1.68039063 5.59316406 1.68039063 5.59316406 1.609375 6.8359375 C1 9 1 9 -1.046875 10.2890625 C-2.01367188 10.64097656 -2.01367188 10.64097656 -3 11 C-3 10.34 -3 9.68 -3 9 C-4.32 8.67 -5.64 8.34 -7 8 C-6.34 8 -5.68 8 -5 8 C-5 7.01 -5 6.02 -5 5 C-3.625 3.3125 -3.625 3.3125 -2 2 C-1.34 2 -0.68 2 0 2 C0 1.34 0 0.68 0 0 Z " fill="#F8DBD1" transform="translate(45,96)"/>
<path d="M0 0 C0.66 0 1.32 0 2 0 C2 1.65 2 3.3 2 5 C2.99 5 3.98 5 5 5 C5 6.98 5 8.96 5 11 C3.35 11.33 1.7 11.66 0 12 C0 8.04 0 4.08 0 0 Z " fill="#122227" transform="translate(23,89)"/>
<path d="M0 0 C-0.99 0.33 -1.98 0.66 -3 1 C-2.67 1.99 -2.34 2.98 -2 4 C-7.625 7 -7.625 7 -11 7 C-10.49396008 4.83125748 -10.00016187 3.00032373 -9 1 C-5.8035914 -0.06546953 -3.34252724 -0.07427838 0 0 Z " fill="#FAF9F5" transform="translate(39,44)"/>
<path d="M0 0 C4.5111201 5.63890012 4.5111201 5.63890012 4.3125 9.625 C4.28800781 10.38039063 4.26351562 11.13578125 4.23828125 11.9140625 C4 14 4 14 3 17 C2.34 17 1.68 17 1 17 C0.67 11.39 0.34 5.78 0 0 Z " fill="#798189" transform="translate(97,19)"/>
<path d="M0 0 C1.65 0 3.3 0 5 0 C5 0.66 5 1.32 5 2 C5.66 2 6.32 2 7 2 C7 4.31 7 6.62 7 9 C6.34 9 5.68 9 5 9 C5 8.01 5 7.02 5 6 C4.01 6 3.02 6 2 6 C1.67 5.34 1.34 4.68 1 4 C0.34 4 -0.32 4 -1 4 C-0.67 2.68 -0.34 1.36 0 0 Z " fill="#F0B5A9" transform="translate(21,101)"/>
<path d="M0 0 C2.31 0.33 4.62 0.66 7 1 C7 2.32 7 3.64 7 5 C6.01 5 5.02 5 4 5 C4 6.65 4 8.3 4 10 C1.16625119 6.79663178 0.4794463 4.21912747 0 0 Z " fill="#728BB8" transform="translate(9,93)"/>
<path d="M0 0 C1.98 0.99 1.98 0.99 4 2 C4 2.66 4 3.32 4 4 C4.66 4 5.32 4 6 4 C6.33 5.98 6.66 7.96 7 10 C7.66 10 8.32 10 9 10 C9 10.99 9 11.98 9 13 C8.34 13 7.68 13 7 13 C6.34 11.35 5.68 9.7 5 8 C4.34 8 3.68 8 3 8 C2.67 6.35 2.34 4.7 2 3 C1.34 3 0.68 3 0 3 C0 2.01 0 1.02 0 0 Z " fill="#21272E" transform="translate(93,83)"/>
<path d="M0 0 C4.95 0 9.9 0 15 0 C15 0.99 15 1.98 15 3 C15.99 3 16.98 3 18 3 C18 3.66 18 4.32 18 5 C14.66666667 4.33333333 11.33333333 3.66666667 8 3 C8 2.34 8 1.68 8 1 C5.36 1 2.72 1 0 1 C0 0.67 0 0.34 0 0 Z " fill="#6F8CC8" transform="translate(87,73)"/>
<path d="M0 0 C0.33 0 0.66 0 1 0 C1 3.96 1 7.92 1 12 C0.34 12 -0.32 12 -1 12 C-1.33 12.99 -1.66 13.98 -2 15 C-2.33 11.7 -2.66 8.4 -3 5 C-2.34 5 -1.68 5 -1 5 C-0.67 3.35 -0.34 1.7 0 0 Z " fill="#C49992" transform="translate(110,104)"/>
<path d="M0 0 C0.33 0 0.66 0 1 0 C1 1.98 1 3.96 1 6 C1.99 6 2.98 6 4 6 C3.67 6.99 3.34 7.98 3 9 C2.38125 8.814375 1.7625 8.62875 1.125 8.4375 C-1.04160178 7.76313824 -1.04160178 7.76313824 -3 9 C-3.33 7.02 -3.66 5.04 -4 3 C-3.34 3 -2.68 3 -2 3 C-1.67 2.34 -1.34 1.68 -1 1 C-0.67 0.67 -0.34 0.34 0 0 Z " fill="#4C5F6C" transform="translate(114,94)"/>
<path d="M0 0 C0.99 0.33 1.98 0.66 3 1 C2.34 2.65 1.68 4.3 1 6 C0.34 6 -0.32 6 -1 6 C-0.67 7.98 -0.34 9.96 0 12 C-0.99 11.67 -1.98 11.34 -3 11 C-3.144375 9.906875 -3.28875 8.81375 -3.4375 7.6875 C-3.88288104 4.06877013 -3.88288104 4.06877013 -5 1 C-2.525 1.495 -2.525 1.495 0 2 C0 1.34 0 0.68 0 0 Z " fill="#3C505E" transform="translate(112,92)"/>
<path d="M0 0 C0.66 0 1.32 0 2 0 C2 0.66 2 1.32 2 2 C2.66 2 3.32 2 4 2 C4.33 2.66 4.66 3.32 5 4 C7.52733235 4.65555119 7.52733235 4.65555119 10 5 C10 4.34 10 3.68 10 3 C11.98 2.67 13.96 2.34 16 2 C15.67 2.99 15.34 3.98 15 5 C12.24921116 5.91692961 10.64051087 6.10886083 7.8125 6.0625 C5.9253125 6.0315625 5.9253125 6.0315625 4 6 C3.67 5.01 3.34 4.02 3 3 C1.35 3 -0.3 3 -2 3 C-1.34 2.67 -0.68 2.34 0 2 C0 1.34 0 0.68 0 0 Z " fill="#D8B1AC" transform="translate(69,98)"/>
<path d="M0 0 C0.33 0.99 0.66 1.98 1 3 C-3.62 3 -8.24 3 -13 3 C-13 3.66 -13 4.32 -13 5 C-15.31 5.33 -17.62 5.66 -20 6 C-20.33 5.01 -20.66 4.02 -21 3 C-14.03220597 1.67280114 -7.07011089 1.91174619 0 2 C0 1.34 0 0.68 0 0 Z " fill="#A9B9DE" transform="translate(56,35)"/>
<path d="M0 0 C0.99 0.66 1.98 1.32 3 2 C2 5 2 5 1 6 C-1.67058851 6.14115161 -4.32432238 6.04247107 -7 6 C-6.01 5.67 -5.02 5.34 -4 5 C-3.835 4.34 -3.67 3.68 -3.5 3 C-3.335 2.34 -3.17 1.68 -3 1 C-2.01 0.67 -1.02 0.34 0 0 Z " fill="#F5A7AE" transform="translate(99,113)"/>
<path d="M0 0 C0.99 0.33 1.98 0.66 3 1 C3.28571429 8.42857143 3.28571429 8.42857143 1 12 C0.67 10.35 0.34 8.7 0 7 C-0.99 7.495 -0.99 7.495 -2 8 C-2 7.01 -2 6.02 -2 5 C-1.34 5 -0.68 5 0 5 C0 4.34 0 3.68 0 3 C-0.99 2.67 -1.98 2.34 -3 2 C-2.01 1.34 -1.02 0.68 0 0 Z " fill="#CBA29F" transform="translate(102,100)"/>
<path d="M0 0 C0.66 0 1.32 0 2 0 C2.33 1.65 2.66 3.3 3 5 C3.66 5 4.32 5 5 5 C5 5.99 5 6.98 5 8 C2.69 8 0.38 8 -2 8 C-1.34 5.36 -0.68 2.72 0 0 Z " fill="#DFB9B4" transform="translate(93,86)"/>
<path d="M0 0 C0.99 0.33 1.98 0.66 3 1 C3.73046875 3.06640625 3.73046875 3.06640625 4.1875 5.5625 C4.34605469 6.38878906 4.50460938 7.21507813 4.66796875 8.06640625 C4.77753906 8.70449219 4.88710938 9.34257813 5 10 C5.66 10 6.32 10 7 10 C7 10.66 7 11.32 7 12 C5.68 11.67 4.36 11.34 3 11 C2.67 9.02 2.34 7.04 2 5 C1.34 5 0.68 5 0 5 C0 3.35 0 1.7 0 0 Z " fill="#1F1F27" transform="translate(54,79)"/>
<path d="M0 0 C2.475 0.99 2.475 0.99 5 2 C5 2.66 5 3.32 5 4 C5.66 4 6.32 4 7 4 C7 4.66 7 5.32 7 6 C5.68 6 4.36 6 3 6 C2.67 5.67 2.34 5.34 2 5 C2 5.33 2 5.66 2 6 C-0.97 6 -3.94 6 -7 6 C-7 5.67 -7 5.34 -7 5 C-4.69 5 -2.38 5 0 5 C0 3.35 0 1.7 0 0 Z " fill="#D5BFB7" transform="translate(59,94)"/>
<path d="M0 0 C3.3 0 6.6 0 10 0 C10 0.33 10 0.66 10 1 C8.02 1 6.04 1 4 1 C4 1.66 4 2.32 4 3 C2.68 3 1.36 3 0 3 C0 3.66 0 4.32 0 5 C-1.65 5 -3.3 5 -5 5 C-4.67 4.01 -4.34 3.02 -4 2 C-2.68 2 -1.36 2 0 2 C0 1.34 0 0.68 0 0 Z " fill="#6988C8" transform="translate(46,73)"/>
<path d="M0 0 C0.99 0 1.98 0 3 0 C2.67 8.25 2.34 16.5 2 25 C1.67 25 1.34 25 1 25 C0.67 16.75 0.34 8.5 0 0 Z " fill="#7B8B9E" transform="translate(117,64)"/>
<path d="M0 0 C0.66 0 1.32 0 2 0 C2.268125 0.639375 2.53625 1.27875 2.8125 1.9375 C3.88667752 4.33131686 3.88667752 4.33131686 7 5 C6.67 6.32 6.34 7.64 6 9 C5.01 8.67 4.02 8.34 3 8 C3 7.34 3 6.68 3 6 C0.525 5.01 0.525 5.01 -2 4 C-1.67 3.34 -1.34 2.68 -1 2 C-0.34 2.33 0.32 2.66 1 3 C0.67 2.01 0.34 1.02 0 0 Z " fill="#B6A8A6" transform="translate(19,113)"/>
<path d="M0 0 C0.99 0 1.98 0 3 0 C3.66 2.31 4.32 4.62 5 7 C5.66 7 6.32 7 7 7 C7 7.66 7 8.32 7 9 C4.03 8.505 4.03 8.505 1 8 C1 6.35 1 4.7 1 3 C0.34 2.67 -0.32 2.34 -1 2 C-0.67 1.34 -0.34 0.68 0 0 Z " fill="#E6F0FC" transform="translate(29,67)"/>
<path d="M0 0 C2.475 0.99 2.475 0.99 5 2 C5 3.32 5 4.64 5 6 C3.35 6 1.7 6 0 6 C0 5.34 0 4.68 0 4 C-1.32 3.67 -2.64 3.34 -4 3 C-2.68 3 -1.36 3 0 3 C0 2.01 0 1.02 0 0 Z " fill="#D8E1EA" transform="translate(100,46)"/>
<path d="M0 0 C1.125 3.75 1.125 3.75 0 6 C2.31 6.33 4.62 6.66 7 7 C7.33 8.32 7.66 9.64 8 11 C3.545 9.02 3.545 9.02 -1 7 C-1 3 -1 3 0 0 Z " fill="#727F8C" transform="translate(97,37)"/>
<path d="M0 0 C0.99 0.495 0.99 0.495 2 1 C2 1.99 2 2.98 2 4 C2.66 4 3.32 4 4 4 C5.125 9.75 5.125 9.75 4 12 C3.34 12 2.68 12 2 12 C0.86235649 7.73383684 0 4.43513689 0 0 Z " fill="#7C97DF" transform="translate(31,31)"/>
<path d="M0 0 C0.99 0 1.98 0 3 0 C3 2.31 3 4.62 3 7 C2.01 7.33 1.02 7.66 0 8 C-0.33 9.32 -0.66 10.64 -1 12 C-0.67 8.04 -0.34 4.08 0 0 Z " fill="#7A8BA9" transform="translate(67,24)"/>
<path d="M0 0 C3.3 0 6.6 0 10 0 C10 1.32 10 2.64 10 4 C3.375 4.25 3.375 4.25 0 2 C0 1.34 0 0.68 0 0 Z " fill="#EFE0D9" transform="translate(90,95)"/>
<path d="M0 0 C1.98 0 3.96 0 6 0 C5.01 3.3 4.02 6.6 3 10 C2.34 8.68 1.68 7.36 1 6 C1.33 5.01 1.66 4.02 2 3 C1.34 3 0.68 3 0 3 C0 2.01 0 1.02 0 0 Z " fill="#2C404A" transform="translate(100,90)"/>
<path d="M0 0 C0.99 0 1.98 0 3 0 C2.67 3.3 2.34 6.6 2 10 C0.68 10 -0.64 10 -2 10 C-1.54177532 6.53058454 -1.10868317 3.32604951 0 0 Z " fill="#8B9BB8" transform="translate(11,66)"/>
<path d="M0 0 C3 2 3 2 3.51171875 4.1640625 C3.56972656 4.97617188 3.62773438 5.78828125 3.6875 6.625 C3.75324219 7.44226563 3.81898437 8.25953125 3.88671875 9.1015625 C3.92410156 9.72804688 3.96148437 10.35453125 4 11 C3.01 11.33 2.02 11.66 1 12 C0.67 8.04 0.34 4.08 0 0 Z " fill="#8F6160" transform="translate(104,108)"/>
<path d="M0 0 C0.66 0 1.32 0 2 0 C2.45375 0.969375 2.9075 1.93875 3.375 2.9375 C4.65786221 6.07079582 4.65786221 6.07079582 7 7 C7 7.99 7 8.98 7 10 C5.68 9.67 4.36 9.34 3 9 C2.67 7.35 2.34 5.7 2 4 C1.34 4 0.68 4 0 4 C0 2.68 0 1.36 0 0 Z " fill="#2D2C29" transform="translate(28,103)"/>
<path d="M0 0 C0.66 0 1.32 0 2 0 C2 2.97 2 5.94 2 9 C3.32 8.67 4.64 8.34 6 8 C5 11 5 11 1 13 C1 9.7 1 6.4 1 3 C0.34 3 -0.32 3 -1 3 C-0.67 2.01 -0.34 1.02 0 0 Z " fill="#2D2124" transform="translate(104,98)"/>
<path d="M0 0 C0.66 1.32 1.32 2.64 2 4 C-1.3 3.67 -4.6 3.34 -8 3 C-8 2.34 -8 1.68 -8 1 C-5.29120665 -0.35439668 -2.99066732 -0.06501451 0 0 Z " fill="#122128" transform="translate(98,100)"/>
<path d="M0 0 C1.98 0.99 1.98 0.99 4 2 C4 2.66 4 3.32 4 4 C5.32 4.66 6.64 5.32 8 6 C5 6 5 6 3 5 C3 5.66 3 6.32 3 7 C3.66 7.33 4.32 7.66 5 8 C3.68 8 2.36 8 1 8 C0.67 5.36 0.34 2.72 0 0 Z " fill="#A9B3BF" transform="translate(104,45)"/>
<path d="M0 0 C0.33 0 0.66 0 1 0 C1 2.64 1 5.28 1 8 C1.66 8 2.32 8 3 8 C3.33 9.98 3.66 11.96 4 14 C3.01 14.33 2.02 14.66 1 15 C-0.32286246 10.03926578 -0.08893197 5.08888488 0 0 Z " fill="#7693D8" transform="translate(27,17)"/>
<path d="M0 0 C1.98 0.99 1.98 0.99 4 2 C4 2.99 4 3.98 4 5 C4.66 5 5.32 5 6 5 C6.33 6.65 6.66 8.3 7 10 C6.01 10 5.02 10 4 10 C2 6.25 2 6.25 2 4 C1.34 4 0.68 4 0 4 C0 2.68 0 1.36 0 0 Z " fill="#AFB4BB" transform="translate(93,13)"/>
<path d="M0 0 C1.32 0 2.64 0 4 0 C4.33 1.98 4.66 3.96 5 6 C3.35 6 1.7 6 0 6 C0 4.02 0 2.04 0 0 Z " fill="#F6EEE7" transform="translate(47,107)"/>
<path d="M0 0 C0.66 0 1.32 0 2 0 C2 0.66 2 1.32 2 2 C3.65 2 5.3 2 7 2 C7 2.99 7 3.98 7 5 C4.69 5.33 2.38 5.66 0 6 C0 5.34 0 4.68 0 4 C-0.66 3.67 -1.32 3.34 -2 3 C-1.34 3 -0.68 3 0 3 C0 2.01 0 1.02 0 0 Z " fill="#1E3340" transform="translate(83,91)"/>
<path d="M0 0 C1.65 0.33 3.3 0.66 5 1 C5 2.65 5 4.3 5 6 C3.68 5.67 2.36 5.34 1 5 C1 5.66 1 6.32 1 7 C0.34 6.67 -0.32 6.34 -1 6 C-0.67 4.02 -0.34 2.04 0 0 Z " fill="#1A232E" transform="translate(66,90)"/>
<path d="M0 0 C0.66 0.33 1.32 0.66 2 1 C1.34 6.28 0.68 11.56 0 17 C-0.33 17 -0.66 17 -1 17 C-1.02684679 14.35409986 -1.04676357 11.70846904 -1.0625 9.0625 C-1.07087891 8.30775391 -1.07925781 7.55300781 -1.08789062 6.77539062 C-1.09652441 4.85005687 -1.05224333 2.92464419 -1 1 C-0.67 0.67 -0.34 0.34 0 0 Z " fill="#5F7ED4" transform="translate(12,76)"/>
<path d="M0 0 C2.475 0.495 2.475 0.495 5 1 C5.125 4.375 5.125 4.375 5 8 C4.34 8.66 3.68 9.32 3 10 C2.87625 9.21625 2.7525 8.4325 2.625 7.625 C2.20882007 4.85942178 2.20882007 4.85942178 0 3 C0 2.01 0 1.02 0 0 Z " fill="#E0E7F4" transform="translate(110,70)"/>
<path d="M0 0 C0.33 0 0.66 0 1 0 C1.33 3.96 1.66 7.92 2 12 C1.01 12 0.02 12 -1 12 C-1.14285714 3.42857143 -1.14285714 3.42857143 0 0 Z " fill="#A9C0EF" transform="translate(72,19)"/>
<path d="M0 0 C3.46941546 0.45822468 6.67395049 0.89131683 10 2 C9.67 2.99 9.34 3.98 9 5 C9 4.34 9 3.68 9 3 C6.03 3 3.06 3 0 3 C0 2.01 0 1.02 0 0 Z " fill="#081A1B" transform="translate(52,100)"/>
<path d="M0 0 C0 0.66 0 1.32 0 2 C-0.66 2 -1.32 2 -2 2 C-2.33 2.99 -2.66 3.98 -3 5 C-3.66 5 -4.32 5 -5 5 C-5 5.66 -5 6.32 -5 7 C-5.99 7 -6.98 7 -8 7 C-6.53112033 2.34854772 -6.53112033 2.34854772 -4 0.6875 C-2 0 -2 0 0 0 Z " fill="#2F353A" transform="translate(45,96)"/>
<path d="M0 0 C0.33 0 0.66 0 1 0 C1 1.65 1 3.3 1 5 C1.66 5 2.32 5 3 5 C2.67 8.63 2.34 12.26 2 16 C1.67 16 1.34 16 1 16 C0.08342019 10.61509359 -0.11138159 5.45769811 0 0 Z " fill="#7187BF" transform="translate(114,84)"/>
<path d="M0 0 C4.51617599 -0.07654536 8.59085217 -0.10228696 13 1 C13 1.99 13 2.98 13 4 C11.35 4 9.7 4 8 4 C7.67 3.34 7.34 2.68 7 2 C4.67843403 1.59270772 2.3431213 1.25561323 0 1 C0 0.67 0 0.34 0 0 Z " fill="#1A2F49" transform="translate(87,75)"/>
<path d="M0 0 C0.33 0.66 0.66 1.32 1 2 C1.66 2 2.32 2 3 2 C3 2.99 3 3.98 3 5 C3.66 5 4.32 5 5 5 C4.67 5.66 4.34 6.32 4 7 C1.69 6.67 -0.62 6.34 -3 6 C-2.67 4.68 -2.34 3.36 -2 2 C-1.34 2 -0.68 2 0 2 C0 1.34 0 0.68 0 0 Z " fill="#D7ADA0" transform="translate(54,85)"/>
<path d="M0 0 C0.33 0.66 0.66 1.32 1 2 C2.98 2 4.96 2 7 2 C7 2.66 7 3.32 7 4 C7.66 4.33 8.32 4.66 9 5 C8.34 5.66 7.68 6.32 7 7 C6.01 7 5.02 7 4 7 C4 6.34 4 5.68 4 5 C4.66 5 5.32 5 6 5 C6 4.34 6 3.68 6 3 C4.02 3.33 2.04 3.66 0 4 C0 2.68 0 1.36 0 0 Z " fill="#89A7F4" transform="translate(14,77)"/>
<path d="M0 0 C0.763125 0.309375 1.52625 0.61875 2.3125 0.9375 C4.18789677 1.67893593 6.08684652 2.36228217 8 3 C8 4.65 8 6.3 8 8 C7.34 8 6.68 8 6 8 C5.67 7.01 5.34 6.02 5 5 C4.01 4.67 3.02 4.34 2 4 C2 3.34 2 2.68 2 2 C1.34 2 0.68 2 0 2 C0 1.34 0 0.68 0 0 Z " fill="#7A8592" transform="translate(107,50)"/>
<path d="M0 0 C-0.33 0.66 -0.66 1.32 -1 2 C-3.97 2 -6.94 2 -10 2 C-10 1.34 -10 0.68 -10 0 C-6.33694766 -0.74926071 -3.57644848 -1.2380014 0 0 Z " fill="#8B817C" transform="translate(60,94)"/>
<path d="M0 0 C1.32 0.33 2.64 0.66 4 1 C4 3.64 4 6.28 4 9 C3.34 9 2.68 9 2 9 C2 7.02 2 5.04 2 3 C1.34 3 0.68 3 0 3 C0 2.01 0 1.02 0 0 Z " fill="#1F3654" transform="translate(110,83)"/>
<path d="M0 0 C0.66 0.33 1.32 0.66 2 1 C1.67 1.99 1.34 2.98 1 4 C2.32 4 3.64 4 5 4 C5 4.66 5 5.32 5 6 C2.36 6.33 -0.28 6.66 -3 7 C-3 6.34 -3 5.68 -3 5 C-2.34 4.67 -1.68 4.34 -1 4 C-0.34786708 1.97536745 -0.34786708 1.97536745 0 0 Z " fill="#D8E3F9" transform="translate(25,49)"/>
<path d="M0 0 C0 0.99 0 1.98 0 3 C-2.64 3 -5.28 3 -8 3 C-8 2.34 -8 1.68 -8 1 C-5.29120665 -0.35439668 -2.99066732 -0.06501451 0 0 Z " fill="#E6E8EC" transform="translate(69,44)"/>
<path d="M0 0 C1.98 0 3.96 0 6 0 C5.67 1.32 5.34 2.64 5 4 C2.03 3.505 2.03 3.505 -1 3 C-0.67 2.01 -0.34 1.02 0 0 Z " fill="#183137" transform="translate(32,122)"/>
<path d="M0 0 C0.66 0.33 1.32 0.66 2 1 C2 3.31 2 5.62 2 8 C1.34 8 0.68 8 0 8 C0 8.66 0 9.32 0 10 C-0.66 9.67 -1.32 9.34 -2 9 C-1.855625 8.443125 -1.71125 7.88625 -1.5625 7.3125 C-0.97230872 4.88615805 -0.476571 2.45093655 0 0 Z " fill="#F3CCC5" transform="translate(100,117)"/>
<path d="M0 0 C1.98 0.495 1.98 0.495 4 1 C3.34 2.32 2.68 3.64 2 5 C2.66 5.33 3.32 5.66 4 6 C2.35 6 0.7 6 -1 6 C-0.67 4.02 -0.34 2.04 0 0 Z " fill="#F2B3B2" transform="translate(48,113)"/>
<path d="M0 0 C2.35953094 2.35953094 2.49141413 3.77895617 3 7 C1.35 7.33 -0.3 7.66 -2 8 C-1.34 5.36 -0.68 2.72 0 0 Z " fill="#2A3E4B" transform="translate(28,95)"/>
<path d="M0 0 C0.66 0 1.32 0 2 0 C2 0.99 2 1.98 2 3 C1.34 3 0.68 3 0 3 C-0.33 4.32 -0.66 5.64 -1 7 C-2.32 7 -3.64 7 -5 7 C-5 5 -5 5 -3.625 3.375 C-2 2 -2 2 0 2 C0 1.34 0 0.68 0 0 Z " fill="#C6A9A2" transform="translate(45,96)"/>
<path d="M0 0 C0.99 0.33 1.98 0.66 3 1 C3 2.32 3 3.64 3 5 C3.66 5.33 4.32 5.66 5 6 C4.34 6 3.68 6 3 6 C2.67 6.66 2.34 7.32 2 8 C-0.1519437 4.77208445 -0.20086443 3.71599191 0 0 Z " fill="#8591B3" transform="translate(25,33)"/>
<path d="M0 0 C0.33 0.66 0.66 1.32 1 2 C1.99 2 2.98 2 4 2 C4 2.99 4 3.98 4 5 C2.68 5.33 1.36 5.66 0 6 C0.66 6.33 1.32 6.66 2 7 C1.01 7 0.02 7 -1 7 C-1.04254356 5.00045254 -1.04080783 2.99958364 -1 1 C-0.67 0.67 -0.34 0.34 0 0 Z " fill="#7897DF" transform="translate(69,31)"/>
<path d="M0 0 C1.485 0.99 1.485 0.99 3 2 C3.29296875 4.1640625 3.29296875 4.1640625 3.1875 6.625 C3.16042969 7.44226563 3.13335937 8.25953125 3.10546875 9.1015625 C3.07066406 9.72804688 3.03585938 10.35453125 3 11 C2.34 11 1.68 11 1 11 C0.67 7.37 0.34 3.74 0 0 Z " fill="#DEE8F9" transform="translate(73,21)"/>
<path d="M0 0 C0.99 0.495 0.99 0.495 2 1 C2.4140625 3.28515625 2.4140625 3.28515625 2.625 6.0625 C2.69976562 6.98160156 2.77453125 7.90070313 2.8515625 8.84765625 C2.92503906 9.91306641 2.92503906 9.91306641 3 11 C2.01 11.33 1.02 11.66 0 12 C0 8.04 0 4.08 0 0 Z " fill="#2A3E49" transform="translate(107,95)"/>
<path d="M0 0 C-0.33 0.99 -0.66 1.98 -1 3 C-3.31 3 -5.62 3 -8 3 C-8 2.34 -8 1.68 -8 1 C-5.29120665 -0.35439668 -2.99066732 -0.06501451 0 0 Z " fill="#F4EAE3" transform="translate(60,96)"/>
<path d="M0 0 C0.99 0.33 1.98 0.66 3 1 C5.14255793 0.61067144 5.14255793 0.61067144 7 0 C7 0.99 7 1.98 7 3 C5.02 3.33 3.04 3.66 1 4 C0.67 2.68 0.34 1.36 0 0 Z " fill="#122128" transform="translate(81,95)"/>
<path d="M0 0 C0.99 0 1.98 0 3 0 C3 1.98 3 3.96 3 6 C2.01 6.33 1.02 6.66 0 7 C0 4.69 0 2.38 0 0 Z " fill="#0E1920" transform="translate(25,94)"/>
<path d="M0 0 C0.66 0.33 1.32 0.66 2 1 C2 2.98 2 4.96 2 7 C0.68 6.67 -0.64 6.34 -2 6 C-1.34 4.02 -0.68 2.04 0 0 Z " fill="#F4E4DD" transform="translate(101,106)"/>
<path d="M0 0 C0.66 0.66 1.32 1.32 2 2 C1.67 3.32 1.34 4.64 1 6 C-3.455 5.01 -3.455 5.01 -8 4 C-8 3.67 -8 3.34 -8 3 C-5.36 3 -2.72 3 0 3 C0 2.01 0 1.02 0 0 Z " fill="#CFBFB3" transform="translate(100,96)"/>
<path d="M0 0 C1.65 0.33 3.3 0.66 5 1 C5 2.32 5 3.64 5 5 C4.34 5 3.68 5 3 5 C3 4.34 3 3.68 3 3 C2.34 3 1.68 3 1 3 C1 3.66 1 4.32 1 5 C0.01 4.67 -0.98 4.34 -2 4 C-1.34 4 -0.68 4 0 4 C0 2.68 0 1.36 0 0 Z " fill="#624245" transform="translate(68,95)"/>
<path d="M0 0 C0 0.66 0 1.32 0 2 C-2.64 2.66 -5.28 3.32 -8 4 C-8 3.01 -8 2.02 -8 1 C-5.29120665 -0.35439668 -2.99066732 -0.06501451 0 0 Z " fill="#5578C4" transform="translate(37,79)"/>
<path d="M0 0 C0.66 0.33 1.32 0.66 2 1 C1.67 1.99 1.34 2.98 1 4 C-1.31 4.33 -3.62 4.66 -6 5 C-6 4.34 -6 3.68 -6 3 C-5.01 3 -4.02 3 -3 3 C-3 2.34 -3 1.68 -3 1 C-2.01 0.67 -1.02 0.34 0 0 Z " fill="#E6ECFB" transform="translate(38,40)"/>
<path d="M0 0 C0.33 0.99 0.66 1.98 1 3 C2.65 2.67 4.3 2.34 6 2 C5.34 3.98 4.68 5.96 4 8 C3.34 8 2.68 8 2 8 C0.23537317 4.91190305 0 3.76687864 0 0 Z " fill="#CAD7F9" transform="translate(31,27)"/>
<path d="M0 0 C0.33 0.99 0.66 1.98 1 3 C-0.65 4.32 -2.3 5.64 -4 7 C-4.33 6.01 -4.66 5.02 -5 4 C-4.01 3.67 -3.02 3.34 -2 3 C-2 2.34 -2 1.68 -2 1 C-1.34 0.67 -0.68 0.34 0 0 Z " fill="#ACA4A2" transform="translate(107,119)"/>
<path d="M0 0 C1.65 0 3.3 0 5 0 C5 0.99 5 1.98 5 3 C3.02 3.33 1.04 3.66 -1 4 C-0.67 2.68 -0.34 1.36 0 0 Z " fill="#EDD5D1" transform="translate(21,101)"/>
<path d="M0 0 C1.32 0 2.64 0 4 0 C4 0.66 4 1.32 4 2 C3.34 2 2.68 2 2 2 C2 2.99 2 3.98 2 5 C2.66 5.33 3.32 5.66 4 6 C3.01 6 2.02 6 1 6 C0.34 4.35 -0.32 2.7 -1 1 C-0.67 0.67 -0.34 0.34 0 0 Z " fill="#374B66" transform="translate(108,81)"/>
<path d="M0 0 C0.33 0 0.66 0 1 0 C1.99 3.3 2.98 6.6 4 10 C3.01 10.33 2.02 10.66 1 11 C-0.17571451 7.32589215 -0.07366746 3.83070817 0 0 Z " fill="#6385D4" transform="translate(27,27)"/>
<path d="M0 0 C0.66 0 1.32 0 2 0 C2.33 1.65 2.66 3.3 3 5 C1.35 5.33 -0.3 5.66 -2 6 C-2.33 4.68 -2.66 3.36 -3 2 C-2.01 2 -1.02 2 0 2 C0 1.34 0 0.68 0 0 Z " fill="#FCFBF6" transform="translate(82,16)"/>
<path d="M0 0 C0.33 1.32 0.66 2.64 1 4 C0.01 4 -0.98 4 -2 4 C-2 4.66 -2 5.32 -2 6 C-2.66 6 -3.32 6 -4 6 C-3.67 4.35 -3.34 2.7 -3 1 C-2.01 0.67 -1.02 0.34 0 0 Z " fill="#9CA2AE" transform="translate(32,7)"/>
<path d="M0 0 C1.32 0.33 2.64 0.66 4 1 C4 2.65 4 4.3 4 6 C2.68 5.67 1.36 5.34 0 5 C0 3.35 0 1.7 0 0 Z " fill="#E9BEB6" transform="translate(38,119)"/>
<path d="M0 0 C0.99 0 1.98 0 3 0 C2.34 1.32 1.68 2.64 1 4 C-0.65 4 -2.3 4 -4 4 C-4 3.34 -4 2.68 -4 2 C-2.68 2 -1.36 2 0 2 C0 1.34 0 0.68 0 0 Z " fill="#93A689" transform="translate(95,108)"/>
<path d="M0 0 C1.32 0 2.64 0 4 0 C3.34 1.98 2.68 3.96 2 6 C1.01 5.67 0.02 5.34 -1 5 C-0.67 3.35 -0.34 1.7 0 0 Z " fill="#1B3B47" transform="translate(64,89)"/>
<path d="M0 0 C0.66 0 1.32 0 2 0 C4 3 4 3 3.625 5.1875 C3.41875 5.785625 3.2125 6.38375 3 7 C2.34 6.67 1.68 6.34 1 6 C0.375 2.9375 0.375 2.9375 0 0 Z " fill="#566376" transform="translate(107,85)"/>
</svg>
